<?xml version="1.0" encoding="utf-8"?>
<!-- Generator: Adobe Illustrator 24.0.2, SVG Export Plug-In . SVG Version: 6.00 Build 0)  -->
<svg version="1.1" id="Capa_1" xmlns="http://www.w3.org/2000/svg" xmlns:xlink="http://www.w3.org/1999/xlink" x="0px" y="0px"
	 viewBox="0 0 805 805" style="enable-background:new 0 0 805 805;" xml:space="preserve">
<style type="text/css">
	.st0{fill:#C29F92;}
	.st1{fill:#C4A8A8;}
	.st2{fill:#EBCCC1;}
	.st3{fill:#E6C8C8;}
	.st4{fill:#916F61;}
	.st5{fill:#917C7C;}
	.st6{fill:#70472C;}
	.st7{fill:#452525;}
	.st8{fill:#FFFFFF;}
</style>
<title>01_variedades de cafe</title>
<path class="st0" d="M595.6,609.2c-75.5,70.5-183.4,94.3-281.5,62l29.3-86.8c66,21.5,138.4,5.5,189.2-41.7L595.6,609.2z"/>
<path class="st0" d="M661.3,678.7c-19,17.8-39.8,33.6-62,47.1l-47.2-78.5c16.6-10.1,32-21.9,46.2-35.1L661.3,678.7z"/>
<path class="st0" d="M595.9,727.8c-22.4,13.3-46.1,24.3-70.7,32.7L496,673.7c18.3-6.3,36-14.5,52.7-24.4L595.9,727.8z"/>
<path class="st0" d="M521.5,761.8c-24.7,8.2-50.2,13.8-76,16.7l-9.9-91.1c19.3-2.2,38.3-6.4,56.7-12.5L521.5,761.8z"/>
<path class="st0" d="M441.4,779c-25.9,2.7-52,2.7-77.9,0l9.9-91.1c19.3,2,38.8,2,58.1,0L441.4,779z"/>
<path class="st0" d="M359.6,778.6c-25.8-3-51.3-8.6-76-16.7l29.2-86.8c18.4,6.1,37.4,10.3,56.7,12.5L359.6,778.6z"/>
<path class="st1" d="M139,505.3c-29.7-76-25.1-161.2,12.7-233.6l80.9,42.9c-25.1,48.6-28.2,105.7-8.5,156.7L139,505.3z"/>
<path class="st1" d="M50.2,540.7c-9.5-24.2-16.5-49.4-20.8-75l90.4-14.8c3.3,19.1,8.5,37.9,15.5,55.9L50.2,540.7z"/>
<path class="st1" d="M28.7,461.8c-4.1-25.7-5.5-51.8-4.2-77.8l91.5,5c-0.9,19.4,0.1,38.8,3.2,58L28.7,461.8z"/>
<path class="st1" d="M24.7,380c1.5-26,5.8-51.7,12.6-76.8l88.3,24.5c-5.1,18.7-8.2,38-9.4,57.3L24.7,380z"/>
<path class="st1" d="M38.3,299.3c7.1-25,16.8-49.3,28.8-72.3l81,42.9c-9,17.2-16.2,35.3-21.5,53.9L38.3,299.3z"/>
<path class="st2" d="M404.5,119.6c156.2,1.1,282,128.6,280.9,284.9c-0.5,76.3-31.9,149.1-86.9,202l-63-66.5
	c75.9-73.4,77.9-194.5,4.5-270.4c-35.6-36.8-84.3-57.7-135.5-58.3V119.6z"/>
<path class="st2" d="M404.5,24c26,0.1,52,2.9,77.4,8.4l-19.7,89.5c-19-4-38.3-6.1-57.7-6.3V24z"/>
<path class="st2" d="M485.8,33.3c25.4,5.7,50.1,14.1,73.8,24.9l-38.5,83.2c-17.7-8-36.1-14.2-55-18.5L485.8,33.3z"/>
<path class="st2" d="M563.2,59.8c23.6,11.1,45.9,24.5,66.8,40.2l-55.5,72.9c-15.5-11.6-32.2-21.7-49.8-29.9L563.2,59.8z"/>
<path class="st2" d="M633.2,102.4c20.6,15.9,39.6,33.8,56.5,53.6l-69.8,59.3c-12.7-14.7-26.8-28.1-42.2-39.9L633.2,102.4z"/>
<path class="st2" d="M692.3,159c16.8,19.9,31.4,41.5,43.7,64.4l-81,42.9c-9.2-17.1-20.1-33.2-32.6-48.1L692.3,159z"/>
<path class="st2" d="M737.8,227c12.1,23.1,21.7,47.3,28.8,72.3l-88.3,24.5c-5.3-18.7-12.5-36.7-21.5-53.9L737.8,227z"/>
<path class="st2" d="M767.7,303.2c6.8,25.1,11.1,50.9,12.6,76.8l-91.5,5c-1.2-19.4-4.3-38.6-9.4-57.3L767.7,303.2z"/>
<path class="st2" d="M780.5,384c1.3,26-0.1,52-4.2,77.8l-90.4-14.8c3-19.2,4.1-38.6,3.2-58L780.5,384z"/>
<path class="st2" d="M775.7,465.7c-4.4,25.6-11.3,50.8-20.8,75l-85.1-33.9c7.1-18.1,12.3-36.8,15.5-55.9L775.7,465.7z"/>
<path class="st2" d="M753.4,544.5c-9.8,24.1-22,47.2-36.5,68.8l-75.8-51.4c10.8-16.1,19.9-33.3,27.2-51.3L753.4,544.5z"/>
<path class="st2" d="M714.7,616.6c-14.7,21.5-31.6,41.4-50.4,59.3l-63-66.5c14-13.4,26.6-28.3,37.6-44.3L714.7,616.6z"/>
<path class="st3" d="M167.3,559.6c-10.6-15.9-19.6-32.8-26.8-50.5l85.1-33.9c4.7,11.5,10.6,22.6,17.5,33L167.3,559.6z"/>
<path class="st3" d="M88.1,613.3c-14.5-21.6-26.7-44.7-36.5-68.8l85.1-33.9c7.3,18,16.4,35.2,27.2,51.3L88.1,613.3z"/>
<path class="st4" d="M310.3,669.9c-57.2-19.7-106.5-57.2-140.8-107l75.8-51.4c23,33.2,56,58.3,94.2,71.6L310.3,669.9z"/>
<path class="st4" d="M279.8,760.5c-24.6-8.4-48.3-19.4-70.7-32.7l47.2-78.5c16.7,9.9,34.3,18,52.7,24.4L279.8,760.5z"/>
<path class="st4" d="M205.6,725.8c-22.2-13.5-43-29.3-62-47.1l63-66.5c14.2,13.2,29.7,25,46.2,35.1L205.6,725.8z"/>
<path class="st4" d="M140.8,675.9c-18.8-18-35.7-37.9-50.4-59.3l75.8-51.4c11,16,23.6,30.8,37.6,44.3L140.8,675.9z"/>
<path class="st5" d="M153.5,268.2c49-90.9,143.7-147.9,247-148.6v91.6c-69.4,0.7-132.9,39-166,99.9L153.5,268.2z"/>
<path class="st5" d="M69,223.4c12.3-22.9,27-44.5,43.7-64.4l69.8,59.3c-12.5,14.9-23.4,31-32.6,48L69,223.4z"/>
<path class="st5" d="M115.3,155.9c17-19.7,35.9-37.7,56.5-53.6l55.4,73c-15.4,11.8-29.5,25.2-42.2,39.9L115.3,155.9z"/>
<path class="st5" d="M175,100c20.8-15.6,43.2-29.1,66.7-40.1l38.5,83.1c-17.6,8.3-34.2,18.3-49.7,29.9L175,100z"/>
<path class="st5" d="M245.4,58.2c23.7-10.8,48.4-19.1,73.8-24.9l19.7,89.5c-18.9,4.3-37.3,10.5-55,18.5L245.4,58.2z"/>
<path class="st5" d="M323.1,32.4c25.4-5.5,51.4-8.3,77.4-8.4v91.6c-19.4,0.1-38.7,2.2-57.7,6.3L323.1,32.4z"/>
<path class="st6" d="M404.5,215.3c103.4,1.1,186.3,85.8,185.2,189.2s-85.8,186.3-189.2,185.2c-60.7-0.6-117.3-30.7-151.9-80.5
	l75.8-51.4c30.5,43.1,90.2,53.3,133.3,22.7s53.3-90.2,22.7-133.3c-17.5-24.7-45.7-39.7-76-40.3L404.5,215.3z"/>
<path class="st7" d="M246.4,505.9c-57.1-86.2-33.5-202.4,52.7-259.5c30.1-19.9,65.3-30.8,101.4-31.1v91.6
	c-52.8,1.1-94.7,44.8-93.6,97.6c0.4,17.8,5.7,35.1,15.3,50L246.4,505.9z"/>
<g id="Capa_1_1_">
	<g>
		<g>
			<path class="st8" d="M510.2,453.1l2.2,1.2l-1.8,9.4l-1.9-1l1.1-4.6c0.2-0.9,0.5-2,0.7-3h0c-0.6,0.8-1.4,1.6-2,2.3l-3.2,3.5
				l-1.9-1L510.2,453.1z M506.8,457.4l3.9,2.1l-0.8,1.4l-3.9-2L506.8,457.4z"/>
			<path class="st8" d="M514.6,458l1.5,0.8l-0.4,1.1l0,0c0.7-0.5,1.6-0.6,2.4-0.3c0.3,0.1,0.5,0.3,0.7,0.5l-1.1,1.4
				c-0.2-0.2-0.4-0.3-0.6-0.5c-0.7-0.3-1.5-0.1-2,0.4l-1.9,3.6l-1.8-1L514.6,458z"/>
			<path class="st8" d="M516.5,464.7c0.7-1.3,2.1-1.5,4.7-0.4c0.3-0.5,0.1-1.1-0.4-1.4c0,0-0.1,0-0.1,0c-0.6-0.3-1.3-0.4-1.9-0.3
				V461c1-0.1,2.1,0.1,3,0.6c1.6,0.8,2,2.2,1,4.1l-1.9,3.5l-1.5-0.8l0.2-0.7l0,0c-0.7,0.2-1.5,0.2-2.2-0.2c-1-0.5-1.4-1.7-1-2.7
				C516.5,464.8,516.5,464.7,516.5,464.7z M520,466.4l0.6-1.1c-1.4-0.5-2-0.4-2.3,0.1s0,0.7,0.4,1
				C519.1,466.6,519.6,466.6,520,466.4L520,466.4z M522,459.5l3.1-1.3l0.6,1.9l-3.3,0.8L522,459.5z"/>
			<path class="st8" d="M524.4,470.2L524.4,470.2l-0.5,0.6l-1.4-0.8l4.6-8.7l1.8,1l-1.1,2.1l-0.5,0.9c0.7-0.2,1.4-0.1,2,0.2
				c1.5,0.8,1.8,2.5,0.8,4.4c-1.1,2.1-3,2.7-4.3,2C525,471.6,524.5,470.9,524.4,470.2z M528,468.9c0.6-1.1,0.5-1.8-0.2-2.2
				c-0.4-0.2-0.9-0.2-1.3,0l-1.3,2.5c0.1,0.4,0.4,0.7,0.8,0.9C526.6,470.5,527.3,470.2,528,468.9L528,468.9z"/>
			<path class="st8" d="M532.8,467.6l1.8,1l-3.3,6.1l-1.8-1L532.8,467.6z M533.6,465.7c0.2-0.6,0.9-0.9,1.6-0.7
				c0.6,0.2,0.9,0.9,0.7,1.6c-0.2,0.6-0.9,0.9-1.6,0.7c0,0-0.1,0-0.1-0.1C533.6,466.9,533.3,466.3,533.6,465.7
				C533.6,465.7,533.6,465.7,533.6,465.7L533.6,465.7z"/>
			<path class="st8" d="M534.2,472.3c0.8-1.7,2.9-2.5,4.7-1.6c0.1,0,0.2,0.1,0.2,0.1c0.7,0.3,1.2,0.9,1.4,1.6l-1.5,0.7
				c-0.1-0.3-0.3-0.6-0.6-0.8c-0.9-0.5-1.8-0.1-2.4,1c-0.6,0.8-0.4,1.8,0.3,2.4c0,0,0.1,0,0.1,0.1c0.4,0.2,0.9,0.2,1.3,0.1l0.1,1.6
				c-0.8,0.2-1.7,0.1-2.4-0.3c-1.7-0.8-2.3-2.8-1.5-4.5C534,472.5,534.1,472.4,534.2,472.3z"/>
			<path class="st8" d="M539.2,476.7c0.7-1.3,2.1-1.5,4.7-0.4c0.3-0.5,0.1-1.1-0.4-1.4c0,0-0.1,0-0.1,0c-0.6-0.3-1.3-0.4-1.9-0.3
				V473c1.1-0.1,2.1,0.1,3,0.6c1.6,0.8,2,2.2,1,4.1l-1.9,3.5l-1.5-0.8l0.2-0.7l0,0c-0.7,0.2-1.5,0.2-2.2-0.2c-1-0.4-1.5-1.6-1.1-2.6
				C539.1,476.8,539.1,476.8,539.2,476.7z M542.7,478.4l0.6-1.1c-1.4-0.5-2-0.4-2.3,0.1s0,0.7,0.4,1
				C541.8,478.6,542.3,478.6,542.7,478.4z"/>
		</g>
	</g>
	<g>
		<g>
			<path class="st8" d="M261.5,321.9l2.9,1.5c1.7,0.9,2.8,2.2,1.8,4.2s-2.8,1.9-4.5,1l-1.1-0.6L259,331l-1.8-1L261.5,321.9z
				 M262.2,327.1c1,0.5,1.7,0.4,2.1-0.4s0-1.3-0.9-1.8l-0.9-0.5l-1.2,2.3L262.2,327.1z M261.5,328l1.9-0.5l0.2,5.9l-2-1.1L261.5,328
				z"/>
			<path class="st8" d="M265.8,330.6c1-1.6,3.1-2.1,4.7-1.1c1.6,1,2.1,3.1,1.1,4.7c-0.9,1.5-2.9,2-4.5,1.2c-1.7-0.9-2.3-2.9-1.4-4.6
				C265.7,330.7,265.7,330.7,265.8,330.6z M269.9,332.8c0.6-1.1,0.6-2-0.2-2.4s-1.5,0.1-2.1,1.2s-0.5,1.9,0.2,2.3
				S269.3,333.9,269.9,332.8z"/>
			<path class="st8" d="M273.2,337.6L273.2,337.6l-0.5,0.6l-1.4-0.8l4.6-8.7l1.8,1l-1.1,2.1l-0.5,0.9c0.7-0.2,1.4-0.1,2,0.2
				c1.5,0.8,1.8,2.5,0.8,4.4c-1.1,2.1-3,2.7-4.3,2C273.8,339,273.4,338.4,273.2,337.6z M276.9,336.4c0.6-1.1,0.5-1.8-0.2-2.2
				c-0.4-0.2-0.9-0.2-1.4,0l-1.3,2.5c0.1,0.4,0.4,0.7,0.8,0.9C275.4,337.9,276.2,337.7,276.9,336.4L276.9,336.4z"/>
			<path class="st8" d="M279.5,338.8l2-3.8l1.8,1l-1.9,3.6c-0.5,0.9-0.4,1.3,0.1,1.6c0.5,0.2,1,0.2,1.5-0.1l2.1-4.1l1.8,1l-3.3,6.1
				l-1.5-0.8l0.3-0.9l0,0c-0.8,0.4-1.7,0.4-2.5,0C278.8,341.6,278.7,340.4,279.5,338.8z"/>
			<path class="st8" d="M285.2,343.9l1.4-0.7c0.2,0.6,0.7,1.1,1.2,1.5c0.5,0.3,0.9,0.2,1.1-0.1s-0.3-0.9-0.8-1.5
				c-0.8-0.6-1-1.7-0.7-2.7c0.6-1.1,2-1.4,3.4-0.7c0.8,0.4,1.4,1.1,1.8,1.9l-1.4,0.7c-0.2-0.5-0.5-0.9-1-1.2c-0.5-0.3-0.8-0.2-1,0.1
				s0.3,0.9,0.8,1.4s1.3,1.6,0.7,2.7s-1.9,1.5-3.6,0.6C286.2,345.6,285.6,344.8,285.2,343.9z"/>
			<path class="st8" d="M292,345.6l1.3-2.5l-0.8-0.5l0.7-1.4l1,0.4l1.1-1.5l1.5,0.8l-0.9,1.6l1.5,0.8l-0.8,1.4l-1.5-0.8l-1.3,2.5
				c-0.4,0.7-0.2,1.1,0.3,1.4c0.2,0.1,0.4,0.2,0.6,0.2l-0.4,1.5c-0.5-0.1-1-0.3-1.5-0.5C291.4,348.3,291.3,347,292,345.6z"/>
			<path class="st8" d="M295.7,348.2c0.7-1.3,2.1-1.5,4.6-0.4c0.3-0.5,0.1-1.1-0.4-1.4c0,0-0.1,0-0.1,0c-0.6-0.3-1.3-0.4-1.9-0.3
				v-1.5c1.1-0.1,2.1,0.1,3,0.6c1.6,0.8,2,2.2,1,4.1l-1.9,3.5l-1.5-0.8l0.2-0.7l0,0c-0.7,0.2-1.5,0.2-2.2-0.2c-1-0.4-1.5-1.6-1-2.6
				C295.6,348.4,295.7,348.3,295.7,348.2z M299.2,350l0.6-1.1c-1.4-0.5-2-0.4-2.3,0.1s0,0.7,0.4,1
				C298.3,350.2,298.8,350.2,299.2,350L299.2,350z"/>
		</g>
	</g>
	<g>
		<g>
			<path d="M607.2,316.8l1.5-0.6l5.3,6.3l-1.4,0.5l-2.6-3.4c-0.5-0.7-1.1-1.4-1.6-2.1h0c0.1,0.9,0.2,1.8,0.3,2.7l0.4,4.3l-1.3,0.5
				L607.2,316.8z M607.9,321.5l3.4-1.4l0.4,1l-3.4,1.4L607.9,321.5z"/>
			<path d="M612.6,316.8l1-0.4l0.4,0.7l0,0c0.2-0.7,0.7-1.2,1.3-1.5c0.6-0.3,1.4-0.2,1.9,0.4c0.2-0.7,0.7-1.3,1.4-1.7
				c1.2-0.5,2,0.1,2.6,1.5l1.4,3.4l-1.3,0.5l-1.3-3.3c-0.4-0.9-0.8-1.1-1.3-0.9c-0.4,0.2-0.7,0.7-0.9,1.1l1.5,3.8L618,321l-1.3-3.3
				c-0.4-0.9-0.8-1.1-1.3-0.9c-0.4,0.2-0.7,0.7-0.9,1.1l1.5,3.8l-1.3,0.5L612.6,316.8z"/>
			<path d="M622.7,315.9c-0.7-1.4-0.1-3.1,1.3-3.8c0,0,0,0,0.1,0c1.5-0.6,2.7,0.2,3.3,1.7c0.1,0.2,0.2,0.4,0.2,0.6l-3.5,1.4
				c0.4,0.9,1.3,1.3,2.2,0.9c0,0,0,0,0,0c0.4-0.2,0.8-0.5,1.1-0.9l0.8,0.6c-0.4,0.6-1,1.1-1.6,1.3c-1.4,0.6-3.1-0.1-3.7-1.5
				C622.8,316.1,622.7,316,622.7,315.9z M622.9,310.9l0.9-2.6l1.2,0.5l-1.2,2.5L622.9,310.9z M626.2,313.9c-0.3-0.8-0.9-1.2-1.7-0.9
				c-0.7,0.3-1.1,1.1-0.8,1.9L626.2,313.9z"/>
			<path d="M627.6,310.8l1-0.4l0.5,0.9l0,0c0-0.7,0.4-1.4,1.1-1.7c0.2-0.1,0.4-0.1,0.7-0.1l0.2,1.2c-0.2,0-0.4,0.1-0.6,0.1
				c-0.6,0.3-0.9,1-0.8,1.6l1.3,3.3l-1.3,0.5L627.6,310.8z"/>
			<path d="M631,307.5c-0.2-0.4,0-0.9,0.5-1.1c0.4-0.2,0.9,0,1.1,0.5s0,0.9-0.5,1.1C631.7,308.1,631.2,307.9,631,307.5L631,307.5z
				 M631.8,309.1l1.3-0.5l2.2,5.5l-1.3,0.5L631.8,309.1z"/>
			<path d="M635.5,310.8c-0.7-1.4-0.1-3.2,1.3-3.9c0.1,0,0.2-0.1,0.3-0.1c0.6-0.2,1.2-0.2,1.8,0l-0.3,1.1c-0.3-0.1-0.7-0.1-1.1,0
				c-0.9,0.4-1.2,1.4-0.8,2.3c0,0.1,0.1,0.1,0.1,0.2c0.4,1.1,1.3,1.6,2.2,1.2c0.4-0.2,0.7-0.5,1-0.9l0.9,0.6
				c-0.3,0.6-0.9,1.1-1.5,1.4c-1.4,0.6-3.1-0.1-3.7-1.5C635.5,311.1,635.5,310.9,635.5,310.8z"/>
			<path d="M641,310c-0.5-1.2,0.3-2.2,2.4-3.3c-0.3-0.6-0.7-1-1.4-0.7c-0.5,0.3-1,0.7-1.3,1.2l-0.8-0.7c0.5-0.7,1.2-1.3,2-1.6
				c1.4-0.5,2.4,0,3,1.5l1.3,3.2l-1,0.4l-0.3-0.6l0,0c-0.3,0.6-0.8,1.1-1.4,1.4c-0.8,0.5-1.8,0.2-2.3-0.6
				C641.1,310.3,641.1,310.2,641,310z M644.3,308.8l-0.5-1.2c-1.4,0.8-1.8,1.4-1.5,1.9c0.1,0.4,0.6,0.6,1,0.4c0,0,0.1,0,0.1-0.1
				C643.8,309.6,644.1,309.2,644.3,308.8L644.3,308.8z"/>
		</g>
	</g>
	<g>
		<g>
			<path d="M455.1,623.8l0.4,1.6l-7.1,4.2l-0.3-1.4l3.8-2.1c0.8-0.4,1.6-0.8,2.4-1.3l0,0c-0.9,0-1.8-0.1-2.7-0.1l-4.3-0.3l-0.3-1.4
				L455.1,623.8z M450.4,623.8l0.8,3.6l-1.1,0.2l-0.8-3.6L450.4,623.8z M456.2,623.6l2,1.5l-0.7,0.9l-1.8-1.7L456.2,623.6z"/>
			<path d="M454.9,629.1c1-0.4,2,0.1,2.4,1.1c0,0.1,0.1,0.3,0.1,0.4c0.1,0.4,0.1,0.7,0,1.1h-1.1c0-0.2,0-0.4,0-0.7
				c-0.1-0.5-0.5-0.7-1.1-0.5l-6.4,1.4l-0.3-1.3L454.9,629.1z M454.1,628.5l0.3,0.8l0.5,2.4l-1.1,0.2l-0.7-3.3L454.1,628.5z"/>
			<path d="M455.1,632.7l0.2,1.1l-1,0.3l0,0c0.7,0.1,1.3,0.7,1.5,1.4c0,0.2,0,0.5,0,0.7h-1.2c0-0.2,0-0.4,0-0.6
				c-0.1-0.5-0.5-0.9-1.5-1.1l-3.5,0.8l-0.3-1.3L455.1,632.7z"/>
			<path d="M456.1,637.1l0.3,1.3l-5.8,1.3l-0.3-1.3L456.1,637.1z M457.8,636.6c0.4-0.1,0.9,0.1,1.1,0.6c0.1,0.4-0.1,0.9-0.6,1.1
				s-0.9-0.1-1.1-0.6c0,0,0,0,0-0.1C457.1,637.1,457.3,636.7,457.8,636.6C457.8,636.6,457.8,636.6,457.8,636.6L457.8,636.6z"/>
			<path d="M453.8,640.4c1.6-0.4,3.2,0.5,3.6,2c0,0.1,0,0.1,0.1,0.2c0.1,0.6,0,1.3-0.3,1.8l-1-0.5c0.2-0.3,0.3-0.7,0.2-1
				c-0.3-0.9-1.2-1.5-2.1-1.2c0,0-0.1,0-0.1,0c-1.1,0.3-1.8,1.1-1.6,2c0.1,0.4,0.4,0.8,0.8,1.1l-0.8,0.8c-0.6-0.4-1-1-1.1-1.7
				c-0.4-1.5,0.5-3,1.9-3.4C453.5,640.5,453.6,640.4,453.8,640.4z"/>
			<path d="M453.6,646.1c1.2-0.3,2.1,0.6,2.9,2.9c0.6-0.2,1.1-0.5,0.9-1.3c-0.2-0.6-0.5-1.1-0.9-1.5l0.8-0.7
				c0.6,0.6,1.1,1.4,1.3,2.2c0.3,1.4-0.4,2.3-2,2.7l-3.4,0.8l-0.3-1.1l0.6-0.2l0,0c-0.6-0.4-1-0.9-1.2-1.6c-0.3-0.9,0.2-1.8,1.1-2.1
				C453.5,646.1,453.6,646.1,453.6,646.1z M454.4,649.5l1.3-0.3c-0.5-1.5-1.1-2-1.6-1.8s-0.7,0.5-0.5,1
				C453.6,648.8,453.9,649.2,454.4,649.5z"/>
		</g>
	</g>
	<g>
		<g>
			<path d="M249.9,596.9l1-1.3l7.8,2.7l-0.9,1.2l-4-1.6c-0.8-0.3-1.7-0.7-2.5-1l0,0c0.6,0.7,1.1,1.4,1.6,2.1l2.6,3.5l-0.9,1.1
				L249.9,596.9z M253,600.5l2.2-2.9l0.9,0.7l-2.2,2.9L253,600.5z"/>
			<path d="M258.4,597.5l-0.3-1c0.6-0.1,1.1-0.4,1.5-0.9c0.4-0.5,0.3-0.9,0-1.2s-1,0.1-1.5,0.4s-1.6,0.9-2.4,0.3
				c-0.8-0.7-0.9-1.8-0.2-2.6c0,0,0.1-0.1,0.1-0.1c0.4-0.6,1-1,1.7-1.1l0.3,1c-0.5,0.1-0.9,0.4-1.2,0.7c-0.4,0.5-0.3,0.9,0,1.1
				s0.9-0.1,1.4-0.5s1.6-0.9,2.4-0.3s1,1.8,0.1,2.9C259.9,596.9,259.2,597.3,258.4,597.5z"/>
			<path d="M256.2,588.8c-0.3-0.3-0.4-0.8-0.1-1.1c0,0,0,0,0-0.1c0.2-0.4,0.7-0.5,1.1-0.2c0.4,0.2,0.5,0.7,0.2,1.1
				c0,0,0,0.1-0.1,0.1C257.1,588.9,256.6,589.1,256.2,588.8C256.3,588.8,256.2,588.8,256.2,588.8z M257.8,589.8l0.8-1.1l4.7,3.6
				l-0.8,1.1L257.8,589.8z"/>
			<path d="M262.9,590.1c-1-0.8-0.9-2,0.4-4.1c-0.4-0.4-1-0.4-1.4,0c-0.1,0.1-0.1,0.1-0.2,0.2c-0.3,0.5-0.5,1.1-0.5,1.7l-1-0.2
				c0.1-0.9,0.4-1.7,0.9-2.4c0.9-1.2,2-1.2,3.4-0.2l2.8,2.1l-0.7,0.9l-0.6-0.3l0,0c0.1,0.7-0.1,1.4-0.5,1.9c-0.5,0.8-1.5,1-2.3,0.5
				C263.1,590.2,263,590.2,262.9,590.1z M265,587.4l-1-0.8c-0.8,1.4-0.8,2.1-0.3,2.4c0.3,0.3,0.8,0.2,1-0.1c0,0,0.1-0.1,0.1-0.1
				C265,588.4,265.1,587.8,265,587.4L265,587.4z"/>
		</g>
	</g>
	<g>
		<g>
			<path d="M174.3,519.1l1.4-0.8l5.9,5.7l-1.3,0.7l-3-3.1c-0.6-0.6-1.2-1.3-1.8-2l0,0c0.2,0.9,0.4,1.8,0.6,2.6l0.9,4.3l-1.3,0.7
				L174.3,519.1z M175.5,523.7l3.3-1.7l0.5,1l-3.3,1.7L175.5,523.7z"/>
			<path d="M179.7,518.5l1-0.5l0.5,0.7l0,0c0.1-0.7,0.5-1.3,1.1-1.7c0.6-0.4,1.4-0.3,1.9,0.2c0.1-0.7,0.5-1.4,1.2-1.8
				c1.1-0.6,2-0.1,2.7,1.2l1.7,3.3l-1.2,0.7l-1.6-3.1c-0.4-0.8-0.9-1-1.4-0.8c-0.4,0.3-0.7,0.7-0.7,1.2l1.9,3.6l-1.2,0.7l-1.7-3.1
				c-0.4-0.8-0.9-1-1.4-0.8c-0.4,0.3-0.7,0.7-0.7,1.2l1.9,3.6l-1.2,0.7L179.7,518.5z"/>
			<path d="M189.6,516.5c-0.8-1.3-0.4-3.1,0.9-4c0,0,0.1,0,0.1,0c1.4-0.8,2.7-0.1,3.5,1.3c0.1,0.2,0.2,0.4,0.3,0.6l-3.3,1.8
				c0.5,0.8,1.5,1.1,2.3,0.6c0,0,0,0,0,0c0.4-0.2,0.8-0.6,1-1l0.8,0.5c-0.3,0.6-0.9,1.2-1.5,1.5c-1.4,0.8-3.1,0.3-3.9-1
				C189.7,516.8,189.7,516.7,189.6,516.5z M189.3,511.5l0.6-2.7l1.3,0.4l-0.9,2.6L189.3,511.5z M192.9,514.2c-0.4-0.8-1-1.1-1.8-0.7
				c-0.7,0.4-0.9,1.3-0.6,2L192.9,514.2z"/>
			<path d="M194,510.9l1-0.5l0.6,0.9l0,0c-0.1-0.7,0.3-1.4,0.9-1.8c0.2-0.1,0.4-0.2,0.6-0.2l0.4,1.2c-0.2,0-0.4,0.1-0.6,0.2
				c-0.6,0.4-0.8,1.1-0.6,1.7l1.7,3.2l-1.2,0.7L194,510.9z"/>
			<path d="M196.9,507.3c-0.2-0.4,0-0.9,0.4-1.1c0,0,0,0,0,0c0.4-0.3,0.8-0.2,1.1,0.2s0.2,0.8-0.2,1.1c-0.1,0-0.1,0.1-0.2,0.1
				C197.7,507.8,197.2,507.7,196.9,507.3C196.9,507.3,196.9,507.3,196.9,507.3z M197.9,508.8l1.2-0.6l2.8,5.2l-1.2,0.6L197.9,508.8z
				"/>
			<path d="M201.7,510.1c-0.9-1.4-0.4-3.2,0.9-4c0.1,0,0.2-0.1,0.2-0.1c0.6-0.3,1.2-0.4,1.8-0.2l-0.2,1.1c-0.4-0.1-0.7-0.1-1.1,0.1
				c-0.8,0.5-1.1,1.5-0.6,2.4c0,0,0.1,0.1,0.1,0.1c0.6,1,1.5,1.4,2.3,1c0.4-0.2,0.7-0.6,0.8-1l0.9,0.5c-0.2,0.7-0.7,1.2-1.4,1.5
				c-1.4,0.7-3.1,0.3-3.8-1.1C201.8,510.3,201.8,510.2,201.7,510.1z"/>
			<path d="M207.2,508.8c-0.6-1.1,0-2.2,2-3.5c-0.2-0.5-0.7-0.8-1.3-0.6c-0.1,0-0.2,0.1-0.2,0.1c-0.5,0.3-0.9,0.8-1.2,1.3l-0.9-0.6
				c0.4-0.8,1-1.4,1.8-1.8c1.3-0.7,2.4-0.2,3.1,1.2l1.6,3.1l-1,0.5l-0.4-0.5l0,0c-0.2,0.7-0.7,1.2-1.2,1.6c-0.8,0.5-1.8,0.2-2.3-0.6
				C207.3,508.9,207.3,508.8,207.2,508.8z M210.3,507.1l-0.6-1.2c-1.3,0.9-1.6,1.5-1.3,2.1c0.2,0.4,0.6,0.5,1,0.3c0,0,0.1,0,0.1-0.1
				C209.9,508,210.2,507.6,210.3,507.1z"/>
		</g>
	</g>
	<g>
		<g>
			<path d="M152.4,385.1l1.6,0.1l2.1,8l-1.5-0.1l-1-4.2c-0.2-0.9-0.4-1.8-0.6-2.6l0,0c-0.3,0.9-0.5,1.7-0.8,2.5l-1.4,4.1l-1.4-0.1
				L152.4,385.1z M151.1,389.6l3.7,0.2l-0.1,1.1l-3.7-0.2L151.1,389.6z M152.4,384l2-1.5l0.7,0.9l-2.2,1.3L152.4,384z"/>
			<path d="M156.6,387.3h0.9l2.5,0.1l-0.1,1.1l-3.3-0.2L156.6,387.3z M157.4,386.7c0.1-1.2,0.7-2.1,2.1-2c0.4,0,0.7,0.1,1.1,0.3
				l-0.3,1c-0.2-0.1-0.4-0.2-0.6-0.2c-0.5,0-0.8,0.3-0.8,1l-0.4,6.5l-1.4-0.1L157.4,386.7z"/>
			<path d="M161,387.5l1.1,0.1v1.1l0,0c0.3-0.7,1-1.1,1.7-1.1c0.2,0,0.5,0,0.7,0.1l-0.3,1.2c-0.2-0.1-0.4-0.1-0.6-0.1
				c-0.5,0-1.1,0.3-1.4,1.1l-0.2,3.6l-1.4-0.1L161,387.5z"/>
			<path d="M165.4,387.8l1.4,0.1l-0.3,5.9l-1.4-0.1L165.4,387.8z M165.4,385.9c0-0.5,0.4-0.9,0.8-0.9c0.5,0,0.9,0.4,0.9,0.8
				c0,0.5-0.4,0.9-0.8,0.9c0,0,0,0-0.1,0C165.8,386.8,165.4,386.4,165.4,385.9C165.4,386,165.4,386,165.4,385.9z"/>
			<path d="M168,390.9c0-1.6,1.3-2.9,2.9-2.9c0.1,0,0.2,0,0.2,0c0.6,0,1.2,0.3,1.7,0.8l-0.7,0.9c-0.3-0.3-0.6-0.5-1-0.5
				c-0.9,0-1.6,0.7-1.7,1.9s0.5,2,1.4,2c0.5,0,0.9-0.1,1.3-0.4l0.5,0.9c-0.6,0.4-1.3,0.7-2,0.6c-1.5-0.1-2.7-1.4-2.6-3
				C168,391,168,390.9,168,390.9z"/>
			<path d="M173.5,392.5c0.1-1.3,1.1-1.9,3.6-2c0-0.6-0.2-1.2-1-1.2c-0.6,0-1.2,0.2-1.7,0.5l-0.5-1c0.7-0.4,1.6-0.7,2.5-0.6
				c1.5,0.1,2.1,1,2.1,2.7l-0.2,3.5l-1.1-0.1l-0.1-0.6l0,0c-0.5,0.5-1.2,0.7-1.9,0.7c-0.9,0-1.7-0.7-1.7-1.6
				C173.5,392.6,173.5,392.6,173.5,392.5z M176.9,392.7l0.1-1.3c-1.6,0.1-2.2,0.5-2.2,1.1s0.3,0.8,0.8,0.8
				C176.1,393.3,176.6,393.1,176.9,392.7z"/>
		</g>
	</g>
	<g>
		<g>
			<path d="M278.4,188.8l0.9,1.4l-5.4,6.2l-0.8-1.3l3-3.2c0.6-0.6,1.2-1.3,1.9-1.9l0,0c-0.9,0.3-1.7,0.5-2.6,0.7l-4.2,1.1l-0.7-1.2
				L278.4,188.8z M273.9,190.3l1.9,3.2l-0.9,0.6l-1.9-3.2L273.9,190.3z"/>
			<path d="M274.7,196.5l1.1,0.1c-0.1,0.6,0,1.2,0.3,1.7c0.3,0.6,0.8,0.6,1.1,0.4s0.3-0.9,0.2-1.6s-0.2-1.8,0.6-2.3
				c0.9-0.5,2-0.1,2.5,0.8c0,0.1,0.1,0.1,0.1,0.2c0.4,0.6,0.5,1.3,0.4,2l-1-0.1c0.1-0.5,0-1-0.2-1.4c-0.3-0.5-0.7-0.6-1-0.4
				s-0.3,0.9-0.1,1.5c0.2,0.8,0.3,1.8-0.7,2.4s-2,0.3-2.7-1C274.7,198.1,274.6,197.3,274.7,196.5z"/>
			<path d="M282.1,198.7l0.7,1.2l-5,3l-0.7-1.2L282.1,198.7z M283.6,197.7c0.4-0.3,0.9-0.2,1.2,0.2c0.3,0.4,0.2,0.9-0.2,1.2
				c-0.4,0.3-0.9,0.2-1.2-0.2c0,0,0,0,0-0.1C283.1,198.4,283.2,198,283.6,197.7C283.6,197.7,283.6,197.7,283.6,197.7z"/>
			<path d="M279.9,203.4c1.1-0.6,2.2-0.1,3.7,1.9c0.5-0.2,0.8-0.8,0.6-1.3c0-0.1-0.1-0.2-0.1-0.2c-0.3-0.5-0.8-0.9-1.4-1.1l0.5-0.9
				c0.8,0.4,1.4,1,1.9,1.7c0.8,1.3,0.4,2.4-1,3.2l-3,1.8l-0.6-1l0.5-0.4l0,0c-0.7-0.2-1.2-0.6-1.6-1.2c-0.5-0.8-0.3-1.8,0.4-2.3
				C279.8,203.4,279.8,203.4,279.9,203.4z M281.7,206.4l1.1-0.7c-1-1.3-1.6-1.5-2.1-1.2c-0.4,0.2-0.5,0.6-0.3,1c0,0,0.1,0.1,0.1,0.1
				C280.7,206,281.2,206.3,281.7,206.4L281.7,206.4z"/>
		</g>
	</g>
	<g>
		<g>
			<path d="M434.5,84.8l0.2-1.8c0.1-1.3,0.7-2.1,1.8-2c0.7,0,1.2,0.5,1.3,1.2l0,0c0.2-0.8,1-1.4,1.8-1.2c1.3,0.1,1.8,1.2,1.6,2.6
				l-0.2,1.9L434.5,84.8z M437.5,83.6c0.1-1.3-0.3-1.9-1-2s-1.3,0.5-1.5,1.7l-0.1,1.2l2.5,0.3L437.5,83.6z M440.8,83.7
				c0.1-1.3-0.3-2.2-1.3-2.3s-1.5,0.6-1.6,2l-0.1,1.3l2.9,0.3L440.8,83.7z"/>
			<path d="M439.2,80c-1.2,0.1-2.2-0.8-2.3-2c-0.1-1.2,0.8-2.2,2-2.3c0.3,0,0.5,0,0.7,0.1c1.2,0,2.2,0.9,2.3,2.1
				c0,1.2-0.9,2.2-2.1,2.3C439.6,80.1,439.4,80.1,439.2,80z M439.6,76.2c-1.3-0.1-2.2,0.5-2.3,1.4s0.7,1.8,1.9,1.9s2.2-0.5,2.3-1.4
				S440.9,76.3,439.6,76.2L439.6,76.2z"/>
			<path d="M441.5,74.5l-6.5-0.7v-0.4l6.6,0.7c0.2,0,0.3,0,0.3-0.2c0-0.1,0-0.1,0-0.2h0.4c0,0.1,0,0.2,0,0.3
				C442.3,74.3,442.1,74.5,441.5,74.5z"/>
			<path d="M436.1,71.7c-0.2,0-0.4-0.2-0.4-0.4c0,0,0,0,0,0c0-0.2,0.2-0.4,0.4-0.4c0,0,0,0,0,0c0.2,0,0.4,0.2,0.4,0.4c0,0,0,0,0,0
				C436.5,71.5,436.3,71.7,436.1,71.7C436.1,71.7,436.1,71.7,436.1,71.7z M437.7,71.7v-0.4l4.8,0.5l0,0.4L437.7,71.7z"/>
			<path d="M437.8,70.2l0-0.5L441,69l1.4-0.3l0,0l-1.3-0.7l-2.9-1.4v-0.4l4.6,2.3l-0.1,0.5L437.8,70.2z"/>
			<path d="M436.8,65.1c-0.2,0-0.4-0.2-0.3-0.4c0,0,0,0,0,0c0-0.2,0.2-0.4,0.4-0.4c0,0,0,0,0,0c0.2,0,0.4,0.2,0.4,0.4
				C437.3,64.9,437.1,65.1,436.8,65.1z M438.4,65.1l0-0.4l4.8,0.5v0.4L438.4,65.1z"/>
			<path d="M442.2,63.5c-1.1-0.1-1.5-1.1-1.5-3.3c-0.7-0.1-1.5,0-1.6,1c0,0.6,0.1,1.1,0.4,1.6l-0.4,0.2c-0.3-0.6-0.5-1.2-0.4-1.8
				c0.1-1.1,1-1.4,2-1.3l3,0.3v0.4h-0.6l0,0c0.4,0.5,0.6,1.1,0.5,1.8c0,0.7-0.6,1.2-1.3,1.2C442.3,63.5,442.3,63.5,442.2,63.5z
				 M442.7,60.5l-1.6-0.2c0,2,0.4,2.7,1.1,2.8c0.5,0.1,1-0.2,1-0.7c0-0.1,0-0.1,0-0.2C443.3,61.5,443.1,60.9,442.7,60.5z"/>
		</g>
	</g>
	<g>
		<g>
			<path d="M502.9,106.6c-2-0.7-2.9-2.2-2.3-3.8c0.2-0.6,0.7-1.1,1.3-1.4l0.2,0.3c-0.5,0.2-0.9,0.6-1.1,1.2
				c-0.5,1.4,0.3,2.6,2.1,3.2s3.1,0.1,3.6-1.2c0.2-0.6,0.1-1.3-0.2-1.8l0.4-0.2c0.4,0.6,0.5,1.4,0.3,2.2
				C506.5,106.6,504.9,107.3,502.9,106.6z"/>
			<path d="M505.6,101.6c-1.1-0.6-1.5-1.9-0.9-2.9s1.9-1.5,2.9-0.9c1,0.5,1.4,1.6,1.1,2.6c-0.4,1.2-1.8,1.8-2.9,1.3
				C505.7,101.6,505.6,101.6,505.6,101.6z M506.8,98c-0.9-0.5-2.1-0.1-2.5,0.8c0,0,0,0.1,0,0.1c-0.3,0.9,0.3,1.9,1.5,2.3
				c0.9,0.5,2,0.1,2.5-0.8c0,0,0-0.1,0-0.1C508.6,99.3,508,98.4,506.8,98z"/>
			<path d="M509.1,96.7l-6.2-2.1l0.1-0.4l6.3,2.1c0.2,0.1,0.3,0,0.4-0.1c0-0.1,0-0.1,0-0.2h0.4c0,0.1,0,0.2-0.1,0.3
				C509.9,96.8,509.6,96.9,509.1,96.7z"/>
			<path d="M508,94.3c-1.1-0.5-1.5-1.9-0.9-2.9s1.9-1.5,2.9-0.9c1,0.5,1.4,1.6,1.1,2.6c-0.4,1.2-1.8,1.7-2.9,1.3
				C508.1,94.3,508.1,94.3,508,94.3z M509.3,90.7c-0.9-0.5-2-0.1-2.5,0.8c0,0,0,0.1,0,0.1c-0.3,0.9,0.3,1.9,1.5,2.3
				c0.9,0.5,2,0.1,2.5-0.8c0,0,0-0.1,0-0.1C511,92,510.5,91.1,509.3,90.7z"/>
			<path d="M507.6,88.1l0.1-0.4l0.7,0.2l0,0c-0.3-0.5-0.5-1.1-0.3-1.7c0.1-0.6,0.7-1,1.4-0.9c-0.4-0.5-0.5-1.2-0.4-1.9
				c0.3-0.9,1-1.2,2.2-0.8l2.9,1L514,84l-2.9-1c-1-0.3-1.5-0.2-1.8,0.5c-0.1,0.6,0,1.2,0.4,1.7l3.4,1.2l-0.1,0.4l-2.9-1
				c-1-0.3-1.5-0.2-1.8,0.5c-0.1,0.6,0,1.2,0.4,1.7l3.4,1.2l-0.1,0.4L507.6,88.1z"/>
			<path d="M514.4,81.3L514.4,81.3l0.4,0.2l-0.1,0.3l-6.8-2.3l0.1-0.4l2,0.7l0.9,0.3c-0.3-0.6-0.3-1.2-0.2-1.8
				c0.4-1.2,1.5-1.5,2.9-1s2.1,1.8,1.8,2.8C515.3,80.7,514.9,81.1,514.4,81.3z M513.5,77.8c-1.1-0.4-2.1-0.3-2.4,0.8
				c-0.1,0.6,0,1.2,0.3,1.7l2.7,0.9c0.5-0.3,0.8-0.7,1-1.1C515.4,79.1,514.8,78.2,513.5,77.8L513.5,77.8z"/>
			<path d="M510.4,74.9c-0.2-0.1-0.3-0.3-0.2-0.5c0.1-0.2,0.3-0.3,0.4-0.2c0.2,0.1,0.3,0.3,0.2,0.5C510.8,74.9,510.6,75,510.4,74.9
				C510.4,74.9,510.4,74.9,510.4,74.9z M511.9,75.2l0.1-0.4l4.5,1.5l-0.1,0.4L511.9,75.2z"/>
			<path d="M516,74.5c-1-0.3-1.2-1.4-0.7-3.5c-0.7-0.3-1.5-0.3-1.8,0.6c-0.2,0.5-0.2,1.1,0,1.6l-0.4,0.1c-0.2-0.6-0.2-1.3,0-1.9
				c0.4-1.1,1.3-1.2,2.2-0.8l2.9,1l-0.1,0.4l-0.6-0.2l0,0c0.3,0.6,0.3,1.2,0.2,1.9c-0.2,0.7-0.8,1.1-1.5,0.9
				C516.1,74.6,516.1,74.6,516,74.5z M517.1,71.7l-1.5-0.5c-0.4,1.9-0.2,2.7,0.5,3c0.5,0.2,1,0,1.2-0.5c0-0.1,0-0.1,0.1-0.2
				C517.5,72.9,517.4,72.2,517.1,71.7L517.1,71.7z"/>
		</g>
	</g>
	<g>
		<g>
			<path d="M562.6,137.8c-1.8-1.1-2.3-2.7-1.5-4.2c0.3-0.6,0.9-0.9,1.6-1.1l0.1,0.4c-0.6,0.1-1,0.4-1.3,0.9
				c-0.7,1.2-0.2,2.6,1.3,3.5s3,0.8,3.8-0.4c0.3-0.6,0.4-1.2,0.2-1.8l0.4-0.1c0.3,0.7,0.2,1.5-0.2,2.2
				C566.1,138.6,564.4,138.8,562.6,137.8z"/>
			<path d="M566.3,133.4c-0.9-0.8-1.1-2.1-0.3-3.1c0.8-0.9,2.1-1.1,3.1-0.3c0.8,0.7,1,1.9,0.5,2.8c-0.7,1-2.1,1.3-3.1,0.7
				C566.4,133.5,566.3,133.5,566.3,133.4z M568.3,130.1c-0.9-0.3-1.9,0.3-2.1,1.2c-0.3,0.9,0.3,1.9,1.2,2.1c0.8,0.2,1.6-0.1,2-0.8
				c0.4-0.9,0-2-0.9-2.5C568.4,130.2,568.3,130.1,568.3,130.1L568.3,130.1z"/>
			<path d="M570.5,130l-0.2-0.4c0.6-0.1,1-0.5,1.3-1c0.4-0.4,0.3-1.1-0.1-1.4c0,0-0.1,0-0.1-0.1c-0.5-0.3-1.1,0.1-1.5,0.5
				s-1.3,1-2,0.6c-0.6-0.4-0.8-1.2-0.4-1.8c0-0.1,0.1-0.1,0.1-0.2c0.3-0.4,0.7-0.7,1.1-0.9l0.2,0.4c-0.4,0.1-0.8,0.4-1,0.8
				c-0.3,0.4-0.3,1,0.1,1.3c0,0,0,0,0.1,0.1c0.5,0.3,0.9-0.1,1.4-0.5s1.3-1.1,2.1-0.6c0.7,0.4,0.8,1.3,0.4,2c0,0-0.1,0.1-0.1,0.1
				C571.6,129.3,571.1,129.8,570.5,130z"/>
			<path d="M572.2,125.7l-2.7-1.6l-0.4,0.6l-0.3-0.2l0.3-0.7l-1.2-0.8l0.2-0.3l1.2,0.7l0.7-1.2l0.3,0.2l-0.7,1.2l2.7,1.6
				c0.5,0.3,1,0.4,1.3-0.2c0.1-0.2,0.2-0.4,0.2-0.6l0.4,0.1c0,0.3-0.1,0.5-0.3,0.8C573.6,126.2,572.9,126.1,572.2,125.7z"/>
			<path d="M573.6,123.6c-0.9-0.6-0.8-1.6,0-3.6c-0.6-0.4-1.4-0.6-1.9,0.2c-0.3,0.5-0.4,1-0.3,1.6H571c-0.1-0.6,0.1-1.3,0.4-1.9
				c0.6-1,1.5-0.9,2.4-0.3l2.6,1.6l-0.2,0.3l-0.6-0.3l0,0c0.1,0.6,0,1.3-0.2,1.8c-0.3,0.6-1,0.9-1.7,0.6
				C573.7,123.7,573.6,123.7,573.6,123.6z M575.3,121.1l-1.4-0.8c-0.8,1.8-0.8,2.6-0.1,3c0.4,0.3,1,0.2,1.2-0.2
				c0-0.1,0.1-0.1,0.1-0.2C575.4,122.3,575.5,121.6,575.3,121.1z"/>
			<path d="M572.7,114.6l1-1.6c0.7-1.1,1.5-1.6,2.6-1s1.1,1.7,0.5,2.8L576,116l2.6,1.6l-0.2,0.4L572.7,114.6z M576.3,114.7
				c0.6-1,0.5-1.8-0.3-2.3s-1.5-0.1-2.1,0.8l-0.7,1.1l2.4,1.4L576.3,114.7z M576.6,114.8l0.1-0.4h3.8l-0.3,0.5L576.6,114.8z"/>
			<path d="M575.6,110.2c-0.2-0.1-0.2-0.3-0.2-0.5c0,0,0,0,0,0c0.1-0.2,0.3-0.3,0.5-0.2c0,0,0,0,0,0c0.2,0.1,0.2,0.4,0.1,0.6
				C576,110.3,575.8,110.3,575.6,110.2z M577,110.9l0.2-0.4l4.1,2.5l-0.2,0.4L577,110.9z"/>
			<path d="M580.1,110.5c-1.1-0.5-1.6-1.9-1.1-3c0,0,0-0.1,0.1-0.1c0.3-0.5,0.7-0.8,1.2-0.9l0.1,0.4c-0.4,0.1-0.8,0.4-1,0.7
				c-0.5,1-0.1,2.1,0.9,2.6c0,0,0,0,0,0c0.8,0.6,2,0.5,2.6-0.3c0,0,0.1-0.1,0.1-0.1c0.2-0.4,0.3-0.9,0.2-1.4h0.4
				c0.3,1.2-0.4,2.4-1.6,2.6C581.4,111.2,580.7,111,580.1,110.5L580.1,110.5z"/>
			<path d="M583.4,107.3c-0.9-0.6-0.8-1.6,0-3.6c-0.6-0.4-1.4-0.6-1.9,0.2c-0.3,0.5-0.4,1-0.3,1.6h-0.4c-0.1-0.6,0.1-1.3,0.4-1.8
				c0.6-1,1.5-0.9,2.4-0.3l2.6,1.6l-0.2,0.3l-0.5-0.3l0,0c0.1,0.6,0,1.3-0.2,1.8c-0.3,0.6-1,0.9-1.7,0.6
				C583.5,107.4,583.4,107.3,583.4,107.3z M585.1,104.8l-1.4-0.8c-0.8,1.8-0.8,2.6-0.1,3c0.4,0.3,1,0.2,1.3-0.2c0,0,0.1-0.1,0.1-0.2
				C585.2,106,585.3,105.3,585.1,104.8z"/>
		</g>
	</g>
	<g>
		<g>
			<path d="M617.7,171.6l2.5-2.6l0.3,0.3l-2.2,2.3l1.8,1.7l1.8-1.9l0.3,0.3l-1.8,1.9l2.1,2l2.2-2.4l0.3,0.3l-2.5,2.7L617.7,171.6z"
				/>
			<path d="M623.9,171.1c-1-0.8-1.2-2.2-0.4-3.2c0,0,0.1-0.1,0.1-0.1c0.4-0.4,0.9-0.6,1.4-0.6v0.4c-0.4,0-0.8,0.2-1.2,0.5
				c-0.7,0.8-0.5,2,0.3,2.7c0,0,0,0,0.1,0.1c0.6,0.8,1.8,0.9,2.6,0.3c0,0,0.1-0.1,0.1-0.1c0.3-0.4,0.5-0.8,0.5-1.3h0.4
				c0,0.6-0.2,1.1-0.6,1.6c-0.9,0.9-2.3,0.9-3.1,0C624,171.2,623.9,171.2,623.9,171.1z"/>
			<path d="M627.7,168.1l-2.2-2.1l0.3-0.3l2.2,2.1c0.7,0.7,1.3,0.8,1.8,0.2c0.4-0.5,0.5-1.2,0.3-1.8l-2.6-2.4l0.3-0.3l3.5,3.3
				l-0.3,0.3l-0.6-0.5l0,0c0.1,0.6,0,1.3-0.5,1.8C629.4,169,628.6,168.9,627.7,168.1z"/>
			<path d="M631.5,164.8c-0.8-0.7-0.5-1.8,0.8-3.5c-0.5-0.5-1.2-0.9-1.9-0.2c-0.4,0.4-0.6,0.9-0.6,1.5l-0.4-0.1
				c0.1-0.6,0.4-1.2,0.8-1.7c0.8-0.8,1.7-0.5,2.4,0.2l2.2,2.1l-0.3,0.3l-0.5-0.4l0,0c0,0.6-0.2,1.3-0.6,1.8
				c-0.4,0.6-1.2,0.7-1.8,0.3C631.6,164.9,631.6,164.8,631.5,164.8z M633.8,162.6l-1.2-1.1c-1.2,1.6-1.3,2.4-0.8,2.9
				c0.3,0.4,0.9,0.4,1.3,0c0,0,0.1-0.1,0.1-0.1C633.6,163.9,633.8,163.3,633.8,162.6z"/>
			<path d="M634,160.4c-1-0.8-1.2-2.2-0.4-3.2c0,0,0-0.1,0.1-0.1c0.4-0.4,0.9-0.6,1.4-0.6l-0.7-0.6l-1.4-1.4l0.3-0.3l5.2,4.9
				l-0.3,0.3l-0.5-0.4l0,0c0.1,0.6-0.1,1.2-0.5,1.6C636.4,161.6,635.2,161.6,634,160.4z M637.4,158.8l-2.1-2c-0.5,0-1,0.2-1.4,0.6
				c-0.6,0.8-0.5,2,0.4,2.7c0,0,0,0,0,0c0.9,0.9,1.9,1.1,2.6,0.3C637.3,159.9,637.5,159.3,637.4,158.8L637.4,158.8z"/>
			<path d="M637.8,156.5c-0.7-0.9-0.6-2.3,0.4-3.1s2.3-0.6,3.1,0.4c0.7,0.9,0.6,2.1-0.1,2.8c-0.9,0.9-2.3,0.8-3.2,0
				C637.8,156.6,637.8,156.5,637.8,156.5z M640.4,153.7c-0.8-0.5-1.9-0.2-2.4,0.6c-0.5,0.8-0.2,1.9,0.6,2.4c0.7,0.4,1.6,0.3,2.1-0.3
				C641.4,155.6,641.3,154.4,640.4,153.7C640.4,153.7,640.4,153.7,640.4,153.7L640.4,153.7z"/>
			<path d="M640,150.7l0.3-0.3l0.7,0.6l0,0c-0.2-0.6-0.2-1.2,0.2-1.7c0.1-0.1,0.2-0.2,0.4-0.3l0.2,0.3c-0.1,0.1-0.3,0.2-0.3,0.3
				c-0.3,0.3-0.4,0.9,0,1.8l2.4,2.3l-0.3,0.3L640,150.7z"/>
		</g>
	</g>
	<g>
		<g>
			<path d="M656.3,227.3l3-2l0.2,0.3l-2.6,1.8l1.4,2.1l2.2-1.5l0.2,0.3l-2.2,1.5l1.6,2.4l2.7-1.8l0.2,0.3l-3.1,2.1L656.3,227.3z"/>
			<path d="M663.9,229.3l-3.7-5.4l0.4-0.2l3.7,5.5c0.1,0.2,0.3,0.2,0.3,0.1c0.1,0,0.1-0.1,0.1-0.1l0.3,0.3c-0.1,0.1-0.1,0.2-0.2,0.2
				C664.5,229.9,664.2,229.8,663.9,229.3z"/>
			<path d="M667,227l0.1-0.4c0.7,0.2,1.5,0.1,2.1-0.4c0.8-0.6,1.1-1.4,0.6-2s-1-0.6-1.8-0.5l-1.1,0.2c-0.7,0.2-1.5,0-2-0.6
				c-0.5-0.8-0.2-1.9,0.6-2.4c0,0,0.1,0,0.1,0c0.6-0.4,1.3-0.5,2-0.4v0.4c-0.6-0.1-1.2,0-1.7,0.3c-0.6,0.3-0.9,1-0.6,1.7
				c0,0,0,0.1,0.1,0.1c0.4,0.6,1.1,0.5,1.7,0.4l1.1-0.2c0.8-0.3,1.6,0,2.1,0.7c0.5,0.9,0.3,2-0.6,2.6c0,0-0.1,0.1-0.1,0.1
				C668.8,227.1,667.9,227.2,667,227z"/>
			<path d="M671.2,223.7c-0.6-0.9-0.1-1.8,1.5-3.2c-0.4-0.6-1-1.2-1.8-0.6c-0.5,0.3-0.8,0.8-1,1.3l-0.3-0.1c0.2-0.6,0.6-1.1,1.1-1.5
				c0.9-0.6,1.7-0.2,2.3,0.7l1.7,2.5l-0.3,0.2l-0.4-0.5l0,0c-0.1,0.6-0.5,1.2-1,1.6c-0.5,0.4-1.3,0.4-1.8-0.2
				C671.3,223.8,671.2,223.7,671.2,223.7z M673.9,222.1l-0.9-1.4c-1.5,1.3-1.8,2-1.4,2.7c0.2,0.4,0.8,0.6,1.2,0.3
				c0.1,0,0.1-0.1,0.2-0.1C673.4,223.3,673.8,222.7,673.9,222.1z"/>
			<path d="M675.9,221.2l-3.7-5.4l0.4-0.3l3.7,5.5c0.1,0.2,0.3,0.2,0.3,0.1c0.1,0,0.1-0.1,0.1-0.1l0.3,0.3c-0.1,0.1-0.1,0.2-0.2,0.2
				C676.5,221.7,676.2,221.6,675.9,221.2z"/>
			<path d="M674.8,216.9l0.4-0.3l2.6,1.9c0.4,0.3,0.8,0.6,1.2,0.9l0,0c-0.1-0.4-0.2-0.9-0.4-1.4l-0.8-3.1l0.4-0.3l1.2,5l-0.4,0.3
				L674.8,216.9z"/>
			<path d="M680.7,217.3c-0.6-0.9-0.1-1.8,1.5-3.2c-0.4-0.6-1-1.2-1.8-0.6c-0.4,0.3-0.8,0.8-1,1.3l-0.4-0.1c0.2-0.6,0.6-1.1,1.1-1.5
				c0.9-0.6,1.7-0.2,2.3,0.7l1.7,2.5l-0.3,0.2l-0.4-0.5l0,0c-0.1,0.6-0.5,1.2-1,1.6c-0.5,0.5-1.3,0.4-1.8-0.1
				C680.8,217.4,680.7,217.3,680.7,217.3z M683.3,215.7l-0.9-1.4c-1.5,1.3-1.8,2-1.4,2.7c0.2,0.4,0.8,0.6,1.2,0.3
				c0.1,0,0.1-0.1,0.2-0.1C682.9,216.8,683.2,216.3,683.3,215.7z"/>
			<path d="M684,213.6c-0.8-1-0.7-2.4,0.2-3.2c0,0,0.1-0.1,0.1-0.1c0.5-0.3,1-0.4,1.5-0.3l-0.5-0.7l-1.1-1.6l0.4-0.2l4,5.9l-0.3,0.2
				L688,213l0,0c-0.1,0.6-0.4,1.1-0.9,1.5C686.1,215.2,684.9,214.9,684,213.6z M687.7,212.7l-1.6-2.4c-0.5-0.1-1.1,0-1.5,0.3
				c-0.8,0.7-0.9,1.9-0.2,2.7c0.7,1.1,1.7,1.4,2.5,0.9C687.4,213.8,687.6,213.3,687.7,212.7L687.7,212.7z"/>
			<path d="M688.5,210.5c-0.5-1.1-0.1-2.4,1-2.9c1.1-0.5,2.4-0.1,2.9,1c0.5,1,0.1,2.1-0.7,2.7c-1.1,0.7-2.5,0.3-3.1-0.7
				C688.6,210.6,688.5,210.6,688.5,210.5z M691.7,208.4c-0.7-0.7-1.8-0.6-2.5,0.1c-0.7,0.7-0.6,1.8,0.1,2.5c0.6,0.6,1.5,0.6,2.2,0.2
				C692.3,210.4,692.4,209.2,691.7,208.4C691.7,208.4,691.7,208.4,691.7,208.4z"/>
			<path d="M691.9,205.3l0.3-0.2l0.5,0.7l0,0c-0.1-0.6,0.1-1.2,0.6-1.6c0.1-0.1,0.3-0.2,0.5-0.2l0.1,0.4c-0.1,0-0.3,0.1-0.4,0.2
				c-0.4,0.2-0.6,0.8-0.4,1.8l1.9,2.7l-0.4,0.3L691.9,205.3z"/>
		</g>
	</g>
	<g>
		<g>
			<path d="M690.4,288.5c-0.8-1.9-0.2-3.6,1.5-4.2c0.6-0.3,1.4-0.3,2,0.1l-0.1,0.4c-0.5-0.3-1.1-0.3-1.7-0.1c-1.4,0.6-1.8,2-1.2,3.7
				s1.9,2.5,3.3,1.9c0.5-0.2,0.9-0.5,1.2-1l-0.8-1.9l-1.5,0.6l-0.1-0.4l1.9-0.7l1,2.4c-0.3,0.7-0.8,1.2-1.5,1.4
				C692.8,291.3,691.2,290.5,690.4,288.5z"/>
			<path d="M696.9,287.6l-1.1-2.9l0.4-0.2l1.1,2.8c0.4,1,0.9,1.3,1.6,1c0.5-0.2,0.8-0.6,1.1-1.5l-1.3-3.3l0.4-0.2l1.8,4.5l-0.3,0.1
				l-0.3-0.7l0,0c-0.1,0.6-0.6,1.2-1.2,1.5C698,289.2,697.4,288.8,696.9,287.6z"/>
			<path d="M701.8,286.3c-0.4-1,0.3-1.8,2.2-2.8c-0.3-0.7-0.7-1.4-1.6-1c-0.5,0.2-0.9,0.6-1.2,1.1l-0.3-0.2c0.3-0.5,0.8-1,1.4-1.2
				c1.1-0.4,1.7,0.2,2.1,1.2l1.1,2.9l-0.3,0.1l-0.3-0.6l0,0c-0.3,0.6-0.7,1-1.3,1.3c-0.6,0.3-1.4,0.1-1.7-0.5
				C701.8,286.4,701.8,286.3,701.8,286.3z M704.7,285.3l-0.6-1.5c-1.8,0.9-2.2,1.6-1.9,2.3c0.2,0.5,0.7,0.7,1.1,0.6
				c0.1,0,0.1,0,0.2-0.1C704,286.3,704.5,285.9,704.7,285.3z"/>
			<path d="M706.6,284.2l-1.1-2.9l-0.7,0.3l-0.1-0.3l0.7-0.3l-0.5-1.3l0.3-0.1l0.5,1.3l1.3-0.5l0.1,0.4l-1.3,0.5l1.2,2.9
				c0.2,0.6,0.5,0.9,1.1,0.6c0.2-0.1,0.4-0.2,0.5-0.4l0.2,0.3c-0.2,0.2-0.4,0.3-0.7,0.5C707.4,285.5,706.9,285,706.6,284.2z"/>
			<path d="M708.5,282.3c-0.6-1.1-0.2-2.5,0.9-3.1c0,0,0,0,0.1,0c1.1-0.4,2,0.1,2.5,1.4c0,0.1,0.1,0.2,0.1,0.3l-3.2,1.3
				c0.3,1,1.3,1.6,2.3,1.3c0,0,0.1,0,0.1,0c0.4-0.2,0.8-0.5,1-0.9l0.3,0.2c-0.3,0.5-0.7,0.8-1.2,1c-1.2,0.4-2.5-0.2-2.9-1.3
				C708.6,282.4,708.5,282.4,708.5,282.3z M711.7,280.7c-0.5-1.1-1.2-1.5-2-1.2c-0.9,0.4-1.2,1.4-0.8,2.3L711.7,280.7z"/>
			<path d="M712.5,278.1l0.3-0.1l0.3,0.7l0,0c0.2-0.6,0.6-1.1,1.1-1.4c0.6-0.3,1.2-0.1,1.6,0.4c0.2-0.6,0.6-1.2,1.2-1.5
				c0.9-0.4,1.5,0,2,1.2l1.1,2.9l-0.4,0.2l-1.1-2.8c-0.4-1-0.9-1.3-1.5-1c-0.5,0.3-0.9,0.8-1,1.4l1.3,3.4l-0.4,0.2l-1.1-2.8
				c-0.4-0.9-0.9-1.3-1.6-1c-0.5,0.3-0.9,0.8-1,1.4l1.3,3.4l-0.4,0.2L712.5,278.1z"/>
			<path d="M721.1,278.6c-0.4-1,0.3-1.8,2.2-2.8c-0.3-0.7-0.7-1.4-1.6-1c-0.5,0.2-0.9,0.6-1.2,1.1l-0.3-0.2c0.3-0.5,0.8-1,1.4-1.2
				c1-0.4,1.7,0.2,2.1,1.1l1.1,2.9l-0.3,0.1l-0.3-0.6l0,0c-0.3,0.6-0.7,1-1.3,1.3c-0.6,0.3-1.4,0.1-1.7-0.5
				C721.1,278.7,721.1,278.7,721.1,278.6z M724,277.6l-0.6-1.5c-1.7,0.9-2.2,1.6-1.9,2.3c0.2,0.5,0.7,0.7,1.1,0.6
				c0.1,0,0.1,0,0.2-0.1C723.3,278.6,723.8,278.2,724,277.6L724,277.6z"/>
			<path d="M726.2,277.2l-2.4-6.1l0.4-0.2l2.5,6.1c0.1,0.2,0.2,0.3,0.3,0.2l0.2-0.1l0.2,0.3c-0.1,0.1-0.2,0.1-0.3,0.2
				C726.6,277.8,726.3,277.6,726.2,277.2z"/>
			<path d="M727.8,275.9c-0.4-1,0.3-1.8,2.2-2.8c-0.3-0.7-0.7-1.4-1.6-1c-0.5,0.2-0.9,0.6-1.2,1.1l-0.3-0.2c0.3-0.5,0.8-1,1.4-1.2
				c1.1-0.4,1.7,0.2,2.1,1.2l1.1,2.9l-0.3,0.1l-0.3-0.6l0,0c-0.3,0.6-0.7,1-1.3,1.3c-0.6,0.3-1.4,0.1-1.7-0.5
				C727.9,276,727.8,276,727.8,275.9z M730.8,274.9l-0.6-1.5c-1.7,1-2.2,1.6-1.9,2.3c0.2,0.5,0.7,0.7,1.1,0.6c0.1,0,0.1,0,0.2-0.1
				C730.1,275.9,730.5,275.5,730.8,274.9z"/>
		</g>
	</g>
	<g>
		<g>
			<path d="M714.2,354.6l0.3-0.3c0.3,0.4,0.8,0.7,1.4,0.6c0.8-0.1,1.1-0.6,0.9-1.7l-0.8-4.7l0.5-0.1l0.8,4.7c0.2,1-0.1,2-1.3,2.1
				C715.3,355.4,714.6,355.1,714.2,354.6z"/>
			<path d="M718.9,353.5c-0.2-1,0.7-1.7,2.8-2.3c-0.1-0.7-0.4-1.5-1.4-1.3c-0.5,0.1-1,0.4-1.4,0.8l-0.3-0.3c0.5-0.5,1-0.8,1.7-0.9
				c1.1-0.2,1.6,0.6,1.8,1.6l0.5,3l-0.4,0.1l-0.2-0.6l0,0c-0.4,0.5-0.9,0.9-1.6,1c-0.7,0.2-1.4-0.2-1.6-0.9
				C718.9,353.6,718.9,353.5,718.9,353.5z M722,353.1l-0.3-1.6c-1.9,0.5-2.5,1.1-2.4,1.9c0.1,0.5,0.5,0.9,1,0.8c0.1,0,0.1,0,0.2,0
				C721.1,354,721.6,353.7,722,353.1L722,353.1z"/>
			<path d="M723.5,349.1l0.4-0.1l0.2,0.7l0,0c0.3-0.5,0.8-0.9,1.4-1.1c0.6-0.2,1.2,0.2,1.5,0.8c0.3-0.6,0.8-1,1.4-1.2
				c1-0.1,1.5,0.4,1.7,1.6l0.5,3l-0.4,0.1l-0.5-3c-0.2-1-0.6-1.4-1.3-1.3c-0.5,0.1-0.8,0.4-1.3,1.1l0.6,3.6l-0.4,0.1l-0.5-3
				c-0.2-1-0.6-1.4-1.3-1.3c-0.4,0.1-0.8,0.4-1.3,1.1l0.6,3.6l-0.4,0.1L723.5,349.1z"/>
			<path d="M731.7,351.4c-0.2-1.1,0.7-1.7,2.8-2.3c-0.1-0.7-0.4-1.5-1.4-1.3c-0.5,0.1-1,0.4-1.4,0.8l-0.3-0.3c0.5-0.5,1-0.8,1.7-0.9
				c1.1-0.2,1.6,0.6,1.8,1.6l0.5,3l-0.4,0.1l-0.2-0.6l0,0c-0.4,0.5-0.9,0.9-1.6,1c-0.7,0.2-1.4-0.2-1.6-0.8
				C731.8,351.5,731.7,351.4,731.7,351.4z M734.8,351l-0.3-1.6c-1.9,0.5-2.5,1.1-2.4,1.9c0.1,0.5,0.5,0.9,1,0.8c0.1,0,0.1,0,0.2,0
				C733.9,351.9,734.5,351.5,734.8,351L734.8,351z"/>
			<path d="M735.9,345.5c0-0.2,0.1-0.4,0.3-0.5c0,0,0,0,0,0c0.2,0,0.4,0.1,0.5,0.3c0,0,0,0,0,0c0,0.2-0.1,0.4-0.3,0.4c0,0,0,0,0,0
				C736.2,345.8,736,345.7,735.9,345.5z M736.3,347l0.4-0.1l0.8,4.7l-0.4,0.1L736.3,347z"/>
			<path d="M738.6,349c-0.3-1.2,0.4-2.5,1.6-2.8c0.1,0,0.1,0,0.2,0c0.5-0.1,1.1,0,1.5,0.4l-0.2,0.3c-0.3-0.3-0.8-0.4-1.2-0.3
				c-1,0.3-1.6,1.3-1.4,2.3c0,0,0,0,0,0.1c0.2,1.2,1,2,2,1.8c0.5-0.1,0.9-0.4,1.2-0.8l0.3,0.3c-0.3,0.5-0.8,0.8-1.4,0.9
				c-1.2,0.2-2.4-0.7-2.5-1.9C738.6,349.2,738.6,349.1,738.6,349z"/>
			<path d="M743.2,349.5c-0.2-1,0.7-1.7,2.8-2.3c-0.1-0.7-0.4-1.5-1.4-1.3c-0.5,0.1-1,0.4-1.4,0.8l-0.3-0.3c0.5-0.5,1-0.8,1.7-0.9
				c1.1-0.2,1.6,0.6,1.8,1.6l0.5,3l-0.4,0.1l-0.1-0.6l0,0c-0.4,0.5-0.9,0.9-1.6,1c-0.7,0.2-1.4-0.1-1.6-0.8
				C743.2,349.6,743.2,349.6,743.2,349.5z M746.3,349.1l-0.3-1.6c-1.9,0.5-2.5,1.1-2.4,1.9c0,0.5,0.5,0.9,1,0.8c0.1,0,0.1,0,0.2,0
				C745.4,350,745.9,349.7,746.3,349.1z"/>
		</g>
	</g>
	<g>
		<g>
			<path d="M713.7,416.8h0.5l2.5,4.8l0.7,1.4l0,0c0-0.6,0-1.3,0-1.9l0.2-4h0.4l-0.3,6.6h-0.5l-2.5-4.8l-0.7-1.4l0,0
				c0,0.6,0,1.2,0,1.9l-0.2,4.1h-0.4L713.7,416.8z"/>
			<path d="M719.9,418.9h0.4l-0.3,4.8h-0.4L719.9,418.9z M719.8,417.4c0-0.2,0.2-0.4,0.4-0.4c0,0,0,0,0,0c0.2,0,0.4,0.2,0.4,0.4
				c0,0,0,0,0,0.1c0,0.2-0.2,0.4-0.4,0.4C720,417.8,719.8,417.6,719.8,417.4L719.8,417.4z"/>
			<path d="M721.6,421.4c-0.1-1.3,0.9-2.3,2.1-2.4c0.1,0,0.2,0,0.2,0c0.5,0,1,0.3,1.4,0.7l-0.3,0.3c-0.3-0.3-0.7-0.5-1.1-0.6
				c-1-0.1-1.8,0.8-1.8,2s0.6,2.1,1.6,2.2c0.5,0,1-0.2,1.3-0.5l0.2,0.3c-0.4,0.4-1,0.6-1.6,0.5c-1.2-0.1-2.2-1.1-2.1-2.3
				C721.6,421.6,721.6,421.5,721.6,421.4z"/>
			<path d="M726,422.9c0.1-1.1,1-1.5,3.2-1.6c0-0.7-0.1-1.5-1-1.6c-0.6,0-1.1,0.2-1.5,0.5l-0.2-0.3c0.5-0.3,1.2-0.5,1.8-0.5
				c1.1,0.1,1.5,0.9,1.4,1.9l-0.2,3.1h-0.4v-0.6l0,0c-0.5,0.4-1.1,0.6-1.7,0.6c-0.7,0.1-1.3-0.5-1.4-1.1
				C726,423,726,422.9,726,422.9z M729.1,423.2l0.1-1.6c-2,0.1-2.7,0.5-2.7,1.3c-0.1,0.5,0.3,0.9,0.8,1c0.1,0,0.1,0,0.2,0
				C728.1,423.8,728.6,423.6,729.1,423.2z"/>
			<path d="M731.4,419.5h0.4v0.9l0,0c0.3-0.5,0.8-0.9,1.4-0.9c0.2,0,0.3,0,0.5,0.1l-0.1,0.4c-0.1-0.1-0.3-0.1-0.4-0.1
				c-0.4,0-1,0.3-1.4,1.2l-0.2,3.3h-0.4L731.4,419.5z"/>
			<path d="M733.9,423.3c0.1-1.1,1-1.5,3.2-1.6c0-0.7-0.1-1.5-1-1.6c-0.6,0-1.1,0.2-1.6,0.5l-0.2-0.3c0.5-0.4,1.2-0.5,1.8-0.5
				c1.1,0.1,1.5,0.9,1.4,1.9l-0.2,3.1H737V424l0,0c-0.5,0.4-1.1,0.6-1.7,0.6c-0.7,0.1-1.3-0.4-1.4-1.1
				C733.9,423.5,733.9,423.4,733.9,423.3z M736.9,423.6l0.1-1.6c-2,0.1-2.7,0.5-2.7,1.3c-0.1,0.5,0.3,0.9,0.8,1c0.1,0,0.2,0,0.2,0
				C735.9,424.3,736.5,424,736.9,423.6z"/>
			<path d="M738.6,425.7c0.1-0.5,0.4-0.9,0.8-1.1l0,0c-0.3-0.2-0.4-0.5-0.4-0.8c0-0.4,0.3-0.7,0.6-0.9l0,0c-0.4-0.4-0.6-0.8-0.5-1.4
				c0-0.9,0.8-1.6,1.7-1.6c0,0,0.1,0,0.1,0c0.2,0,0.4,0.1,0.6,0.2l1.6,0.1v0.4l-1.1-0.1c0.3,0.3,0.5,0.8,0.5,1.2
				c0,0.9-0.8,1.6-1.7,1.6c0,0-0.1,0-0.1,0c-0.3,0-0.5-0.1-0.8-0.3c-0.2,0.1-0.4,0.4-0.4,0.7c0,0.3,0.2,0.6,0.9,0.7h1
				c1.1,0.1,1.6,0.4,1.5,1.2s-1,1.6-2.3,1.5C739.3,427.1,738.5,426.5,738.6,425.7z M742.4,425.7c0-0.5-0.3-0.8-1.1-0.8l-1,0
				c-0.2,0-0.4-0.1-0.6-0.1c-0.4,0.2-0.6,0.6-0.7,1c0,0.6,0.5,1,1.5,1.1S742.3,426.3,742.4,425.7L742.4,425.7z M741.9,421.7
				c0.1-0.7-0.4-1.3-1.1-1.4c-0.7-0.1-1.3,0.4-1.4,1.1c0,0.1,0,0.1,0,0.2c-0.1,0.7,0.4,1.3,1.1,1.4c0.7,0.1,1.3-0.4,1.4-1.1
				C741.9,421.8,741.9,421.8,741.9,421.7z"/>
			<path d="M743.9,423.3l0.2-3.1h0.4l-0.2,3c0,1,0.2,1.5,1,1.6c0.6,0,1-0.3,1.6-0.9l0.2-3.5h0.5l-0.3,4.8H747v-0.8l0,0
				c-0.4,0.5-1,0.8-1.7,0.8C744.3,425.2,743.8,424.5,743.9,423.3z"/>
			<path d="M748.9,424.1c0-1.1,1-1.5,3.2-1.6c0-0.7-0.1-1.5-1-1.6c-0.6,0-1.1,0.2-1.6,0.5l-0.2-0.3c0.5-0.4,1.2-0.5,1.8-0.5
				c1.1,0.1,1.5,0.9,1.4,1.9l-0.2,3.1H752v-0.6l0,0c-0.5,0.4-1.1,0.6-1.8,0.6c-0.7,0-1.3-0.5-1.3-1.2
				C748.9,424.3,748.9,424.2,748.9,424.1z M752,424.4l0.1-1.6c-2,0.1-2.7,0.5-2.7,1.3c-0.1,0.5,0.3,0.9,0.8,1c0.1,0,0.1,0,0.2,0
				C751,425.1,751.6,424.8,752,424.4L752,424.4z"/>
		</g>
	</g>
	<g>
		<g>
			<path d="M708.1,484.7l1.6,0.4c1.4,0.4,2.2,1.1,1.8,2.4s-1.4,1.6-2.8,1.2l-1.2-0.3l-0.8,2.7l-0.4-0.1L708.1,484.7z M708.8,488.3
				c1.3,0.4,2,0.1,2.3-0.9s-0.3-1.6-1.6-1.9l-1-0.3l-0.8,2.9L708.8,488.3z"/>
			<path d="M711.1,491.1c0.3-1,1.3-1.3,3.5-0.9c0.2-0.7,0.2-1.5-0.7-1.8c-0.5-0.1-1.1-0.1-1.6,0.1l-0.1-0.4c0.6-0.2,1.3-0.3,1.9-0.1
				c1.1,0.3,1.3,1.2,1,2.2l-0.8,3l-0.4-0.1l0.1-0.6l0,0c-0.6,0.3-1.2,0.4-1.8,0.3c-0.7-0.1-1.2-0.7-1.1-1.4
				C711.1,491.3,711.1,491.2,711.1,491.1z M714.1,492.1l0.4-1.6c-2-0.3-2.7,0-2.9,0.7c-0.2,0.5,0.1,1,0.6,1.2c0.1,0,0.1,0,0.2,0
				C712.9,492.5,713.6,492.4,714.1,492.1L714.1,492.1z"/>
			<path d="M717.2,489l0.4,0.1l-0.2,0.7l0,0c0.5-0.4,1.2-0.5,1.8-0.4c1,0.3,1.2,1,0.9,2.2l-0.8,3l-0.4-0.1l0.8-2.9
				c0.3-1,0.1-1.5-0.7-1.7c-0.6-0.1-1.3,0.1-1.8,0.5l-1,3.5l-0.4-0.1L717.2,489z"/>
			<path d="M721,493.8c0.3-1,1.3-1.3,3.5-0.9c0.2-0.7,0.2-1.5-0.7-1.8c-0.5-0.1-1.1-0.1-1.6,0.1l-0.1-0.4c0.6-0.2,1.3-0.3,1.9-0.1
				c1.1,0.3,1.2,1.2,1,2.2l-0.8,3l-0.4-0.1l0.1-0.6l0,0c-0.6,0.3-1.2,0.4-1.8,0.3c-0.7-0.1-1.2-0.7-1.1-1.4
				C721,494,721,493.9,721,493.8z M723.9,494.8l0.4-1.6c-2-0.3-2.7,0-2.9,0.7c-0.2,0.5,0.1,1,0.6,1.1c0.1,0,0.1,0,0.2,0
				C722.8,495.3,723.4,495.1,723.9,494.8L723.9,494.8z"/>
			<path d="M727,491.8l0.4,0.1l-0.2,0.7l0,0c0.5-0.4,1.1-0.5,1.7-0.4c0.6,0.1,1,0.7,1,1.3c0.5-0.4,1.2-0.6,1.8-0.5
				c0.9,0.3,1.2,1,0.9,2.2l-0.8,3l-0.4-0.1l0.8-2.9c0.3-1,0.1-1.5-0.6-1.7c-0.6-0.1-1.2,0.1-1.6,0.5l-1,3.5l-0.4-0.1l0.8-2.9
				c0.3-1,0.1-1.5-0.6-1.7c-0.6-0.1-1.2,0.1-1.6,0.5l-1,3.5l-0.4-0.1L727,491.8z"/>
			<path d="M733.6,497.3c0.3-1,1.3-1.3,3.5-0.9c0.2-0.7,0.2-1.5-0.7-1.8c-0.5-0.1-1.1-0.1-1.6,0.1l-0.1-0.4c0.6-0.2,1.3-0.3,1.9-0.1
				c1.1,0.3,1.2,1.2,1,2.2l-0.8,3l-0.4-0.1l0.1-0.6l0,0c-0.6,0.3-1.2,0.4-1.8,0.3c-0.7-0.1-1.2-0.7-1.1-1.4
				C733.5,497.5,733.5,497.4,733.6,497.3z M736.5,498.3l0.4-1.6c-2-0.3-2.7,0-2.9,0.7c-0.2,0.5,0.1,1,0.5,1.1c0.1,0,0.1,0,0.2,0
				C735.3,498.8,736,498.6,736.5,498.3L736.5,498.3z M736.2,493.1l1.7-1.2l0.3,0.4l-1.8,1.1L736.2,493.1z"/>
		</g>
	</g>
	<g>
		<g>
			<path d="M690.5,552.2l1.5,0.8c1.3,0.7,1.9,1.5,1.3,2.7s-1.7,1.3-3,0.6l-1.1-0.6l-1.3,2.5l-0.4-0.2L690.5,552.2z M690.3,555.9
				c1.2,0.6,2,0.5,2.5-0.4s0.1-1.6-1.1-2.2l-1-0.5l-1.4,2.6L690.3,555.9z"/>
			<path d="M692.7,558.2c0.5-1.2,1.8-1.7,3-1.3c1,0.5,1.2,1.6,0.6,2.8c-0.1,0.1-0.1,0.2-0.2,0.3l-3-1.6c-0.6,0.9-0.4,2,0.5,2.6
				c0,0,0.1,0,0.1,0.1c0.4,0.2,0.9,0.3,1.3,0.2v0.4c-0.5,0.1-1.1,0-1.6-0.3c-1.1-0.6-1.5-2-0.9-3.1
				C692.6,558.3,692.7,558.2,692.7,558.2z M696,559.5c0.6-1.1,0.4-1.9-0.4-2.3c-0.9-0.4-1.9,0-2.3,0.8L696,559.5z"/>
			<path d="M698.5,558.5l0.3,0.2l-0.4,0.8l0,0c0.5-0.4,1.1-0.5,1.7-0.3c0.1,0.1,0.3,0.2,0.4,0.3l-0.3,0.3c-0.1-0.1-0.2-0.2-0.3-0.3
				c-0.4-0.2-1-0.2-1.7,0.5l-1.5,2.9l-0.4-0.2L698.5,558.5z"/>
			<path d="M699.8,562.7l1.4-2.7l0.4,0.2l-1.4,2.7c-0.5,0.9-0.4,1.5,0.3,1.8c0.6,0.2,1.3,0.2,1.8-0.1l1.7-3.1l0.4,0.2l-2.3,4.2
				l-0.3-0.2l0.3-0.7l0,0c-0.6,0.3-1.3,0.3-1.9,0C699.3,564.5,699.2,563.8,699.8,562.7z M702.9,559.5l1.9-0.8l0.2,0.4l-2,0.7
				L702.9,559.5z"/>
		</g>
	</g>
	<g>
		<g>
			<path d="M640.9,601.6l0.4,0.3l-1.6,3.7c-0.3,0.8-0.6,1.3-0.9,2.1l0,0c0.7-0.4,1.3-0.8,2-1.2l3.4-2.1l0.4,0.3l-5.9,3.6l-0.4-0.3
				L640.9,601.6z"/>
			<path d="M642.2,608.2c0.7-1,2.1-1.3,3.2-0.6c0,0,0,0,0,0c0.9,0.7,0.9,1.8,0,2.9c-0.1,0.1-0.2,0.2-0.3,0.3l-2.6-2.2
				c-0.8,0.7-0.8,1.9-0.1,2.6c0,0,0.1,0.1,0.1,0.1c0.4,0.3,0.8,0.5,1.3,0.5l-0.1,0.4c-0.5-0.1-1-0.3-1.5-0.6c-0.9-0.8-1-2.3-0.2-3.2
				C642.1,608.3,642.1,608.2,642.2,608.2z M645,610.2c0.8-0.9,0.8-1.8,0.1-2.3c-0.8-0.6-1.8-0.4-2.4,0.3L645,610.2z"/>
			<path d="M647.7,609.7l0.3,0.2l-0.5,0.6l0,0c0.6-0.1,1.3,0,1.8,0.4c0.8,0.6,0.7,1.4-0.1,2.3l-2,2.3l-0.3-0.3l2-2.3
				c0.7-0.8,0.7-1.3,0.1-1.8c-0.5-0.4-1.2-0.5-1.8-0.3l-2.3,2.8l-0.3-0.3L647.7,609.7z"/>
			<path d="M649.9,614.8c0.7-1,2.1-1.3,3.2-0.6c0,0,0,0,0.1,0c0.9,0.7,0.9,1.8,0,2.9c-0.1,0.1-0.2,0.2-0.3,0.3l-2.6-2.2
				c-0.8,0.7-0.8,1.9-0.1,2.7c0,0,0.1,0.1,0.1,0.1c0.4,0.3,0.8,0.5,1.3,0.5l-0.1,0.4c-0.5-0.1-1-0.3-1.5-0.6c-0.9-0.8-1-2.3-0.2-3.2
				C649.8,614.8,649.8,614.8,649.9,614.8z M652.8,616.8c0.8-0.9,0.8-1.8,0.1-2.3c-0.8-0.6-1.9-0.4-2.5,0.3L652.8,616.8z"/>
			<path d="M652,619.4l4.9-1.3l-1.9-1.6l0.3-0.3l2.4,2l-0.2,0.2l-4.9,1.3l2.2,1.9l-0.3,0.3l-2.7-2.3L652,619.4z"/>
			<path d="M656.4,621.2l2-2.3l0.3,0.3l-2,2.3c-0.7,0.8-0.7,1.4-0.1,1.9c0.5,0.4,1.2,0.5,1.8,0.3l2.3-2.7l0.3,0.3l-3.1,3.7l-0.3-0.2
				l0.5-0.6l0,0c-0.6,0.2-1.3,0-1.8-0.3C655.6,622.9,655.6,622.1,656.4,621.2z"/>
			<path d="M660.6,623.9c0.7-1,2.2-1.3,3.2-0.6c0,0,0,0,0,0c0.9,0.7,0.9,1.8,0,2.9c-0.1,0.1-0.2,0.2-0.3,0.3l-2.6-2.2
				c-0.8,0.7-0.8,1.9-0.1,2.6c0,0,0.1,0.1,0.1,0.1c0.4,0.3,0.8,0.5,1.3,0.5l-0.1,0.4c-0.5,0-1.1-0.3-1.5-0.6c-0.9-0.8-1-2.3-0.2-3.2
				C660.5,624,660.6,623.9,660.6,623.9z M663.5,625.9c0.8-0.9,0.8-1.8,0.1-2.3c-0.8-0.5-1.8-0.4-2.4,0.3L663.5,625.9z"/>
			<path d="M663.5,628.6l4.2-5l0.3,0.3l-4.3,5c-0.1,0.2-0.1,0.3,0,0.4c0,0,0.1,0.1,0.2,0.1l-0.2,0.3c-0.1,0-0.2-0.1-0.3-0.2
				C663.2,629.3,663.2,629,663.5,628.6z"/>
			<path d="M665.4,629.5c0.7-0.8,1.8-0.6,3.5,0.6c0.5-0.5,0.8-1.3,0.1-1.9c-0.4-0.3-1-0.5-1.5-0.6l0.1-0.4c0.6,0,1.3,0.3,1.8,0.7
				c0.9,0.7,0.6,1.6,0,2.4l-2,2.3l-0.3-0.3l0.4-0.5l0,0c-0.6,0-1.3-0.2-1.8-0.5c-0.6-0.4-0.8-1.2-0.4-1.7
				C665.3,629.6,665.3,629.5,665.4,629.5z M667.7,631.6l1.1-1.2c-1.7-1.1-2.5-1.2-3-0.6c-0.3,0.4-0.3,0.9,0,1.3c0,0,0.1,0.1,0.1,0.1
				C666.4,631.5,667,631.7,667.7,631.6z"/>
		</g>
	</g>
	<g>
		<g>
			<path d="M597.6,654.9l2.2,2.9l-0.3,0.2l-1.9-2.5l-2,1.5l1.6,2.1l-0.3,0.2l-1.6-2.1L593,659l2,2.6l-0.3,0.2l-2.2-3L597.6,654.9z"
				/>
			<path d="M596.4,662l2.5-1.9l-0.5-0.6l0.3-0.2l0.5,0.6l1.1-0.8l0.2,0.3l-1.1,0.8l0.8,1.1l-0.3,0.2l-0.8-1.1l-2.5,1.9
				c-0.5,0.4-0.7,0.7-0.3,1.3c0.1,0.2,0.3,0.3,0.5,0.4l-0.2,0.3c-0.2-0.1-0.4-0.3-0.6-0.5C595.5,663.1,595.8,662.6,596.4,662z"/>
			<path d="M601,662.3l0.3,0.3l-3.8,2.9l-0.3-0.4L601,662.3z M602.1,661.3c0.2-0.1,0.4-0.1,0.6,0.1s0.1,0.4-0.1,0.6
				s-0.4,0.1-0.6-0.1S602,661.4,602.1,661.3L602.1,661.3z"/>
			<path d="M600.3,665.3c1.1-0.6,2.4-0.2,3,0.9s0.2,2.4-0.9,3c-0.9,0.5-2.1,0.3-2.8-0.6c-0.7-1-0.5-2.4,0.6-3.2
				C600.2,665.3,600.2,665.3,600.3,665.3z M602.6,668.4c0.6-0.7,0.5-1.8-0.2-2.4c-0.7-0.6-1.8-0.5-2.4,0.2c-0.5,0.6-0.5,1.5,0,2.1
				C600.6,669.1,601.7,669.1,602.6,668.4C602.5,668.4,602.6,668.4,602.6,668.4z"/>
			<path d="M605.7,668.4l0.2,0.3l-0.5,0.4l0,0c0.6,0.1,1.2,0.4,1.6,0.9c0.8,1,0.4,2.1-0.8,3s-2.7,0.8-3.3-0.1
				c-0.3-0.4-0.4-1-0.4-1.5l-0.7,0.5l-1.4,1.1l-0.3-0.3L605.7,668.4z M605.9,672.6c0.9-0.7,1.4-1.6,0.7-2.5c-0.4-0.4-1-0.7-1.6-0.8
				l-2.3,1.7c-0.1,0.5,0.1,1.1,0.4,1.5C603.8,673.4,604.9,673.4,605.9,672.6L605.9,672.6z"/>
			<path d="M608.9,672.8l0.3,0.3l-3.8,2.9l-0.3-0.3L608.9,672.8z M609.7,671.8l2.1,0.1v0.4l-2.1-0.2V671.8z"/>
			<path d="M607.3,676.5c0.8-0.6,1.8-0.2,3.3,1.4c0.6-0.4,1.1-1.1,0.5-1.8c-0.4-0.4-0.8-0.7-1.4-0.9l0.1-0.4c0.6,0.2,1.2,0.5,1.6,1
				c0.7,0.9,0.3,1.7-0.6,2.3l-2.4,1.9l-0.2-0.3l0.5-0.4l0,0c-0.6-0.1-1.2-0.4-1.6-0.9c-0.5-0.5-0.5-1.3,0-1.8
				C607.1,676.6,607.2,676.5,607.3,676.5z M609,679l1.3-1c-1.4-1.4-2.2-1.7-2.8-1.2c-0.4,0.3-0.5,0.8-0.2,1.3c0,0,0.1,0.1,0.1,0.1
				C607.8,678.6,608.4,678.9,609,679z"/>
		</g>
	</g>
	<g>
		<g>
			<path d="M540.1,693.7l0.2,0.4l-3.3,1.5l0,0l4.7,1.3l0.2,0.5l-3.1-0.9l-2.7,3.9l-0.2-0.5l2.5-3.6l-2-0.6l-2.1,1l-0.2-0.4
				L540.1,693.7z"/>
			<path d="M538.4,700.1c1.1-0.7,2.5-0.3,3.1,0.8c0,0,0,0,0,0.1c0.5,1,0,2-1.3,2.6c-0.1,0.1-0.2,0.1-0.3,0.1l-1.5-3.1
				c-1,0.3-1.5,1.4-1.2,2.4c0,0,0,0.1,0,0.1c0.2,0.4,0.5,0.8,0.9,1l-0.2,0.3c-0.5-0.3-0.8-0.7-1.1-1.2c-0.5-1.1,0-2.5,1.2-3
				C538.3,700.1,538.3,700.1,538.4,700.1z M540.2,703.2c1.1-0.5,1.4-1.3,1.1-2.1c-0.5-0.8-1.5-1.1-2.3-0.7L540.2,703.2z"/>
			<path d="M542.8,703.8l0.2,0.3l-0.7,0.3l0,0c0.6,0.2,1.2,0.6,1.5,1.1c0.4,0.9,0.1,1.6-1.1,2.1l-2.8,1.3l-0.2-0.4l2.7-1.3
				c0.9-0.4,1.2-0.9,0.9-1.6c-0.2-0.5-0.7-0.8-1.5-1l-3.3,1.5l-0.2-0.4L542.8,703.8z"/>
			<path d="M545,708.7l0.2,0.4l-4.4,2l-0.2-0.4L545,708.7z M546.3,707.8c0.2-0.1,0.4,0,0.5,0.2c0,0,0,0,0,0c0.1,0.2,0,0.4-0.2,0.5
				c0,0,0,0,0,0c-0.2,0.1-0.4,0-0.5-0.2c0,0,0,0,0,0C546.1,708.2,546.1,708,546.3,707.8C546.3,707.9,546.4,707.9,546.3,707.8
				L546.3,707.8z"/>
			<path d="M542.6,711.9c1-0.5,1.8,0.2,2.9,2c0.7-0.3,1.3-0.8,0.9-1.7c-0.3-0.5-0.7-0.9-1.2-1.2l0.2-0.3c0.6,0.3,1,0.8,1.3,1.4
				c0.5,1-0.1,1.7-1,2.2l-2.8,1.3l-0.2-0.3l0.5-0.3l0,0c-0.6-0.2-1.1-0.7-1.4-1.2c-0.4-0.6-0.2-1.4,0.4-1.7
				C542.4,712,542.5,712,542.6,711.9z M543.7,714.8l1.5-0.7c-1-1.7-1.7-2.1-2.4-1.8c-0.5,0.2-0.7,0.7-0.5,1.2c0,0.1,0,0.1,0.1,0.2
				C542.6,714.2,543.1,714.6,543.7,714.8L543.7,714.8z"/>
		</g>
	</g>
	<g>
		<g>
			<path d="M470.7,700.2l0.1,0.6l-3.5,2.2l-1.3,0.8l0,0l1.5,0.2l4.1,0.5l0.1,0.6l-6.4,1.4l-0.1-0.4l4.2-0.9c0.5-0.1,1.2-0.2,1.8-0.3
				l0,0l-1.5-0.2l-4.1-0.5l-0.1-0.4l3.5-2.2l1.3-0.8l0,0c-0.5,0.2-1.2,0.3-1.7,0.4l-4.2,0.9l-0.1-0.4L470.7,700.2z"/>
			<path d="M468,707.5c1.2-0.1,2.2,0.8,2.3,2c0.1,1.2-0.8,2.2-2,2.3c-1.1,0.1-2-0.7-2.3-1.7c-0.2-1.2,0.6-2.4,1.8-2.6
				C467.9,707.6,467.9,707.5,468,707.5z M468.8,711.3c1.2-0.3,1.9-1.2,1.7-2.1c-0.3-1-1.4-1.5-2.4-1.2c0,0,0,0-0.1,0
				c-1.2,0.3-1.9,1.2-1.7,2.1c0.3,1,1.3,1.5,2.3,1.2C468.7,711.3,468.8,711.3,468.8,711.3z"/>
			<path d="M467,713l4.7,1.9l-0.5-2.5l0.4-0.1l0.7,3H472l-4.7-1.9l0.6,2.9l-0.4,0.1l-0.8-3.4L467,713z"/>
			<path d="M468.8,716.7c1-0.2,1.8,0.6,2.4,2.6c0.7-0.2,1.5-0.5,1.3-1.4c-0.1-0.5-0.5-1-0.9-1.4l0.3-0.3c0.5,0.4,0.8,1,1,1.6
				c0.2,1.1-0.5,1.7-1.5,1.9l-3,0.7l-0.1-0.4l0.6-0.2l0,0c-0.5-0.4-0.9-0.9-1.1-1.5c-0.2-0.7,0.1-1.4,0.8-1.6
				C468.7,716.8,468.7,716.7,468.8,716.7z M469.3,719.8l1.6-0.3c-0.6-1.9-1.2-2.4-2-2.3c-0.5,0.1-0.8,0.5-0.8,1c0,0.1,0,0.1,0,0.2
				C468.4,719,468.8,719.5,469.3,719.8L469.3,719.8z"/>
			<path d="M473.4,721.1l0.1,0.4l-0.7,0.2l0,0c0.6,0.3,1,0.7,1.2,1.3c0.2,0.6-0.1,1.2-0.7,1.5c0.6,0.3,1.1,0.8,1.3,1.4
				c0.2,0.9-0.3,1.5-1.5,1.8l-3,0.7l-0.1-0.4l3-0.7c1-0.2,1.4-0.7,1.2-1.4c-0.1-0.4-0.5-0.8-1.2-1.2l-3.5,0.8l-0.1-0.4l3-0.6
				c1-0.2,1.4-0.7,1.2-1.4c-0.1-0.4-0.5-0.8-1.2-1.2l-3.5,0.8l-0.1-0.4L473.4,721.1z"/>
			<path d="M471.1,730.4L471.1,730.4l-0.5,0.1l-0.1-0.4l7-1.5l0.1,0.4l-2,0.4l-0.9,0.2c0.5,0.3,0.9,0.9,1.1,1.5
				c0.3,1.3-0.5,2.1-2,2.4s-2.8-0.4-3-1.5C470.7,731.4,470.8,730.8,471.1,730.4z M473.7,733c1.1-0.3,1.9-0.9,1.7-1.9
				c-0.2-0.6-0.6-1-1.1-1.3l-2.8,0.6c-0.3,0.5-0.4,1-0.3,1.5C471.4,732.8,472.4,733.3,473.7,733L473.7,733z"/>
			<path d="M476.4,734.3l0.1,0.4l-4.7,1l-0.1-0.4L476.4,734.3z M477.8,733.8c0.2-0.1,0.4,0.1,0.5,0.3c0,0,0,0,0,0
				c0.1,0.2-0.1,0.4-0.2,0.5c0,0,0,0,0,0c-0.2,0.1-0.4-0.1-0.5-0.3c0,0,0,0,0,0C477.5,734.1,477.6,733.9,477.8,733.8
				C477.8,733.8,477.8,733.8,477.8,733.8z"/>
			<path d="M472.5,740.7l0.9-0.2c-0.5-0.3-0.9-0.8-1.1-1.4c-0.3-1.2,0.5-2.1,2-2.5c1.2-0.4,2.5,0.2,2.9,1.4c0,0,0,0.1,0,0.1
				c0.1,0.5,0,1.1-0.3,1.5l0,0h0.4l0.1,0.4l-6.8,1.5l-0.1-0.4L472.5,740.7z M473.9,740.4l2.8-0.6c0.3-0.4,0.4-1,0.3-1.5
				c-0.3-1-1.4-1.5-2.4-1.2c0,0,0,0,0,0c-1.3,0.3-2,1-1.7,2C472.9,739.7,473.3,740.2,473.9,740.4L473.9,740.4z"/>
			<path d="M475,742.5l3-0.7l0.1,0.4l-3,0.7c-1,0.2-1.4,0.6-1.2,1.4c0.1,0.6,0.5,0.9,1.3,1.3l3.5-0.8l0.1,0.4l-4.7,1l-0.1-0.4
				l0.8-0.2l0,0c-0.6-0.2-1.1-0.8-1.3-1.4C473.3,743.3,473.8,742.7,475,742.5z"/>
			<path d="M476.7,747.2c1.2-0.4,2.5,0.2,2.9,1.4c0,0,0,0,0,0.1c0.3,1.1-0.4,2-1.8,2.3c-0.1,0-0.2,0-0.4,0l-0.7-3.4
				c-1,0.1-1.8,1-1.7,2.1c0,0,0,0.1,0,0.1c0.1,0.5,0.3,0.9,0.7,1.2l-0.3,0.3c-0.4-0.4-0.7-0.8-0.8-1.4c-0.3-1.2,0.5-2.4,1.8-2.7
				C476.6,747.2,476.6,747.2,476.7,747.2z M477.7,750.5c1.2-0.3,1.7-0.9,1.5-1.8c-0.3-0.9-1.2-1.4-2.1-1.2L477.7,750.5z"/>
		</g>
	</g>
	<g>
		<g>
			<path d="M400.3,755.8v2.1h-0.4v-4.7h0.4v2.1h6.2v0.5H400.3z"/>
			<path d="M405.3,753.2c-1.1,0-1.6-1-1.8-3.1c-0.7,0-1.5,0.2-1.5,1.1c0,0.6,0.2,1.1,0.6,1.5l-0.3,0.2c-0.4-0.5-0.6-1.1-0.6-1.8
				c0-1.1,0.8-1.5,1.9-1.5h3.1v0.4h-0.6l0,0c0.4,0.5,0.7,1.1,0.7,1.7c0.1,0.7-0.3,1.3-1,1.5C405.5,753.2,405.4,753.2,405.3,753.2z
				 M405.5,750.1h-1.6c0.2,2,0.7,2.6,1.5,2.6c0.5,0.1,0.9-0.3,1-0.8c0-0.1,0-0.1,0-0.2C406.2,751.1,405.9,750.5,405.5,750.1
				L405.5,750.1z"/>
			<path d="M401.7,747.9v-0.4h0.7l0,0c-0.5-0.4-0.8-1-0.9-1.7c0-1,0.6-1.5,1.8-1.5h3.1v0.4h-3c-1,0-1.5,0.3-1.5,1.1
				c0,0.6,0.3,1,0.9,1.6h3.6v0.4L401.7,747.9z"/>
			<path d="M406.3,743.3l-4.2-2.8v2.5h-0.4v-3.1h0.2l4.2,2.8v-2.9h0.4v3.5L406.3,743.3z"/>
			<path d="M405.3,739.2c-1.1,0-1.6-1-1.8-3.1c-0.7,0-1.5,0.2-1.5,1.1c0,0.6,0.2,1.1,0.6,1.5l-0.3,0.2c-0.4-0.5-0.6-1.1-0.6-1.8
				c0-1.1,0.8-1.5,1.9-1.5h3.1v0.4l-0.6,0l0,0c0.4,0.5,0.7,1.1,0.7,1.7c0.1,0.7-0.4,1.3-1.1,1.4
				C405.5,739.2,405.4,739.2,405.3,739.2z M405.5,736.1h-1.6c0.2,2,0.7,2.6,1.5,2.6c0.5,0.1,0.9-0.3,1-0.8c0-0.1,0-0.1,0-0.2
				C406.2,737.1,405.9,736.5,405.5,736.1L405.5,736.1z"/>
			<path d="M401.7,733.9v-0.4h0.7l0,0c-0.5-0.4-0.8-1-0.9-1.7c0-1,0.6-1.5,1.8-1.5h3.1v0.5h-3c-1,0-1.5,0.3-1.5,1.1
				c0,0.6,0.3,1,0.9,1.6h3.6v0.4L401.7,733.9z"/>
			<path d="M400.1,728.8c-0.2,0-0.4-0.2-0.4-0.4c0-0.2,0.2-0.4,0.4-0.4c0.2,0,0.4,0.2,0.4,0.4C400.5,728.6,400.4,728.8,400.1,728.8z
				 M401.7,728.6v-0.4h4.8v0.4H401.7z"/>
			<path d="M405.3,726.7c-1.1,0-1.6-1-1.8-3.1c-0.7,0-1.5,0.2-1.5,1.1c0,0.6,0.2,1.1,0.6,1.5l-0.3,0.2c-0.4-0.5-0.6-1.1-0.6-1.8
				c0-1.1,0.8-1.5,1.9-1.5h3.1v0.4h-0.6l0,0c0.4,0.5,0.7,1.1,0.7,1.7c0.1,0.7-0.3,1.3-1,1.4C405.5,726.7,405.4,726.7,405.3,726.7z
				 M405.5,723.6h-1.6c0.2,2,0.7,2.6,1.5,2.6c0.5,0.1,0.9-0.3,1-0.8c0-0.1,0-0.1,0-0.2C406.2,724.6,405.9,724,405.5,723.6
				L405.5,723.6z"/>
		</g>
	</g>
	<g>
		<g>
			<path d="M330.5,746.8l-5-5l-0.7,3.4l-0.4-0.1l0.9-3.9l0.3,0.1l5,5l0.8-3.7l0.4,0.1l-1,4.3L330.5,746.8z"/>
			<path d="M330.8,741.4c-1-0.2-1.3-1.3-1.1-3.4c-0.7-0.2-1.5-0.2-1.7,0.8c-0.1,0.5,0,1.1,0.2,1.6l-0.4,0.1
				c-0.3-0.6-0.3-1.2-0.2-1.9c0.3-1.1,1.1-1.3,2.1-1.1l3,0.7l-0.1,0.4l-0.6-0.1l0,0c0.3,0.5,0.5,1.2,0.4,1.8
				c-0.1,0.7-0.7,1.2-1.4,1.1C330.9,741.5,330.8,741.4,330.8,741.4z M331.6,738.4l-1.6-0.3c-0.2,2,0.1,2.7,0.9,2.9
				c0.5,0.1,1-0.1,1.1-0.6c0-0.1,0-0.1,0-0.2C332.1,739.6,331.9,739,331.6,738.4L331.6,738.4z"/>
			<path d="M328.4,735.5l0.1-0.4l0.7,0.1l0,0c-0.4-0.5-0.6-1.1-0.5-1.7c0.1-0.6,0.6-1.1,1.2-1.1c-0.4-0.5-0.7-1.1-0.6-1.8
				c0.2-0.9,0.9-1.3,2.1-1l3,0.7l-0.1,0.4l-3-0.7c-1-0.2-1.5,0-1.7,0.7c0,0.6,0.2,1.2,0.6,1.6l3.5,0.8l-0.1,0.4l-3-0.7
				c-1-0.2-1.5,0-1.7,0.7c0,0.6,0.2,1.2,0.6,1.6l3.5,0.8l-0.1,0.4L328.4,735.5z"/>
			<path d="M334.4,728.1L334.4,728.1l0.5,0.2l-0.1,0.4l-7-1.5l0.1-0.4l2,0.5l0.9,0.2c-0.3-0.5-0.5-1.2-0.4-1.8
				c0.3-1.3,1.4-1.7,2.8-1.3c1.6,0.3,2.3,1.5,2.1,2.6C335.2,727.3,334.9,727.8,334.4,728.1z M333.2,724.7c-1.1-0.3-2.1,0-2.3,1
				c-0.1,0.6,0.1,1.2,0.4,1.7l2.7,0.6c0.4-0.3,0.8-0.7,0.9-1.3C335.1,725.8,334.4,724.9,333.2,724.7z"/>
			<path d="M329.7,722.1c-0.2,0-0.3-0.2-0.3-0.4c0,0,0,0,0,0c0-0.2,0.2-0.3,0.4-0.3c0,0,0,0,0,0c0.2,0,0.3,0.3,0.3,0.5c0,0,0,0,0,0
				C330.2,722,330,722.2,329.7,722.1C329.7,722.1,329.7,722.1,329.7,722.1z M331.3,722.3l0.1-0.4l4.7,1l-0.1,0.4L331.3,722.3z"/>
			<path d="M335.2,721.2c-1-0.2-1.3-1.3-1.1-3.4c-0.7-0.2-1.5-0.1-1.7,0.8c-0.1,0.5,0,1.1,0.2,1.6l-0.4,0.1
				c-0.3-0.6-0.3-1.2-0.2-1.9c0.3-1.1,1.1-1.3,2.1-1.1l3,0.7l-0.1,0.4l-0.6-0.1l0,0c0.3,0.6,0.5,1.2,0.4,1.8
				c-0.1,0.7-0.7,1.2-1.4,1.1C335.4,721.2,335.3,721.2,335.2,721.2z M336.1,718.2l-1.6-0.3c-0.2,2,0.1,2.7,0.9,2.9
				c0.5,0.1,1-0.1,1.1-0.6c0-0.1,0-0.1,0-0.2C336.5,719.3,336.4,718.7,336.1,718.2L336.1,718.2z"/>
		</g>
	</g>
	<g>
		<g>
			<path d="M255.1,714.9l0.2-0.4l6,2.8l-0.2,0.4L255.1,714.9z"/>
			<path d="M257.7,713.5l0.1-0.3l0.7,0.3l0,0c-0.3-0.6-0.3-1.3-0.1-1.9c0.4-0.9,1.1-1.1,2.3-0.5l2.8,1.3l-0.2,0.4l-2.7-1.3
				c-0.9-0.4-1.5-0.3-1.8,0.4c-0.2,0.6-0.2,1.3,0.2,1.8l3.3,1.5l-0.2,0.4L257.7,713.5z"/>
			<path d="M262,710c-1.2-0.4-1.8-1.7-1.4-2.9c0,0,0-0.1,0-0.1c0.2-0.5,0.6-0.9,1.1-1.1l-0.8-0.3l-1.8-0.8l0.2-0.4l6.5,3l-0.2,0.3
				l-0.6-0.2l0,0c0.2,0.6,0.2,1.2,0,1.7C264.6,710.4,263.5,710.7,262,710z M264.7,707.3l-2.6-1.2c-0.5,0.2-0.9,0.5-1.1,1
				c-0.3,1,0.2,2.1,1.2,2.4c0,0,0,0,0,0c1.2,0.5,2.2,0.4,2.6-0.5C265,708.5,264.9,707.9,264.7,707.3L264.7,707.3z"/>
			<path d="M260.8,703.2c-0.2-0.1-0.3-0.3-0.2-0.5c0,0,0,0,0,0c0.1-0.2,0.3-0.3,0.5-0.2c0,0,0,0,0,0c0.2,0.1,0.3,0.3,0.2,0.5
				c0,0,0,0,0,0C261.2,703.2,261,703.3,260.8,703.2C260.8,703.2,260.8,703.2,260.8,703.2z M262.3,703.7l0.2-0.4l4.4,2l-0.2,0.4
				L262.3,703.7z"/>
			<path d="M266.4,703.5c-1-0.5-1-1.5-0.4-3.6c-0.7-0.3-1.5-0.5-1.9,0.4c-0.2,0.5-0.3,1.1-0.1,1.6h-0.4c-0.1-0.6-0.1-1.3,0.2-1.9
				c0.5-1,1.4-1,2.3-0.6l2.8,1.3l-0.1,0.3l-0.6-0.2l0,0c0.2,0.6,0.2,1.3,0,1.8c-0.2,0.7-0.9,1.1-1.5,0.9
				C266.5,703.6,266.4,703.5,266.4,703.5z M267.8,700.7l-1.5-0.7c-0.6,1.9-0.5,2.7,0.2,3c0.5,0.2,1,0.1,1.2-0.4c0,0,0-0.1,0.1-0.1
				C268,701.9,268,701.3,267.8,700.7z"/>
		</g>
	</g>
	<g>
		<g>
			<path d="M184.4,685.2l0.3-0.4l5.2,4l-0.3,0.4L184.4,685.2z"/>
			<path d="M187.2,684.4l0.2-0.3l0.6,0.4l0,0c-0.2-0.6,0-1.3,0.3-1.8c0.6-0.8,1.4-0.8,2.3,0l2.4,1.9l-0.3,0.4l-2.4-1.9
				c-0.8-0.6-1.4-0.7-1.9,0c-0.3,0.5-0.4,1.2-0.2,1.8l2.9,2.2l-0.3,0.3L187.2,684.4z"/>
			<path d="M192.1,681.9c-1.1-0.6-1.4-2-0.8-3.1c0,0,0-0.1,0.1-0.1c0.3-0.4,0.8-0.7,1.3-0.8l-0.7-0.5l-1.6-1.2l0.3-0.3l5.7,4.3
				l-0.2,0.3l-0.5-0.3l0,0c0.1,0.6,0,1.2-0.4,1.7C194.6,682.8,193.4,682.9,192.1,681.9z M195.3,679.9l-2.3-1.7
				c-0.5,0.1-1,0.3-1.3,0.7c-0.5,0.9-0.2,2.1,0.7,2.6c0,0,0,0,0,0c1,0.8,2,0.8,2.6,0C195.3,681.1,195.4,680.5,195.3,679.9
				L195.3,679.9z"/>
			<path d="M195.4,677.6c-0.8-0.9-0.8-2.2,0-3.1c0.9-0.8,2.2-0.8,3.1,0c0.8,0.8,0.8,2,0.2,2.8c-0.8,1-2.2,1.1-3.2,0.3
				C195.5,677.7,195.4,677.6,195.4,677.6z M197.7,674.5c-0.6-0.7-1.7-0.8-2.5-0.2s-0.8,1.7-0.2,2.5c0.2,0.2,0.4,0.4,0.6,0.5
				c0.6,0.7,1.7,0.8,2.5,0.2s0.8-1.7,0.2-2.5C198.2,674.8,198,674.6,197.7,674.5z"/>
			<path d="M197,671.6l0.2-0.3l0.6,0.4l0,0c-0.2-0.6,0-1.3,0.3-1.8c0.6-0.8,1.4-0.8,2.3,0l2.4,1.9l-0.3,0.3l-2.4-1.8
				c-0.8-0.6-1.4-0.7-1.9,0c-0.3,0.5-0.4,1.2-0.2,1.8l2.9,2.2l-0.3,0.3L197,671.6z"/>
			<path d="M201.9,669.1c-1.1-0.6-1.4-2-0.8-3.1c0,0,0,0,0-0.1c0.7-0.9,1.8-1,2.9-0.1c0.1,0.1,0.2,0.1,0.3,0.2l-2.1,2.7
				c0.8,0.7,1.9,0.7,2.7-0.1c0,0,0.1-0.1,0.1-0.1c0.3-0.4,0.4-0.8,0.4-1.3l0.4,0.1c0,0.5-0.2,1.1-0.5,1.5c-0.8,1-2.2,1.1-3.2,0.4
				C201.9,669.2,201.9,669.2,201.9,669.1z M203.7,666.1c-1-0.8-1.8-0.7-2.3,0c-0.5,0.8-0.3,1.9,0.5,2.4L203.7,666.1z"/>
			<path d="M206.1,666.5l-0.1-0.4c0.6-0.1,1.1-0.4,1.4-0.8c0.4-0.4,0.4-1,0-1.4c0,0,0,0-0.1-0.1c-0.5-0.4-1.1,0-1.6,0.3
				c-0.6,0.4-1.4,0.9-2,0.4c-0.6-0.5-0.6-1.3-0.2-1.9c0,0,0-0.1,0.1-0.1c0.3-0.4,0.7-0.7,1.2-0.8l0.1,0.4c-0.4,0.1-0.7,0.3-1,0.7
				c-0.4,0.3-0.4,0.9-0.1,1.3c0,0,0,0.1,0.1,0.1c0.4,0.3,1,0,1.5-0.3c0.7-0.4,1.4-0.9,2.1-0.4c0.6,0.5,0.7,1.4,0.2,2
				c0,0,0,0.1-0.1,0.1C207.3,666.1,206.8,666.4,206.1,666.5z"/>
			<path d="M204.2,659.5c-0.2-0.1-0.2-0.4-0.1-0.5c0,0,0,0,0,0c0.1-0.2,0.4-0.2,0.5-0.1c0,0,0,0,0,0c0.2,0.1,0.2,0.4,0.1,0.6
				C204.6,659.6,204.4,659.6,204.2,659.5L204.2,659.5z M205.6,660.3l0.3-0.3l3.8,2.9l-0.3,0.3L205.6,660.3z"/>
			<path d="M209.6,660.9c-0.9-0.7-0.7-1.7,0.4-3.6c-0.6-0.5-1.3-0.8-1.9,0c-0.3,0.5-0.5,1-0.5,1.6h-0.4c0-0.6,0.2-1.3,0.6-1.8
				c0.7-0.9,1.6-0.7,2.4-0.1l2.4,1.8l-0.2,0.3l-0.5-0.3l0,0c0.1,0.6-0.1,1.3-0.4,1.8c-0.4,0.6-1.1,0.8-1.7,0.4
				C209.7,661,209.7,661,209.6,660.9z M211.6,658.5l-1.3-1c-1,1.7-1.1,2.5-0.4,3c0.4,0.3,0.9,0.3,1.3-0.1c0,0,0.1-0.1,0.1-0.2
				C211.6,659.8,211.7,659.1,211.6,658.5z"/>
		</g>
	</g>
	<g>
		<g>
			<path d="M137.5,629.3l-4.1-1.7l0.4-0.3l2.1,0.9c0.5,0.2,0.9,0.4,1.5,0.6l0,0c-0.1-0.5-0.2-1-0.4-1.5l-0.6-2.2l0.4-0.3l1,4.3
				l1.7,2l-0.4,0.3L137.5,629.3z"/>
			<path d="M139.7,627.8c-0.9-0.9-0.9-2.3,0-3.2c0,0,0,0,0,0c0.9-0.7,1.9-0.6,2.8,0.5c0.1,0.1,0.1,0.2,0.2,0.3l-2.6,2.2
				c0.6,0.9,1.8,1.1,2.6,0.5c0,0,0.1-0.1,0.1-0.1c0.4-0.3,0.6-0.7,0.7-1.2l0.4,0.1c-0.1,0.5-0.4,1-0.8,1.3c-1,0.8-2.4,0.7-3.2-0.3
				C139.8,628,139.8,627.9,139.7,627.8z M142.2,625.3c-0.8-0.9-1.6-1-2.3-0.5c-0.7,0.7-0.7,1.8-0.1,2.5L142.2,625.3z"/>
			<path d="M142.1,622.6l0.3-0.3l0.5,0.5l0,0c0-0.6,0.2-1.2,0.6-1.6c0.4-0.4,1.1-0.5,1.6-0.1c-0.1-0.7,0.2-1.3,0.6-1.8
				c0.7-0.6,1.5-0.5,2.3,0.5l2,2.3l-0.3,0.3l-2-2.3c-0.6-0.8-1.2-0.9-1.8-0.5c-0.4,0.4-0.6,1-0.5,1.6l2.3,2.8l-0.3,0.3l-2-2.3
				c-0.7-0.8-1.2-0.9-1.8-0.5c-0.4,0.4-0.6,1-0.5,1.6l2.3,2.8l-0.3,0.3L142.1,622.6z"/>
			<path d="M149.6,619.4c-0.9-0.9-0.9-2.3,0-3.3c0,0,0,0,0,0c0.9-0.7,1.9-0.6,2.8,0.5c0.1,0.1,0.1,0.2,0.2,0.3l-2.6,2.2
				c0.6,0.9,1.7,1.1,2.6,0.5c0,0,0.1-0.1,0.1-0.1c0.4-0.3,0.6-0.7,0.7-1.2l0.4,0.1c-0.1,0.5-0.4,1-0.8,1.3c-1,0.8-2.4,0.7-3.2-0.3
				C149.7,619.6,149.6,619.5,149.6,619.4z M152.1,616.9c-0.8-0.9-1.6-1-2.3-0.5c-0.7,0.7-0.7,1.8-0.1,2.5L152.1,616.9z"/>
			<path d="M152,614.2l0.3-0.2l0.5,0.5l0,0c0-0.6,0.2-1.3,0.7-1.7c0.8-0.6,1.5-0.5,2.3,0.5l2,2.3l-0.3,0.3l-2-2.3
				c-0.7-0.8-1.2-0.9-1.8-0.4c-0.4,0.5-0.7,1.1-0.6,1.7l2.3,2.8l-0.3,0.3L152,614.2z"/>
		</g>
	</g>
	<g>
		<g>
			<path d="M94.2,563l1.6-0.8c1.2-0.6,2.2-0.6,2.7,0.4c0.3,0.6,0.2,1.3-0.2,1.8l0,0c0.8-0.3,1.6,0,2,0.7c0.6,1.1,0.1,2.2-1.3,2.8
				l-1.7,0.9L94.2,563z M96.9,564.8c1.2-0.6,1.4-1.3,1.1-2s-1.2-0.8-2.2-0.3l-1.1,0.6l1.2,2.2L96.9,564.8z M98.6,567.6
				c1.2-0.6,1.7-1.4,1.2-2.3s-1.3-0.9-2.5-0.2l-1.2,0.6l1.4,2.6L98.6,567.6z"/>
			<path d="M100.1,561.9l0.3-0.2l0.5,0.8l0,0c-0.1-0.6,0.2-1.2,0.7-1.5c0.1-0.1,0.3-0.1,0.5-0.1l0.1,0.4c-0.1,0-0.3,0.1-0.4,0.1
				c-0.4,0.2-0.7,0.7-0.6,1.7l1.5,2.9l-0.4,0.2L100.1,561.9z"/>
			<path d="M104.1,563.9c-0.5-0.9,0.1-1.8,1.9-3c-0.3-0.7-0.9-1.3-1.7-0.8c-0.5,0.3-0.9,0.7-1.1,1.2l-0.3-0.2
				c0.3-0.6,0.7-1.1,1.3-1.4c1-0.5,1.7,0,2.2,0.9l1.4,2.7l-0.3,0.2l-0.3-0.5l0,0c-0.2,0.6-0.6,1.1-1.2,1.5c-0.6,0.4-1.3,0.2-1.7-0.3
				C104.1,564,104.1,564,104.1,563.9z M106.9,562.6l-0.8-1.4c-1.6,1.1-2,1.8-1.7,2.5c0.2,0.5,0.7,0.7,1.2,0.5c0.1,0,0.1-0.1,0.2-0.1
				C106.3,563.7,106.7,563.2,106.9,562.6z"/>
			<path d="M108.5,562.3l0.1-0.4c0.5,0.2,1.1,0.1,1.6-0.2c0.5-0.2,0.8-0.7,0.6-1.3c0,0,0-0.1,0-0.1c-0.3-0.5-1-0.5-1.5-0.4
				c-0.8,0.1-1.6,0.2-2-0.5c-0.3-0.7,0-1.5,0.7-1.8c0,0,0.1,0,0.1,0c0.4-0.2,1-0.3,1.4-0.2l-0.1,0.4c-0.4-0.1-0.8,0-1.2,0.2
				c-0.7,0.3-0.8,0.9-0.6,1.3s0.8,0.4,1.5,0.3c0.8-0.1,1.6-0.3,2.1,0.6c0.3,0.7,0,1.6-0.7,1.9c0,0-0.1,0-0.1,0
				C109.8,562.3,109.1,562.4,108.5,562.3z"/>
			<path d="M109.7,555.1c-0.1-0.2,0-0.4,0.1-0.5c0,0,0,0,0,0c0.2-0.1,0.4-0.1,0.5,0.1c0,0,0,0,0,0c0.1,0.2,0,0.4-0.2,0.5
				c0,0,0,0,0,0C110.1,555.3,109.8,555.3,109.7,555.1z M110.6,556.3l0.4-0.2l2.3,4.2l-0.4,0.2L110.6,556.3z"/>
			<path d="M114.6,559l-3.1-5.8l0.4-0.2l3.1,5.8c0.1,0.2,0.2,0.2,0.3,0.2c0.1,0,0.1-0.1,0.2-0.1l0.2,0.3c-0.1,0.1-0.2,0.1-0.3,0.2
				C115.1,559.5,114.8,559.4,114.6,559z"/>
		</g>
	</g>
	<g>
		<g>
			<path d="M65.3,493.4l0.4-0.1l4,5.7l-0.5,0.1l-2.3-3.4c-0.5-0.7-0.9-1.3-1.3-2l0,0c0,0.8,0,1.6-0.1,2.4l-0.3,4.1l-0.4,0.1
				L65.3,493.4z M65.1,497.6l2.8-0.8l0.1,0.4l-2.8,0.8L65.1,497.6z"/>
			<path d="M69.4,494.1l0.4-0.1l0.2,0.7l0,0c0.3-0.6,0.8-1.1,1.4-1.3c1-0.3,1.6,0.2,1.9,1.4l0.8,3l-0.4,0.1l-0.8-3
				c-0.3-1-0.7-1.4-1.4-1.1c-0.6,0.1-0.9,0.5-1.3,1.3l1,3.5l-0.4,0.1L69.4,494.1z"/>
			<path d="M75.7,498.4c-0.1-0.5,0.1-1,0.4-1.3l0,0c-0.3-0.1-0.5-0.3-0.6-0.6c-0.1-0.4,0-0.7,0.3-1l0,0c-0.5-0.2-0.8-0.6-0.9-1.1
				c-0.3-0.9,0.2-1.8,1-2.1c0.1,0,0.1,0,0.2,0c0.2-0.1,0.4-0.1,0.7-0.1l1.6-0.4l0.1,0.4l-1.1,0.3c0.4,0.2,0.7,0.6,0.8,1
				c0.3,0.9-0.2,1.8-1.1,2.1c0,0,0,0-0.1,0c-0.3,0.1-0.6,0.1-0.8,0c-0.2,0.2-0.3,0.5-0.2,0.8c0.1,0.3,0.4,0.5,1,0.4l1-0.3
				c1-0.3,1.6-0.1,1.8,0.6s-0.4,1.8-1.8,2.2C76.8,499.5,75.9,499.2,75.7,498.4z M77.6,493.5c-0.1-0.7-0.8-1.1-1.5-1c0,0,0,0-0.1,0
				c-0.7,0.2-1,0.8-0.9,1.5c0,0,0,0.1,0,0.1c0.2,0.7,0.8,1.1,1.5,0.9C77.4,494.9,77.8,494.2,77.6,493.5
				C77.6,493.5,77.6,493.5,77.6,493.5L77.6,493.5z M79.3,497.1c-0.2-0.5-0.6-0.6-1.3-0.4l-1,0.3c-0.2,0-0.4,0.1-0.6,0.1
				c-0.3,0.3-0.4,0.7-0.3,1.1c0.2,0.6,0.8,0.8,1.8,0.6S79.5,497.7,79.3,497.1z"/>
			<path d="M79.4,493.9c-0.1-1.2,0.7-2.3,1.9-2.4c1.2-0.1,2.3,0.7,2.4,1.9c0.1,1.1-0.5,2.1-1.6,2.4c-1.2,0.3-2.4-0.5-2.7-1.7
				C79.4,494,79.4,493.9,79.4,493.9z M83.1,492.9c-0.3-1.2-1.3-1.9-2.2-1.6c-1,0.4-1.5,1.5-1.1,2.4c0,0,0,0.1,0,0.1
				c0.3,1.2,1.3,1.9,2.2,1.6c1-0.4,1.5-1.4,1.1-2.4C83.1,492.9,83.1,492.9,83.1,492.9L83.1,492.9z"/>
			<path d="M85.4,494l-1.8-6.3l0.4-0.1l1.8,6.4c0.1,0.2,0.2,0.3,0.3,0.2l0.2-0.1l0.2,0.3c-0.1,0.1-0.2,0.1-0.3,0.1
				C85.8,494.7,85.5,494.5,85.4,494z"/>
			<path d="M87.2,493c-0.3-1,0.5-1.8,2.5-2.6c-0.2-0.7-0.6-1.4-1.5-1.2c-0.5,0.2-1,0.5-1.3,1l-0.3-0.3c0.4-0.5,0.9-0.9,1.6-1.1
				c1.1-0.3,1.7,0.4,2,1.4l0.8,3l-0.4,0.1l-0.2-0.6l0,0c-0.3,0.5-0.8,1-1.4,1.2c-0.6,0.3-1.4,0-1.7-0.7
				C87.2,493.2,87.2,493.1,87.2,493z M90.2,492.3l-0.4-1.6c-1.8,0.8-2.4,1.4-2.2,2.1c0.1,0.5,0.6,0.8,1.1,0.7c0.1,0,0.1,0,0.2,0
				C89.4,493.3,89.9,492.8,90.2,492.3L90.2,492.3z"/>
		</g>
	</g>
	<g>
		<g>
			<path d="M47.3,422.5c-0.1-2.1,1-3.5,2.6-3.5c0.7,0,1.3,0.2,1.8,0.7l-0.3,0.3c-0.4-0.4-0.9-0.6-1.5-0.6c-1.4,0.1-2.3,1.3-2.2,3.1
				s1,3,2.5,2.9c0.6,0,1.2-0.4,1.6-0.9l0.3,0.3c-0.4,0.6-1.1,1-1.9,1C48.6,425.8,47.4,424.5,47.3,422.5z"/>
			<path d="M53,424.3c0-1.1,0.9-1.6,3-2c0-0.7-0.3-1.5-1.2-1.5c-0.6,0-1.1,0.3-1.5,0.6l-0.2-0.3c0.5-0.4,1.1-0.7,1.8-0.7
				c1.1-0.1,1.6,0.7,1.6,1.8l0.2,3.1h-0.4l-0.1-0.6l0,0c-0.4,0.5-1,0.8-1.7,0.8c-0.7,0.1-1.3-0.3-1.5-1C53,424.4,53,424.3,53,424.3z
				 M56.1,424.3l-0.1-1.6c-2,0.3-2.6,0.8-2.6,1.6c0,0.5,0.4,0.9,0.9,0.9c0.1,0,0.1,0,0.2,0C55.1,425,55.7,424.7,56.1,424.3
				L56.1,424.3z"/>
			<path d="M58.1,420.4h0.4l0.1,0.7l0,0c0.3-0.5,0.9-0.8,1.5-0.9c0.6-0.1,1.2,0.3,1.4,0.9c0.4-0.6,1-1,1.6-1.1c1,0,1.5,0.5,1.5,1.8
				l0.2,3.1h-0.4l-0.2-3c0-1-0.4-1.5-1.2-1.4c-0.5,0-0.9,0.4-1.4,1l0.2,3.6h-0.5l-0.2-3c0-1-0.4-1.5-1.2-1.4c-0.4,0-0.9,0.4-1.4,1
				l0.2,3.6h-0.5L58.1,420.4z"/>
			<path d="M65.9,422.4c-0.2-1.2,0.6-2.4,1.9-2.6c0,0,0.1,0,0.1,0c1.1-0.1,1.9,0.7,2,2.1c0,0.1,0,0.2,0,0.4l-3.4,0.2
				c-0.1,1,0.7,1.9,1.8,2c0.1,0,0.1,0,0.2,0c0.5,0,0.9-0.2,1.3-0.5l0.2,0.3c-0.4,0.3-0.9,0.5-1.5,0.6c-1.2,0.1-2.3-0.8-2.4-2.1
				C65.9,422.6,65.9,422.5,65.9,422.4z M69.4,421.9c-0.1-1.2-0.7-1.8-1.5-1.8c-0.9,0.1-1.6,1-1.6,1.9L69.4,421.9z"/>
			<path d="M71,419.7h0.4l0.1,0.9l0,0c0.2-0.6,0.7-1,1.3-1.1c0.2,0,0.3,0,0.5,0.1l-0.1,0.4c-0.1,0-0.3-0.1-0.4,0
				c-0.4,0-0.9,0.4-1.2,1.3l0.2,3.3h-0.4L71,419.7z"/>
			<path d="M74.3,422.6l-0.2-3.1h0.4l0.2,3c0,1,0.4,1.5,1.2,1.4c0.6,0,1-0.4,1.5-1.1l-0.2-3.5h0.4l0.3,4.8h-0.4l-0.1-0.8l0,0
				c-0.3,0.6-0.9,0.9-1.6,1C74.8,424.4,74.3,423.8,74.3,422.6z M75.3,418.3l1.3-1.6l0.3,0.3l-1.3,1.6L75.3,418.3z"/>
			<path d="M79.4,419.2h0.4l0.1,0.7l0,0c0.4-0.5,1-0.9,1.6-1c1,0,1.5,0.5,1.6,1.8l0.2,3.1h-0.4l-0.2-3c-0.1-1-0.4-1.5-1.2-1.4
				c-0.6,0-1,0.4-1.5,1l0.2,3.6h-0.4L79.4,419.2z"/>
		</g>
	</g>
	<g>
		<g>
			<path d="M37.3,343.3c0.3-2.1,1.7-3.2,3.3-2.9c0.6,0.1,1.2,0.5,1.6,1l-0.3,0.3c-0.3-0.5-0.8-0.8-1.3-0.9c-1.4-0.2-2.5,0.8-2.8,2.6
				s0.4,3.1,1.8,3.4c0.6,0.1,1.3-0.1,1.8-0.5l0.2,0.3c-0.6,0.5-1.3,0.7-2.1,0.6C37.8,346.9,36.9,345.4,37.3,343.3z"/>
			<path d="M42.7,345.1c0.4-1.1,1.6-1.7,2.8-1.4s1.7,1.6,1.4,2.8c-0.3,1-1.4,1.6-2.4,1.4c-1.2-0.3-2-1.5-1.8-2.7
				C42.6,345.3,42.7,345.2,42.7,345.1z M46.5,345.8c0.2-1.3-0.4-2.2-1.3-2.4s-1.8,0.6-2,1.8c-0.3,1,0.2,2,1.2,2.3c0,0,0.1,0,0.1,0
				C45.4,347.7,46.3,347,46.5,345.8z"/>
			<path d="M47.5,347.8l0.3-0.3c0.3,0.5,0.8,0.8,1.4,0.9c0.5,0.2,1.1-0.1,1.3-0.6c0,0,0-0.1,0-0.1c0.1-0.6-0.5-1-1-1.3
				c-0.7-0.4-1.4-0.8-1.3-1.6c0.2-0.7,0.9-1.2,1.6-1c0,0,0.1,0,0.1,0c0.5,0.1,0.9,0.3,1.3,0.7l-0.3,0.3c-0.3-0.3-0.6-0.5-1.1-0.6
				c-0.7-0.1-1.1,0.3-1.2,0.7s0.4,0.8,1,1.1c0.7,0.4,1.5,0.8,1.3,1.7c-0.2,0.8-0.9,1.3-1.7,1.1c0,0-0.1,0-0.1,0
				C48.5,348.6,47.9,348.3,47.5,347.8z"/>
			<path d="M52.1,347.8l0.5-3l-0.7-0.1v-0.3l0.8,0.1l0.3-1.4l0.4,0.1l-0.2,1.4l1.4,0.2l-0.1,0.4l-1.3-0.2l-0.5,3.1
				c-0.1,0.6,0,1,0.6,1.1c0.2,0,0.4,0,0.6,0l0.1,0.4c-0.3,0.1-0.5,0.1-0.8,0C52.1,349.2,51.9,348.6,52.1,347.8z"/>
			<path d="M54.5,348.3c0.2-1.1,1.2-1.4,3.3-1.3c0.1-0.7,0.1-1.5-0.9-1.7c-0.5-0.1-1.1,0-1.6,0.3l-0.2-0.4c0.6-0.3,1.2-0.4,1.9-0.3
				c1.1,0.2,1.4,1.1,1.2,2.1l-0.5,3l-0.4,0l0-0.6l0,0c-0.5,0.4-1.2,0.5-1.8,0.5c-0.7,0-1.2-0.6-1.2-1.3
				C54.4,348.4,54.5,348.4,54.5,348.3z M57.5,348.9l0.3-1.6c-2-0.1-2.7,0.3-2.8,1c-0.1,0.5,0.2,1,0.7,1.1c0.1,0,0.1,0,0.2,0
				C56.4,349.5,57,349.3,57.5,348.9L57.5,348.9z"/>
			<path d="M61.4,348.2c0-1.2,0.9-2.2,2.1-2.2c0.7,0,1.3,0.3,1.8,0.9l0.1-0.9l0.3-2l0.4,0.1l-1.1,7.1l-0.4-0.1v-0.6l0,0
				c-0.5,0.4-1,0.5-1.6,0.5C61.8,350.8,61.2,349.8,61.4,348.2z M64.7,350.1l0.5-2.8c-0.3-0.4-0.8-0.7-1.3-0.8
				c-0.9-0.1-1.8,0.6-2,1.8s0.2,2.2,1.2,2.4C63.7,350.7,64.3,350.5,64.7,350.1z"/>
			<path d="M66.8,349.1c0.1-1.3,1.1-2.2,2.4-2.2c0,0,0,0,0.1,0c1.1,0.2,1.7,1.1,1.5,2.5c0,0.1-0.1,0.2-0.1,0.4l-3.4-0.6
				c-0.3,1,0.3,2,1.3,2.3c0,0,0.1,0,0.1,0c0.5,0.1,0.9,0,1.3-0.2l0.1,0.4c-0.5,0.2-1,0.3-1.6,0.2c-1.2-0.2-2.1-1.4-1.8-2.6
				C66.8,349.2,66.8,349.2,66.8,349.1z M70.3,349.4c0.2-1.2-0.3-1.9-1.1-2c-0.9-0.1-1.8,0.6-1.9,1.5L70.3,349.4z"/>
			<path d="M74.7,346.1l0.7,0.1l0.7,4c0.1,0.5,0.2,1,0.3,1.5l0,0l0.7-1.4l2-3.6l0.6,0.1l-1.1,6.5l-0.4-0.1l0.7-4.3
				c0.1-0.5,0.2-1.2,0.3-1.7l0,0l-0.7,1.4l-2,3.6l-0.5,0l-0.8-4.1l-0.2-1.5l0,0c-0.1,0.5-0.2,1.2-0.2,1.8l-0.8,4.3l-0.4-0.1
				L74.7,346.1z"/>
			<path d="M80.4,352.5c0.2-1,1.2-1.4,3.3-1.3c0.1-0.7,0.1-1.5-0.9-1.7c-0.6-0.1-1.1,0-1.6,0.3l-0.2-0.4c0.6-0.3,1.2-0.4,1.9-0.3
				c1.1,0.2,1.4,1.1,1.2,2.1l-0.5,3l-0.4-0.1v-0.6l0,0c-0.5,0.4-1.2,0.5-1.8,0.5c-0.7-0.1-1.2-0.7-1.2-1.3
				C80.3,352.6,80.3,352.6,80.4,352.5z M83.4,353.2l0.3-1.6c-2-0.1-2.7,0.3-2.8,1c-0.1,0.5,0.2,1,0.7,1.1c0.1,0,0.1,0,0.2,0
				C82.3,353.7,82.9,353.6,83.4,353.2L83.4,353.2z"/>
			<path d="M86.1,349.8l0.4,0.1l-0.1,0.9l0,0c0.3-0.5,0.9-0.8,1.5-0.8c0.2,0,0.3,0.1,0.5,0.2l-0.2,0.4c-0.1-0.1-0.3-0.1-0.4-0.1
				c-0.4-0.1-1,0.2-1.5,1l-0.5,3.2l-0.4-0.1L86.1,349.8z"/>
			<path d="M89.5,349.3c0.2-0.9,0.7-1.4,1.4-1.2c0.2,0,0.5,0.1,0.7,0.3l-0.2,0.3c-0.2-0.1-0.3-0.2-0.5-0.2c-0.5-0.1-0.8,0.3-0.9,1
				l-1,5.8l-0.4-0.1L89.5,349.3z M88.7,350.3l0.7,0.1l1.5,0.3l-0.1,0.4l-2.2-0.4L88.7,350.3z"/>
			<path d="M91.8,350.8l0.4,0.1l-0.8,4.7l-0.4-0.1L91.8,350.8z M91.9,349.2c0-0.2,0.2-0.4,0.5-0.4c0.2,0,0.4,0.2,0.4,0.5
				c0,0.2-0.2,0.4-0.5,0.4c0,0,0,0,0,0C92.1,349.6,91.9,349.4,91.9,349.2C91.9,349.2,91.9,349.2,91.9,349.2z"/>
			<path d="M93.4,355.2l1.1-6.5l0.4,0.1l-1.1,6.5c0,0.2,0,0.3,0.2,0.4h0.2v0.4c-0.1,0-0.2,0-0.3,0C93.5,356,93.3,355.8,93.4,355.2z"
				/>
		</g>
	</g>
	<g>
		<g>
			<path d="M74.9,273.5l1.5-3.8l0.4,0.2l-1.5,3.7c-0.7,1.6-0.1,2.4,0.8,2.8s1.9,0.2,2.5-1.5l1.5-3.7l0.4,0.2l-1.5,3.8
				c-0.8,1.9-2,2-3.1,1.6S74.1,275.5,74.9,273.5z"/>
			<path d="M79,279c0.2-0.4,0.6-0.7,1.1-0.8l0,0c-0.2-0.2-0.2-0.6-0.1-0.9c0.2-0.3,0.5-0.6,0.8-0.6l0,0c-0.2-0.4-0.3-1-0.1-1.5
				c0.3-0.9,1.3-1.3,2.2-1c0,0,0,0,0,0c0.2,0.1,0.4,0.2,0.6,0.4l1.5,0.6l-0.1,0.4l-1-0.4c0.2,0.4,0.2,0.9,0,1.3
				c-0.3,0.9-1.3,1.3-2.2,1c-0.3-0.1-0.5-0.3-0.7-0.5c-0.3,0.1-0.5,0.2-0.6,0.5c-0.1,0.3,0,0.7,0.6,0.9l1,0.4c1,0.4,1.3,0.9,1.1,1.6
				s-1.4,1.2-2.7,0.7C79.2,280.5,78.7,279.7,79,279z M82.6,280.2c0.2-0.5-0.1-0.8-0.8-1.1l-1-0.4c-0.2-0.1-0.4-0.2-0.5-0.3
				c-0.4,0.1-0.8,0.3-0.9,0.7c-0.2,0.6,0.2,1.2,1.1,1.5S82.4,280.7,82.6,280.2L82.6,280.2z M83.5,276.3c0.3-0.6,0.1-1.4-0.5-1.7
				s-1.4-0.1-1.7,0.5c0,0.1-0.1,0.2-0.1,0.2c-0.3,0.6-0.1,1.4,0.5,1.7s1.4,0.1,1.7-0.5C83.4,276.4,83.5,276.3,83.5,276.3z"/>
			<path d="M84.2,278.7c0.4-1,1.5-1.1,3.6-0.5c0.3-0.7,0.4-1.5-0.5-1.8c-0.5-0.2-1.1-0.2-1.6,0l-0.1-0.4c0.6-0.2,1.3-0.1,1.9,0.1
				c1.1,0.4,1.1,1.3,0.7,2.3l-1.1,2.9l-0.3-0.1l0.2-0.6l0,0c-0.6,0.2-1.2,0.3-1.8,0.1c-0.7-0.2-1.1-0.8-0.9-1.5
				C84.1,278.9,84.2,278.8,84.2,278.7z M87.1,280l0.6-1.5c-1.9-0.5-2.7-0.4-3,0.4c-0.2,0.4,0,1,0.4,1.2c0.1,0,0.1,0,0.2,0.1
				C85.8,280.3,86.5,280.3,87.1,280z"/>
			<path d="M90.4,277.3l0.3,0.1l-0.2,0.7l0,0c0.6-0.3,1.2-0.4,1.8-0.2c0.9,0.4,1.1,1.1,0.7,2.3l-1.1,2.9l-0.4-0.2l1.1-2.8
				c0.4-1,0.3-1.5-0.5-1.8c-0.6-0.2-1.3-0.1-1.8,0.3l-1.3,3.4l-0.4-0.2L90.4,277.3z"/>
			<path d="M94.1,281.4c0.4-1.2,1.6-1.9,2.8-1.6c0,0,0,0,0,0c0.5,0.2,0.9,0.6,1.1,1.1l0.3-0.8l0.7-1.8l0.4,0.2l-2.6,6.7l-0.3-0.1
				l0.2-0.6l0,0c-0.5,0.3-1.2,0.3-1.7,0.1C93.9,284,93.5,282.9,94.1,281.4z M96.9,283.9l1.1-2.6c-0.2-0.5-0.6-0.9-1.1-1.1
				c-1-0.3-2.1,0.3-2.4,1.3c0,0,0,0,0,0c-0.5,1.2-0.3,2.2,0.7,2.6C95.8,284.3,96.4,284.2,96.9,283.9L96.9,283.9z"/>
			<path d="M98.8,284.5c0.4-1,1.5-1.1,3.5-0.5c0.3-0.7,0.4-1.5-0.5-1.8c-0.5-0.2-1.1-0.2-1.6,0l-0.1-0.4c0.6-0.2,1.3-0.1,1.9,0.1
				c1.1,0.4,1.1,1.3,0.7,2.3l-1.1,2.9l-0.3-0.1l0.2-0.6l0,0c-0.6,0.2-1.2,0.3-1.9,0.1c-0.7-0.2-1.1-0.9-0.9-1.5
				C98.7,284.6,98.8,284.6,98.8,284.5z M101.6,285.8l0.6-1.5c-1.9-0.5-2.7-0.3-3,0.4c-0.2,0.4,0,1,0.4,1.2c0.1,0,0.1,0,0.2,0.1
				C100.4,286.1,101,286.1,101.6,285.8L101.6,285.8z"/>
		</g>
	</g>
	<g>
		<g>
			<path d="M118.1,206.5l0.4,0.3l-3.7,5.4l-0.4-0.3L118.1,206.5z"/>
			<path d="M119,209.3l0.3,0.2l-0.4,0.6l0,0c0.6-0.2,1.3-0.1,1.8,0.2c0.8,0.6,0.9,1.3,0.2,2.3l-1.7,2.5l-0.4-0.2l1.7-2.5
				c0.6-0.9,0.6-1.4-0.1-1.9c-0.6-0.3-1.2-0.3-1.8-0.1l-2,3l-0.4-0.3L119,209.3z"/>
			<path d="M121.7,214.1c0.6-1.1,2-1.5,3.1-0.9c0,0,0.1,0,0.1,0c0.4,0.3,0.7,0.8,0.9,1.3l0.5-0.7l1.1-1.6l0.4,0.3l-4,5.9l-0.3-0.2
				l0.3-0.5l0,0c-0.6,0.1-1.2,0.1-1.7-0.3C121,216.6,120.8,215.4,121.7,214.1z M123.9,217.2l1.6-2.4c-0.1-0.5-0.4-1-0.8-1.3
				c-0.9-0.5-2.1-0.1-2.6,0.8c0,0,0,0,0,0c-0.7,1.1-0.7,2.1,0.1,2.6C122.8,217.3,123.4,217.4,123.9,217.2z"/>
			<path d="M127.9,215.4l0.4,0.3l-2.7,4l-0.4-0.3L127.9,215.4z M128.7,214c0.1-0.2,0.3-0.2,0.5-0.1c0,0,0,0,0,0
				c0.2,0.1,0.2,0.3,0.1,0.5c0,0,0,0,0,0c-0.1,0.2-0.4,0.2-0.6,0.1C128.6,214.4,128.6,214.2,128.7,214z"/>
			<path d="M127.5,219.4c0.6-0.9,1.7-0.8,3.6,0.2c0.4-0.6,0.7-1.4-0.1-1.9c-0.5-0.3-1-0.4-1.6-0.4V217c0.6,0,1.3,0.1,1.8,0.5
				c0.9,0.6,0.8,1.5,0.2,2.4l-1.7,2.5l-0.3-0.2l0.3-0.5l0,0c-0.6,0.1-1.3,0-1.8-0.3c-0.6-0.3-0.8-1.1-0.5-1.7
				C127.4,219.6,127.5,219.5,127.5,219.4z M130,221.3l0.9-1.4c-1.8-0.9-2.6-0.9-3-0.3c-0.3,0.4-0.2,1,0.2,1.3c0,0,0.1,0.1,0.2,0.1
				C128.8,221.3,129.4,221.4,130,221.3L130,221.3z"/>
		</g>
	</g>
	<g>
		<g>
			<path d="M162.7,153.9l0.4,0.1c-0.2,0.5-0.1,1.1,0.3,1.5c0.6,0.6,1.2,0.5,1.9-0.2l3.4-3.3l0.3,0.3l-3.5,3.3
				c-0.8,0.7-1.7,1-2.5,0.1C162.6,155.3,162.4,154.6,162.7,153.9z"/>
			<path d="M166.2,157.1c0.8-0.7,1.8-0.4,3.4,1c0.5-0.5,1-1.2,0.3-1.9c-0.4-0.4-0.9-0.6-1.5-0.7l0.1-0.4c0.6,0.1,1.2,0.4,1.7,0.9
				c0.8,0.8,0.4,1.7-0.3,2.4l-2.2,2.1l-0.3-0.3l0.4-0.5l0,0c-0.6,0-1.2-0.3-1.7-0.7c-0.5-0.4-0.6-1.2-0.2-1.8
				C166.1,157.3,166.2,157.2,166.2,157.1z M168.2,159.5l1.2-1.1c-1.5-1.3-2.3-1.4-2.9-0.9c-0.4,0.3-0.4,0.9-0.1,1.3
				c0,0,0.1,0.1,0.1,0.1C167,159.3,167.6,159.5,168.2,159.5L168.2,159.5z"/>
			<path d="M171.9,157.9l0.3,0.4l-1.4,2.9c-0.2,0.4-0.5,0.9-0.7,1.3l0,0l1.3-0.6l2.9-1.3l0.3,0.3l-4.7,2l-0.4-0.4L171.9,157.9z"/>
			<path d="M172.4,163.7c0.8-0.7,1.8-0.4,3.4,1c0.5-0.5,1-1.2,0.3-1.9c-0.4-0.4-0.9-0.6-1.5-0.7l0.1-0.4c0.6,0.1,1.2,0.4,1.7,0.9
				c0.8,0.8,0.4,1.7-0.3,2.4l-2.2,2.1l-0.3-0.3l0.4-0.5l0,0c-0.6,0-1.2-0.3-1.7-0.7c-0.5-0.4-0.6-1.2-0.2-1.8
				C172.3,163.8,172.4,163.8,172.4,163.7z M174.4,166.1l1.2-1.1c-1.5-1.3-2.3-1.4-2.9-0.9c-0.4,0.3-0.4,0.9-0.1,1.3
				c0,0,0.1,0.1,0.1,0.1C173.2,165.8,173.8,166.1,174.4,166.1L174.4,166.1z"/>
		</g>
	</g>
	<g>
		<g>
			<path d="M215.9,98.4l0.4,0.1c-0.2,0.7-0.1,1.5,0.2,2.1c0.5,0.9,1.3,1.1,2,0.7s0.6-1,0.6-1.7l-0.1-1.1c-0.2-0.7,0.1-1.6,0.7-2
				c0.8-0.4,1.9-0.1,2.3,0.7c0,0,0,0.1,0,0.1c0.4,0.6,0.5,1.3,0.3,2l-0.4-0.1c0.2-0.6,0.1-1.2-0.2-1.7c-0.4-0.8-1.1-1-1.8-0.6
				s-0.6,1.1-0.5,1.6l0.1,1.1c0.2,0.8-0.1,1.6-0.8,2.1c-0.9,0.5-2,0.2-2.5-0.7c0,0-0.1-0.1-0.1-0.1
				C215.8,100.2,215.6,99.3,215.9,98.4z"/>
			<path d="M222.2,101.3l0.2,0.3l-0.7,0.5l0,0c0.6-0.1,1.2,0.2,1.6,0.6c0.1,0.1,0.1,0.3,0.2,0.5l-0.4,0.1c0-0.1-0.1-0.3-0.1-0.4
				c-0.2-0.4-0.8-0.6-1.7-0.5l-2.8,1.7l-0.2-0.4L222.2,101.3z"/>
			<path d="M223.8,104l0.2,0.4l-4.1,2.5l-0.2-0.4L223.8,104z M225.1,103.1c0.2-0.1,0.4-0.1,0.5,0.1c0,0,0,0,0,0
				c0.1,0.2,0.1,0.4-0.1,0.5c-0.2,0.1-0.4,0.1-0.5-0.1C224.8,103.4,224.8,103.2,225.1,103.1C225,103,225,103,225.1,103.1
				L225.1,103.1z"/>
			<path d="M227.6,106.8l0.2,0.4l-5.3,3.2l1.6,2.6l-0.3,0.2l-1.8-3L227.6,106.8z"/>
			<path d="M225.2,113.2c0.9-0.6,1.8,0,3.1,1.7c0.6-0.4,1.2-1,0.7-1.8c-0.3-0.5-0.8-0.8-1.3-1l0.2-0.3c0.6,0.2,1.1,0.7,1.4,1.2
				c0.6,1,0.1,1.7-0.8,2.3l-2.6,1.6l-0.2-0.3l0.5-0.4l0,0c-0.6-0.2-1.1-0.6-1.5-1.1c-0.4-0.5-0.3-1.3,0.2-1.8
				C225.1,113.3,225.1,113.3,225.2,113.2z M226.6,116l1.4-0.8c-1.2-1.6-1.9-1.9-2.6-1.5c-0.4,0.2-0.6,0.8-0.4,1.2
				c0,0.1,0.1,0.1,0.1,0.2C225.5,115.5,226,115.9,226.6,116L226.6,116z"/>
			<path d="M231,115.9l0.2,0.3l-0.6,0.4l0,0c0.6,0.1,1.2,0.5,1.6,1c0.5,0.8,0.2,1.6-0.8,2.2l-2.6,1.6l-0.2-0.4l2.6-1.6
				c0.9-0.5,1.1-1,0.7-1.7c-0.3-0.5-0.8-0.7-1.6-0.9l-3.1,1.9l-0.2-0.4L231,115.9z"/>
			<path d="M235.8,119.2l0.2,0.4l-4.5,2.7l0,0l3.7,0.5l0.3,0.4l-2.4-0.4l-1.5,3.1l-0.3-0.4l1.4-2.7l-1.6-0.3l-1.1,0.7l-0.2-0.4
				L235.8,119.2z"/>
			<path d="M232.8,125.9c0.9-0.6,1.9,0,3.1,1.7c0.6-0.4,1.2-1,0.7-1.8c-0.3-0.5-0.8-0.8-1.3-1l0.2-0.3c0.6,0.2,1.1,0.7,1.4,1.2
				c0.6,1,0.1,1.7-0.8,2.3l-2.6,1.6l-0.2-0.3l0.5-0.4l0,0c-0.6-0.2-1.1-0.6-1.5-1.1c-0.4-0.6-0.3-1.3,0.2-1.8
				C232.7,126,232.7,125.9,232.8,125.9z M234.3,128.6l1.4-0.8c-1.2-1.6-2-1.9-2.6-1.5c-0.4,0.2-0.6,0.8-0.4,1.2
				c0,0.1,0.1,0.1,0.1,0.1C233.1,128.1,233.6,128.5,234.3,128.6z"/>
		</g>
	</g>
	<g>
		<g>
			<path d="M286.4,67.8l0.4,0.2c-0.4,0.6-0.5,1.4-0.2,2.1c0.3,1,1,1.4,1.8,1.1s0.9-0.9,0.9-1.6l0.1-1.1c0-0.8,0.4-1.5,1.1-1.8
				c0.9-0.3,1.9,0.3,2.1,1.2c0,0,0,0.1,0,0.1c0.2,0.7,0.2,1.4-0.2,2l-0.4-0.2c0.3-0.5,0.3-1.1,0.1-1.7c-0.3-0.8-0.9-1.2-1.6-1
				s-0.8,1-0.8,1.5l-0.1,1.1c-0.1,0.8-0.3,1.5-1.2,1.9c-1,0.3-2-0.3-2.3-1.3c0,0,0-0.1,0-0.1C285.9,69.4,286,68.5,286.4,67.8z"/>
			<path d="M289,72.8l2.9-1l0.1,0.4l-2.9,1c-1,0.3-1.3,0.8-1.1,1.5c0.2,0.6,0.6,0.8,1.4,1.2l3.4-1.1l0.1,0.4l-4.5,1.5l-0.1-0.4
				l0.8-0.3l0,0c-0.6-0.2-1.1-0.6-1.4-1.3C287.4,73.9,287.8,73.2,289,72.8z"/>
			<path d="M293.6,76.9l0.1,0.3l-0.7,0.3l0,0c0.6,0.2,1,0.6,1.3,1.2c0.2,0.6,0,1.2-0.5,1.6c0.6,0.2,1.2,0.6,1.5,1.2
				c0.3,0.9-0.1,1.6-1.3,2l-2.9,1l-0.1-0.4l2.9-1c1-0.3,1.3-0.8,1.1-1.5c-0.1-0.4-0.6-0.8-1.3-1.1l-3.4,1.2l-0.1-0.4l2.9-1
				c1-0.3,1.3-0.8,1.1-1.5c-0.1-0.4-0.6-0.8-1.3-1.1l-3.4,1.2l-0.1-0.4L293.6,76.9z"/>
			<path d="M292.7,85.5c1-0.3,1.8,0.4,2.7,2.4c0.7-0.2,1.4-0.7,1.1-1.6c-0.2-0.5-0.5-1-1-1.3l0.3-0.3c0.5,0.4,0.9,0.9,1.2,1.5
				c0.4,1.1-0.3,1.7-1.3,2l-2.9,1l-0.1-0.3l0.6-0.2l0,0c-0.6-0.3-1-0.8-1.3-1.4c-0.3-0.6,0-1.4,0.6-1.7
				C292.6,85.5,292.7,85.5,292.7,85.5z M293.5,88.5l1.5-0.5c-0.8-1.8-1.5-2.3-2.2-2c-0.5,0.1-0.8,0.6-0.6,1.1c0,0.1,0,0.1,0.1,0.2
				C292.6,87.8,293,88.2,293.5,88.5L293.5,88.5z"/>
			<path d="M294.5,90.4l2.9-1l-0.2-0.7l0.3-0.1l0.3,0.7l1.3-0.4l0.1,0.4l-1.3,0.4l0.5,1.3l-0.4,0.1l-0.4-1.3l-3,1
				c-0.6,0.2-0.9,0.5-0.7,1.1c0.1,0.2,0.2,0.4,0.3,0.5l-0.3,0.2c-0.2-0.2-0.3-0.4-0.4-0.7C293.2,91.1,293.7,90.7,294.5,90.4z"/>
			<path d="M298.8,92.1l0.1,0.4l-0.8,0.3l0,0c0.6,0,1.2,0.4,1.4,1c0.1,0.2,0.1,0.3,0.1,0.5h-0.4c0-0.1,0-0.3-0.1-0.4
				c-0.1-0.4-0.6-0.8-1.6-0.8l-3.1,1l-0.1-0.4L298.8,92.1z"/>
			<path d="M296.2,95.8c1-0.3,1.8,0.4,2.7,2.4c0.7-0.2,1.4-0.7,1.1-1.6c-0.2-0.5-0.5-1-1-1.3l0.2-0.3c0.5,0.4,0.9,0.9,1.2,1.5
				c0.4,1.1-0.3,1.7-1.3,2l-2.9,1l-0.1-0.4l0.6-0.2l0,0c-0.6-0.3-1-0.8-1.3-1.4c-0.3-0.6,0-1.4,0.6-1.7
				C296.1,95.8,296.1,95.8,296.2,95.8z M297,98.8l1.5-0.5c-0.9-1.8-1.5-2.3-2.2-2c-0.5,0.1-0.8,0.6-0.6,1.1c0,0.1,0,0.1,0.1,0.2
				C296,98.1,296.5,98.5,297,98.8L297,98.8z"/>
		</g>
	</g>
	<g>
		<g>
			<path d="M366.8,50.3l0,0.5l-3.7,1.6c-0.8,0.3-1.4,0.6-2.1,0.9v0c0.8,0.2,1.4,0.3,2.3,0.5l4,0.8l0,0.5l-6.8-1.4l-0.1-0.5
				L366.8,50.3z"/>
			<path d="M365.6,56.2v0.4l-4.8,0.5l0-0.4L365.6,56.2z M367.2,55.9c0.2,0,0.4,0.1,0.4,0.3c0,0,0,0,0,0.1c0,0.2-0.1,0.4-0.3,0.4
				c0,0,0,0,0,0c-0.2,0-0.4-0.1-0.4-0.4c0,0,0,0,0,0C366.8,56.1,366.9,55.9,367.2,55.9C367.2,55.9,367.2,55.9,367.2,55.9L367.2,55.9
				z"/>
			<path d="M363.5,58.4c1.2-0.3,2.4,0.5,2.7,1.7c0,0,0,0.1,0,0.1c0.1,1.1-0.6,1.9-2,2.1c-0.1,0-0.2,0-0.4,0l-0.4-3.4
				c-1,0-1.9,0.9-1.9,1.9c0,0,0,0.1,0,0.1c0,0.5,0.2,0.9,0.6,1.2l-0.3,0.2c-0.4-0.4-0.6-0.9-0.6-1.5c-0.1-1.2,0.8-2.3,2.1-2.4
				C363.3,58.4,363.4,58.4,363.5,58.4z M364.1,61.8c1.2-0.1,1.8-0.8,1.7-1.6c-0.2-0.9-1.1-1.6-2-1.4L364.1,61.8z"/>
			<path d="M363,63.7l3.1-0.3l-0.1-0.7h0.3l0.1,0.8l1.4-0.1l0,0.4l-1.4,0.2l0.1,1.4h-0.4l-0.1-1.4l-3.1,0.3c-0.6,0.1-1,0.3-0.9,0.9
				c0,0.2,0.1,0.4,0.2,0.6l-0.3,0.2c-0.1-0.2-0.2-0.5-0.3-0.8C361.6,64.1,362.1,63.8,363,63.7z"/>
			<path d="M366.7,66.3v0.4l-0.7,0.1l0,0c0.5,0.4,0.9,0.9,1,1.6c0.1,1-0.4,1.5-1.7,1.6l-3.1,0.3v-0.4l3-0.3c1-0.1,1.5-0.5,1.4-1.3
				c-0.1-0.6-0.4-0.9-1.1-1.5l-3.6,0.4v-0.4L366.7,66.3z"/>
			<path d="M363.7,71.7c1.1-0.1,1.7,0.8,2.1,2.9c0.7-0.1,1.5-0.3,1.4-1.3c-0.1-0.6-0.3-1.1-0.7-1.5l0.3-0.2c0.4,0.5,0.7,1.1,0.8,1.7
				c0.1,1.1-0.7,1.6-1.7,1.7l-3,0.3v-0.4l0.6-0.1l0,0c-0.5-0.4-0.8-1-0.9-1.6c-0.2-0.7,0.2-1.3,0.9-1.5
				C363.6,71.7,363.6,71.7,363.7,71.7z M363.9,74.8l1.6-0.2c-0.4-1.9-1-2.6-1.7-2.5c-0.5,0-0.9,0.5-0.9,1c0,0.1,0,0.1,0,0.2
				C363,73.8,363.4,74.4,363.9,74.8L363.9,74.8z"/>
			<path d="M367.9,76.5v0.4l-0.7,0.1l0,0c0.5,0.3,0.9,0.8,1,1.4c0.1,0.6-0.2,1.2-0.8,1.4c0.6,0.3,1,0.9,1.1,1.5
				c0.1,1-0.4,1.5-1.7,1.6l-3.1,0.3v-0.4l3-0.3c1-0.1,1.5-0.5,1.4-1.2c0-0.4-0.4-0.9-1-1.3l-3.6,0.4v-0.4l3-0.3
				c1-0.1,1.5-0.5,1.4-1.2c0-0.4-0.4-0.9-1-1.3l-3.6,0.4V77L367.9,76.5z"/>
		</g>
	</g>
</g>
</svg>
