<?xml version="1.0" encoding="utf-8"?>
<!-- Generator: Adobe Illustrator 24.0.2, SVG Export Plug-In . SVG Version: 6.00 Build 0)  -->
<svg version="1.1" xmlns="http://www.w3.org/2000/svg" xmlns:xlink="http://www.w3.org/1999/xlink" x="0px" y="0px"
	 viewBox="0 0 1370.07 425.29" style="enable-background:new 0 0 1370.07 425.29;" xml:space="preserve">
<style type="text/css">
	.st0{fill:#FFFFFF;}
	.st1{fill:#8D4D0E;}
</style>
<g id="Capa_2">
	<rect x="-13" y="-19.14" class="st0" width="1404" height="468.64"/>
</g>
<g id="Capa_1">
	<path d="M527.05,183.03c16.42-15.86,24.9-39.14,22.1-60.81c-2.27-17.74-12.06-32.33-27.52-41.02c-8.39-4.72-17.82-6.86-27.26-6.2
		c-7.47,0.52-14.76,2.75-21.58,6.64c-1.01,0.57-1.97,1.14-2.93,1.75c-0.96-0.61-1.92-1.18-2.93-1.75
		c-6.86-3.89-14.11-6.11-21.58-6.64c-9.48-0.66-18.87,1.48-27.26,6.2c-8.13,4.54-14.9,11.31-19.53,19.48
		c-18.87,31.15-4.33,63.65,13.89,82.04c0,0.04,0.09,0.09,0.13,0.13c-4.11,4.72-7.08,9.26-8.91,13.63c-2.93,6.9,0.35,14.9,7.25,17.78
		c10.53,4.46,15.86-3.89,19.39-9.43c0.35-0.57,0.74-1.14,1.09-1.66c2.49,1.83,4.72,3.45,5.68,4.06c10.66,6.64,21.88,9.92,33.03,9.92
		c13.32,0,26.51-4.68,38.49-14.02c1.14,1.44,1.92,2.75,2.4,3.84c2.93,6.9,10.88,10.13,17.78,7.25c3.36-1.4,5.94-4.02,7.29-7.38
		c1.35-3.36,1.35-7.03-0.04-10.4C534.26,192.2,531.33,187.79,527.05,183.03L527.05,183.03z M475.89,87.1
		c6.03-3.41,12.36-5.37,18.92-5.81c8.21-0.57,16.47,1.31,23.76,5.42c17.56,9.87,22.93,25.2,24.38,36.35
		c2.49,19.39-5.46,41.15-20.23,55.43c-1.88-1.75-4.59-4.11-8.39-7.43c-0.92-0.79-1.75-1.53-2.45-2.14
		c10-12.23,18.3-30.75,15.64-46.92c-1.62-9.7-7.16-17.47-16.07-22.5c-4.85-2.71-10.27-3.98-15.64-3.58c-3.41,0.22-6.77,1.09-10,2.53
		c-2.8-4.06-6.25-7.78-10.35-11.09c0.17-0.09,0.3-0.17,0.48-0.26L475.89,87.1z M489.26,104.48c0,0-0.17-0.39-0.3-0.61
		c2.36-1,4.76-1.57,7.21-1.75c4.19-0.31,8.39,0.7,12.14,2.8c7.3,4.11,11.66,10.18,12.97,18.04c2.32,14.07-5.42,30.97-14.2,41.8
		c-2.66-2.14-5.33-4.28-7.99-6.33c-4.06-3.19-7.99-6.29-11.36-9.17c2.45-4.41,4.15-8.91,5.02-13.37
		C494.98,124.49,493.8,113.92,489.26,104.48L489.26,104.48z M403.99,103.83c4.11-7.21,10.05-13.15,17.17-17.17
		c6.46-3.63,13.63-5.5,20.92-5.5c0.96,0,1.92,0,2.88,0.09c6.55,0.44,12.89,2.4,18.92,5.81c7.99,4.54,14.02,10.22,18.04,16.95
		c0,0,0.04,0.17,0.09,0.22c0.57,0.96,1.09,1.97,1.57,2.97c3.93,8.17,4.94,17.43,2.97,27.48c-0.66,3.41-1.88,6.86-3.67,10.27
		c-0.66-0.66-1.31-1.27-1.88-1.88c-2.18-2.27-3.93-4.63-5.24-6.9c-2.84-4.98-2.8-7.6-2.8-10.62c0-3.1,0-6.64-2.62-12.14
		c-2.58-5.33-7.21-9.96-13.8-13.72c-4.06-2.32-8.3-3.63-12.67-3.93c-5.37-0.35-10.79,0.87-15.55,3.54
		c-8.95,4.59-14.55,12.54-16.07,22.98c-2.49,16.64,5.64,35.52,15.25,46.39c-4.02,3.19-7.56,6.33-10.66,9.44
		c-16.6-16.77-29.97-46.3-12.93-74.39L403.99,103.83z M446.97,135.85c0.87,4.5,2.53,9,5.02,13.37c-3.36,2.84-7.25,5.9-11.36,9.17
		c-2.66,2.1-5.42,4.28-8.08,6.46c-8.78-9.83-16.07-27.17-13.93-41.54c1.27-8.47,5.55-14.63,12.84-18.39
		c3.36-1.88,7.03-2.84,10.7-2.84c0.48,0,0.96,0,1.44,0.04c2.45,0.17,4.85,0.74,7.21,1.75c-0.09,0.17-0.17,0.39-0.31,0.61
		c-4.54,9.44-5.72,20.01-3.49,31.41L446.97,135.85z M428.41,196.57l-0.09,0.09c-1.18,1.35-2.23,3.01-3.32,4.72
		c-4.15,6.51-6.51,9.17-11.62,6.99c-3.71-1.57-5.46-5.85-3.89-9.57c3.45-8.21,11.75-17.34,24.64-27.21h0.09v-0.09
		c3.41-2.8,6.86-5.55,10.35-8.3c3.84-3.01,7.51-5.94,10.79-8.69c1.75,2.49,3.76,4.89,5.98,7.25c1.14,1.18,2.4,2.4,3.76,3.67
		c-3.01,2.53-6.2,5.02-9.74,7.82l-2.45,1.92c-2.8,2.18-5.64,4.46-8.39,6.68c-4.06,2.62-14.81,13.19-16.12,14.63L428.41,196.57z
		 M469.86,169.7c3.8,3.23,8.04,6.55,12.41,10l0.44,0.35c1.79,1.4,3.58,2.8,5.33,4.24c-12.23,7.64-24.2,7.64-36.39,0
		c1.7-1.35,3.45-2.75,5.15-4.11l2.45-1.92C463.14,175.21,466.54,172.54,469.86,169.7L469.86,169.7z M440.38,201.86
		c-0.79-0.48-3.06-2.14-4.85-3.5c3.01-2.93,7.99-7.6,10.92-9.96c15.55,10.61,31.23,10.61,46.78,0.09c1.53,1.4,3.89,3.63,5.77,5.42
		c2.1,2.01,3.76,3.58,5.11,4.76c-19.96,15.16-42.55,16.34-63.69,3.19L440.38,201.86z M530.28,204.43c-0.74,1.79-2.14,3.23-3.93,3.98
		c-1.79,0.74-3.8,0.79-5.59,0c-1.79-0.74-3.23-2.14-3.98-3.93c-1-2.36-2.75-4.94-5.46-7.91c-0.26-0.3-0.57-0.52-0.92-0.7
		c-1.05-0.83-4.54-4.15-7.12-6.6c-4.06-3.84-6.38-6.07-7.95-7.21c-2.88-2.36-5.81-4.67-8.69-6.99l-0.39-0.3
		c-7.91-6.25-15.42-12.19-20.27-17.3c-3.32-3.5-6.11-7.21-8.26-10.96c-2.23-3.93-3.76-7.91-4.5-11.88
		c-1.97-10.05-0.96-19.31,2.97-27.48l0.13-0.26c4.02,2.71,6.86,5.81,8.52,9.26c2.01,4.19,2.01,6.6,2.01,9.39
		c0,3.41,0,7.3,3.63,13.76c1.53,2.71,3.63,5.46,6.12,8.13c4.33,4.54,11.31,10.09,18.74,15.94c3.36,2.62,6.77,5.33,10.13,8.08
		c0.48,0.48,1.53,1.4,4.8,4.28c3.15,2.75,8.91,7.82,10.18,9.13c0.13,0.22,0.31,0.44,0.48,0.61c4.63,4.94,7.73,9.3,9.44,13.37
		c0.74,1.79,0.79,3.76,0,5.59L530.28,204.43z"/>
	<path d="M213.14,125.4v-0.28v-0.56c0,0,0-0.28-0.28-0.28c0-0.28-0.28-0.28-0.28-0.56v-0.28l-16.31-16.02V63.55
		c0-1.69-1.12-2.81-2.81-2.81h-78.72c-1.69,0-2.81,1.12-2.81,2.81v43.86L95.9,123.44v0.28c0,0.28-0.28,0.28-0.28,0.56
		c0,0,0,0.28-0.28,0.28c-0.28,0.56-0.28,1.12,0,1.69v0.28l16.59,33.17v61.29c0,1.69,1.12,2.81,2.81,2.81h78.72
		c1.69,0,2.81-1.12,2.81-2.81V159.7l16.59-33.17v-0.28C212.85,125.97,213.14,125.68,213.14,125.4z M206.39,125.4l-10.12,10.12
		v-20.24L206.39,125.4z M117.55,105.72h33.74v33.74h-33.74V105.72z M181.09,150.71h-15.74c-1.69,0-2.81,1.12-2.81,2.81
		s1.12,2.81,2.81,2.81h10.12l-18.56,18.56v-29.8h29.8L181.09,150.71z M132.73,156.33h7.31v7.31L132.73,156.33z M142.85,150.71
		h-15.74l-5.62-5.62h29.8v29.8l-5.62-5.62v-15.74C145.66,151.83,144.54,150.71,142.85,150.71z M190.64,139.46h-33.74v-33.74h33.74
		V139.46z M190.64,100.1h-33.74V66.36h33.74V100.1z M151.29,66.36v33.74h-33.74V66.36H151.29z M111.93,135.52l-10.12-10.12
		l10.12-10.12V135.52z M112.77,144.24l36.83,36.83l-4.78,3.37h-7.59c-0.84,0-1.41,0.28-1.97,0.84l-2.81,2.81l-15.18-30.08l-9-18.27
		L112.77,144.24z M190.65,218.18h-73.1v-11.25h73.1V218.18z M190.65,201.31h-73.1v-30.36L129.08,194c0.28,0.84,1.12,1.41,1.97,1.41
		h0.56c0.28,0,0.56,0,0.84-0.28h0.28c0.28,0,0.56-0.28,0.84-0.56l4.78-4.78h7.31c0.56,0,1.12-0.28,1.41-0.56l7.03-4.5l7.03,4.5
		c0.56,0.28,1.12,0.56,1.41,0.56h7.31l4.78,4.78c0.28,0.28,0.56,0.56,1.12,0.56h0.28c0.28,0,0.28,0,0.56,0.28h0.56
		c0.84-0.28,1.69-0.84,1.97-1.41l11.53-23.05V201.31z M190.93,157.73l-15.18,30.36l-2.81-2.81c-0.56-0.56-1.12-0.84-1.97-0.84h-7.59
		l-4.78-3.37l41.33-41.33L190.93,157.73z"/>
	<path d="M900.36,71.02c-5.54-6.82-14.98-9.01-22.96-5.34l-16.85,7.76c-6.4,2.95-12.43,6.7-17.9,11.15l-4.24,3.45
		c-5.56,1.88-10.79,4.73-15.39,8.47c-3.95,3.21-7.36,6.99-10.16,11.24l-1.15,1.75c-6.79,1.78-13.19,5-18.7,9.47
		c-3.93,3.19-7.33,6.95-10.11,11.18l-2.14,2.99c-1.1,0.68-2.17,1.41-3.17,2.22l-7.43,6.04c-5.57,4.53-9.62,10.74-11.59,17.63
		c-2.34,1.24-4.58,2.71-6.65,4.39c-6.67,5.42-11.41,12.66-13.71,20.94l-1.84,6.61c-1.81,6.51-0.34,13.53,3.92,18.77
		c3.52,4.33,8.52,7.03,14.07,7.6c0.73,0.08,1.46,0.11,2.18,0.11c4.78,0,9.38-1.63,13.14-4.68l93.07-75.65
		c14.92-12.13,27.78-26.47,38.21-42.62l0.6-0.94C906.12,86.57,905.63,77.5,900.36,71.02L900.36,71.02z M894.98,89.31l-0.6,0.94
		c-9.99,15.45-22.29,29.17-36.57,40.78l-93.07,75.65c-2.7,2.19-6.09,3.21-9.55,2.85c-3.46-0.36-6.57-2.04-8.77-4.74
		c-2.66-3.27-3.57-7.64-2.44-11.7l1.83-6.61c1.86-6.7,5.7-12.56,11.09-16.94c5.75-4.67,12.99-7.32,20.32-7.46l17.48,0
		c2.17,0,3.94-1.76,3.94-3.94s-1.76-3.94-3.94-3.94l-17.55,0c-2.88,0.05-5.73,0.42-8.52,1.06c1.67-2.95,3.86-5.61,6.51-7.76
		l7.43-6.04c3.73-3.03,8.43-4.8,13.24-4.97h21.09c2.17,0,3.94-1.76,3.94-3.94c0-2.17-1.76-3.94-3.94-3.94h-21.16
		c-0.04,0-0.09,0-0.13,0c-0.51,0.02-1.02,0.07-1.53,0.11c1.23-1.29,2.52-2.53,3.91-3.66c7.45-6.06,16.78-9.37,26.45-9.33h17.05
		c2.17,0,3.94-1.76,3.94-3.94c0-2.17-1.76-3.94-3.94-3.94h-17.04h-0.18c-0.56,0-1.11,0.02-1.66,0.04c1.64-1.92,3.42-3.7,5.38-5.29
		c7.41-6.02,16.74-9.33,26.3-9.33h0.15h17.05c2.17,0,3.94-1.76,3.94-3.94s-1.76-3.94-3.94-3.94H855c2.84-1.8,5.8-3.41,8.86-4.82
		l16.85-7.76c4.71-2.17,10.29-0.87,13.55,3.15C897.37,79.81,897.66,85.17,894.98,89.31L894.98,89.31z"/>
	<path d="M1230.9,90.2l-29.31-11.29c-1.91-0.73-3.96-0.84-5.89-0.36c-0.28-2.74-1.71-5.21-3.96-6.85c-2.41-1.74-5.45-2.29-8.33-1.48
		l-31.34,8.81c-1.47,0.42-2.78,1.13-3.86,2.13c-0.02,0.01-0.04,0.01-0.05,0.04l-0.06-0.1c-1.51-2.61-4.07-4.34-7.05-4.75
		c-0.88-0.12-1.74-0.12-2.6-0.02c-0.29,0.04-0.56,0.08-0.85,0.14c-0.36,0.07-0.73,0.18-1.08,0.3c-0.44,0.15-0.86,0.35-1.27,0.57
		c-0.21,0.09-0.43,0.21-0.63,0.35c-0.59,0.35-1.13,0.79-1.65,1.28l-33.55,32.17c-0.26,0.25-0.49,0.52-0.72,0.79l-0.02,0.01
		c-0.23,0.28-0.43,0.58-0.63,0.88c-0.21,0.32-0.39,0.63-0.56,0.95c-0.15,0.32-0.3,0.66-0.43,0.99c-0.5,1.36-0.71,2.84-0.54,4.34
		c0.3,2.98,1.91,5.61,4.44,7.23l0.1,0.07l7.74,5.01c0.08,0.05,0.18,0.1,0.26,0.15l20.29,13.16l9.17,5.92l2.92,1.89l12.87,8.32
		c0.19,0.14,0.39,0.25,0.6,0.36c-0.21-0.09-0.4-0.2-0.59-0.32l-1.83-1.19l-3.78-2.44c0.74,0.47,1.08,1.42,0.8,2.25l-2.95,9.11
		c-0.28,0.88-1.12,1.44-2.05,1.36l-9.62-0.79l-28.6-2.34l-8.56-0.7c-0.82-0.08-1.27-0.59-1.48-0.88c-0.19-0.3-0.48-0.91-0.23-1.7
		l10.09-30.96c0.12-0.37,0.31-0.62,0.51-0.81c0.24-0.25,0.52-0.37,0.72-0.44c0.27-0.1,0.76-0.21,1.33,0l-7.63-4.93
		c-1.04,1.04-1.82,2.34-2.3,3.78l-10.09,30.96c-0.91,2.84-0.5,5.9,1.16,8.39c1.52,2.32,3.93,3.83,6.67,4.23
		c-0.57,1.9-0.54,3.95,0.12,5.88l10.08,29.75c2.54,7.49,9.82,12.2,17.7,11.43c3.91-0.38,7.42-2.06,10.1-4.62
		c2.67-2.56,4.49-5.98,5.03-9.87l3.69-26.16c0.12-0.86,0.12-1.72,0.01-2.56l0.64,0.06c2.88,0.24,5.59-0.76,7.55-2.66
		c1.13-1.07,2.01-2.45,2.52-4.02l2.91-9l0.01-0.02c0.3,0.1,0.62,0.19,0.94,0.24c0.29,0.06,0.59,0.12,0.88,0.13
		c0.08,0.01,0.17,0.02,0.25,0.01c0.59,0.05,1.18,0.03,1.75-0.03c2.06-0.22,4.05-1.13,5.63-2.65l12.47-11.95
		c0.68-0.63,1.2-1.34,1.65-2.1c0.15-0.26,0.29-0.51,0.41-0.76l0.01-0.03c0.26-0.54,0.47-1.09,0.61-1.67
		c0.04-0.16,0.08-0.34,0.12-0.53l-0.01-0.02c0.08-0.36,0.14-0.7,0.17-1.08c0.02-0.23,0.04-0.46,0.02-0.68
		c0.01-0.84-0.09-1.69-0.28-2.52l0.02-0.01l9.09-2.53c1.59-0.44,3-1.27,4.13-2.34c1.97-1.88,3.08-4.56,2.96-7.44l-0.02-0.63
		c0.83,0.14,1.67,0.17,2.52,0.09l26.32-2.61c3.9-0.4,7.39-2.07,10.06-4.63c2.67-2.56,4.51-6.01,5.05-9.9
		C1242.67,100.52,1238.28,93.05,1230.9,90.2L1230.9,90.2z M1135.55,179.07l-3.7,26.18c-0.59,4.21-3.97,7.46-8.21,7.88
		c-4.28,0.42-8.23-2.14-9.62-6.21l-10.08-29.75c-0.29-0.88,0.07-1.54,0.32-1.85c0.04-0.05,0.11-0.15,0.19-0.21
		c0.29-0.28,0.74-0.57,1.42-0.54c0.04-0.01,0.06,0,0.1,0l27.78,2.26c0.03,0.01,0.04,0.01,0.07,0.02c0.7,0.08,1.11,0.48,1.32,0.72
		c0.11,0.12,0.24,0.32,0.33,0.6C1135.55,178.39,1135.6,178.7,1135.55,179.07L1135.55,179.07z M1173.42,142.14l-12.47,11.95
		l-0.01,0.03c-0.68,0.63-1.67,0.71-2.43,0.23l-0.01-0.02l-5.58-3.59l-8.72-5.65l-31.72-20.51l-0.18-0.1l-7.21-4.67
		c-0.69-0.45-0.86-1.1-0.88-1.46c-0.02-0.18-0.02-0.46,0.08-0.75c0.01-0.08,0.05-0.16,0.08-0.23c0.03-0.09,0.06-0.16,0.11-0.22
		c0.07-0.15,0.18-0.29,0.32-0.42l33.55-32.19c0.11-0.1,0.23-0.2,0.35-0.27c0.07-0.04,0.12-0.06,0.17-0.08
		c0.26-0.13,0.51-0.18,0.73-0.2c0.15-0.03,0.3-0.02,0.41,0c0.36,0.04,1.02,0.23,1.44,0.94l4.4,7.46l18.19,30.84l2.72,4.61l3.63,6.15
		l2.26,3.85l1.1,1.88C1174.21,140.51,1174.07,141.49,1173.42,142.14L1173.42,142.14z M1189.51,116.22l0.25,6.22l0.17,3.94
		c0.04,0.92-0.55,1.74-1.44,2l-9.21,2.57c-0.84,0.23-1.73-0.1-2.2-0.83c-0.01-0.02-0.04-0.05-0.04-0.07l-9.26-15.69l-14.76-24.99
		c-0.09-0.13-0.13-0.26-0.17-0.37c-0.21-0.58-0.08-1.08,0.03-1.36c0.08-0.19,0.22-0.47,0.47-0.7c0.2-0.19,0.48-0.37,0.83-0.48
		l31.35-8.81c0.8-0.22,1.4,0.09,1.7,0.32c0.28,0.21,0.77,0.68,0.81,1.49l0.36,8.9L1189.51,116.22z M1233.92,107.28
		c-0.59,4.23-3.97,7.47-8.21,7.9l-26.3,2.61c-0.75,0.08-1.25-0.25-1.49-0.47c-0.21-0.19-0.59-0.61-0.67-1.25
		c0-0.06-0.01-0.1-0.02-0.16l-1.11-27.85c-0.01-0.02,0.01-0.04,0-0.06c-0.01-0.9,0.5-1.4,0.83-1.62c0.31-0.23,0.98-0.57,1.85-0.25
		l29.31,11.31C1232.12,98.98,1234.51,103.03,1233.92,107.28L1233.92,107.28z"/>
	<g>
		<g>
			<path d="M410.11,270.61L410.11,270.61c-0.61,0.77-0.48,1.89,0.28,2.5c0.77,0.61,1.89,0.49,2.51-0.28
				c3.78-4.73,1.96-8.4-1.33-13.98c-0.77-1.06-1.1-2.38-0.91-3.68c0.19-1.3,0.87-2.47,1.91-3.28c0.79-0.59,0.95-1.69,0.37-2.49
				c-0.58-0.79-1.69-0.97-2.48-0.39c-1.76,1.32-2.94,3.26-3.31,5.43c-0.37,2.17,0.12,4.4,1.35,6.22
				C411.98,266.6,412.21,267.99,410.11,270.61z"/>
			<path d="M423.35,270.61L423.35,270.61c-0.61,0.77-0.48,1.89,0.28,2.5c0.77,0.61,1.89,0.49,2.51-0.28
				c3.78-4.73,1.96-8.39-1.33-13.98c-0.77-1.06-1.1-2.38-0.91-3.68c0.19-1.3,0.87-2.47,1.91-3.28c0.79-0.58,0.96-1.7,0.37-2.49
				c-0.58-0.79-1.69-0.97-2.48-0.39c-1.76,1.32-2.94,3.26-3.31,5.43c-0.37,2.17,0.12,4.4,1.35,6.22
				C425.22,266.6,425.45,267.99,423.35,270.61z"/>
			<path d="M436.59,270.61L436.59,270.61c-0.61,0.77-0.49,1.89,0.28,2.51c0.77,0.61,1.89,0.49,2.51-0.28
				c3.79-4.73,1.96-8.39-1.33-13.98c-0.77-1.06-1.1-2.38-0.91-3.68c0.19-1.3,0.87-2.47,1.91-3.28c0.8-0.58,0.97-1.7,0.39-2.49
				c-0.58-0.8-1.7-0.97-2.49-0.39c-1.76,1.32-2.94,3.26-3.31,5.43c-0.37,2.17,0.12,4.39,1.35,6.22
				C438.46,266.6,438.69,267.99,436.59,270.61z"/>
			<path class="st1" d="M454.16,288.6v-6.69h-59.77v6.69c0,6.25,1.96,12.33,5.6,17.41c3.64,5.07,8.78,8.88,14.69,10.89
				s12.31,2.11,18.29,0.3s11.24-5.45,15.04-10.4l0-0.01c3.51-4.53,5.61-9.99,6.05-15.7C454.13,290.27,454.16,289.44,454.16,288.6z"
				/>
			<path d="M459.86,283.18h-2.13v-3.06c0-0.47-0.19-0.93-0.52-1.26c-0.33-0.34-0.79-0.52-1.26-0.52H392.6
				c-0.47,0-0.93,0.19-1.26,0.52c-0.34,0.33-0.52,0.79-0.52,1.26v8.48c0.01,8.87,3.54,17.37,9.81,23.65
				c6.27,6.27,14.78,9.8,23.65,9.81l0,0c4.99,0.02,9.91-1.08,14.42-3.23c4.5-2.14,8.46-5.28,11.58-9.16h5.39
				c4.05,0,7.94-1.62,10.81-4.48s4.48-6.75,4.48-10.81c0.01-2.96-1.15-5.79-3.24-7.89C465.64,284.39,462.81,283.2,459.86,283.18z
				 M448.01,306.79L448.01,306.79c-3.81,4.96-9.07,8.6-15.04,10.41s-12.37,1.71-18.29-0.3s-11.05-5.82-14.69-10.89
				c-3.64-5.08-5.6-11.16-5.6-17.41v-6.69h59.77v6.69c0,0.84-0.03,1.67-0.1,2.49C453.62,296.8,451.52,302.26,448.01,306.79z
				 M463.95,302.66c-2.2,2.2-5.18,3.43-8.29,3.44h-2.84c0.24-0.4,0.46-0.8,0.69-1.21c0.12-0.21,0.25-0.42,0.36-0.64
				c0.39-0.74,0.76-1.5,1.1-2.27c0.06-0.13,0.1-0.27,0.16-0.4c0.27-0.64,0.52-1.29,0.75-1.96c0.09-0.27,0.17-0.54,0.26-0.81
				c0.17-0.54,0.33-1.07,0.47-1.62c0.08-0.31,0.15-0.61,0.22-0.92c0.12-0.53,0.23-1.06,0.33-1.6c0.06-0.31,0.11-0.62,0.16-0.93
				c0.09-0.58,0.15-1.16,0.21-1.74c0.03-0.27,0.06-0.54,0.08-0.82c0.06-0.86,0.1-1.72,0.1-2.59v-1.85h2.13
				c2,0.04,3.91,0.86,5.31,2.28c1.41,1.42,2.2,3.34,2.22,5.34C467.38,297.48,466.15,300.46,463.95,302.66z"/>
		</g>
		<g>
			<path d="M500.79,270.61L500.79,270.61c-0.61,0.77-0.48,1.89,0.28,2.5c0.77,0.61,1.89,0.49,2.51-0.28
				c3.78-4.73,1.96-8.4-1.33-13.98c-0.77-1.06-1.1-2.38-0.91-3.68c0.19-1.3,0.87-2.47,1.91-3.28c0.79-0.59,0.95-1.69,0.37-2.49
				c-0.58-0.79-1.69-0.97-2.48-0.39c-1.76,1.32-2.94,3.26-3.31,5.43c-0.37,2.17,0.12,4.4,1.35,6.22
				C502.67,266.6,502.89,267.99,500.79,270.61z"/>
			<path d="M514.04,270.61L514.04,270.61c-0.61,0.77-0.48,1.89,0.28,2.5c0.77,0.61,1.89,0.49,2.51-0.28
				c3.78-4.73,1.96-8.39-1.33-13.98c-0.77-1.06-1.1-2.38-0.91-3.68c0.19-1.3,0.87-2.47,1.91-3.28c0.79-0.58,0.96-1.7,0.37-2.49
				c-0.58-0.79-1.69-0.97-2.48-0.39c-1.76,1.32-2.94,3.26-3.31,5.43c-0.37,2.17,0.12,4.4,1.35,6.22
				C515.91,266.6,516.13,267.99,514.04,270.61z"/>
			<path d="M527.27,270.61L527.27,270.61c-0.61,0.77-0.49,1.89,0.28,2.51c0.77,0.61,1.89,0.49,2.51-0.28
				c3.79-4.73,1.96-8.39-1.33-13.98c-0.77-1.06-1.1-2.38-0.91-3.68c0.19-1.3,0.87-2.47,1.91-3.28c0.8-0.58,0.97-1.7,0.39-2.49
				c-0.58-0.8-1.7-0.97-2.49-0.39c-1.76,1.32-2.94,3.26-3.31,5.43c-0.37,2.17,0.12,4.39,1.35,6.22
				C529.15,266.6,529.37,267.99,527.27,270.61z"/>
			<path class="st1" d="M485.07,285.51v3.09c0,6.25,1.96,12.33,5.6,17.41c3.64,5.07,8.78,8.88,14.69,10.89s12.31,2.11,18.29,0.3
				s11.24-5.45,15.04-10.4l0-0.01c3.51-4.53,5.61-9.99,6.05-15.7c0.07-0.82,0.1-1.65,0.1-2.49v-3.09"/>
			<path d="M550.54,283.18h-2.13v-3.06c0-0.47-0.19-0.93-0.52-1.26c-0.33-0.34-0.79-0.52-1.26-0.52h-63.34
				c-0.47,0-0.93,0.19-1.26,0.52c-0.34,0.33-0.52,0.79-0.52,1.26v8.48c0.01,8.87,3.54,17.37,9.81,23.65
				c6.27,6.27,14.78,9.8,23.65,9.81l0,0c4.99,0.02,9.91-1.08,14.42-3.23c4.5-2.14,8.46-5.28,11.58-9.16h5.39
				c4.05,0,7.94-1.62,10.81-4.48c2.87-2.87,4.48-6.75,4.48-10.81c0.01-2.96-1.15-5.79-3.24-7.89
				C556.32,284.39,553.49,283.2,550.54,283.18z M544.84,285.51v3.09c0,0.84-0.03,1.67-0.1,2.49c-0.44,5.71-2.55,11.17-6.05,15.7
				l0,0.01c-3.8,4.95-9.06,8.59-15.04,10.4s-12.37,1.71-18.29-0.3s-11.05-5.82-14.69-10.89c-3.64-5.08-5.6-11.16-5.6-17.41v-3.09
				 M485.07,285.51v-3.6h59.77v3.6 M554.63,302.66c-2.2,2.2-5.18,3.43-8.29,3.44h-2.84c0.24-0.4,0.46-0.8,0.69-1.21
				c0.12-0.21,0.25-0.42,0.36-0.64c0.39-0.74,0.76-1.5,1.1-2.27c0.06-0.13,0.1-0.27,0.16-0.4c0.27-0.64,0.52-1.29,0.75-1.96
				c0.09-0.27,0.17-0.54,0.26-0.81c0.17-0.54,0.33-1.07,0.47-1.62c0.08-0.31,0.15-0.61,0.22-0.92c0.12-0.53,0.23-1.06,0.33-1.6
				c0.06-0.31,0.11-0.62,0.16-0.93c0.09-0.58,0.15-1.16,0.21-1.74c0.03-0.27,0.06-0.54,0.08-0.82c0.06-0.86,0.1-1.72,0.1-2.59v-1.85
				h2.13c2,0.04,3.91,0.86,5.31,2.28c1.41,1.42,2.2,3.34,2.22,5.34C558.07,297.48,556.83,300.46,554.63,302.66z"/>
		</g>
	</g>
	<g>
		<g>
			<path d="M755.14,270.51L755.14,270.51c-0.61,0.77-0.48,1.89,0.28,2.5c0.77,0.61,1.89,0.49,2.51-0.28
				c3.78-4.73,1.96-8.4-1.33-13.98c-0.77-1.06-1.1-2.38-0.91-3.68s0.87-2.47,1.91-3.28c0.79-0.59,0.95-1.69,0.37-2.49
				c-0.58-0.79-1.69-0.97-2.48-0.39c-1.76,1.32-2.94,3.26-3.31,5.43c-0.37,2.17,0.12,4.4,1.35,6.22
				C757.02,266.49,757.24,267.88,755.14,270.51z"/>
			<path d="M768.39,270.51L768.39,270.51c-0.61,0.77-0.48,1.89,0.28,2.5c0.77,0.61,1.89,0.49,2.51-0.28
				c3.78-4.73,1.96-8.39-1.33-13.98c-0.77-1.06-1.1-2.38-0.91-3.68s0.87-2.47,1.91-3.28c0.79-0.58,0.96-1.7,0.37-2.49
				c-0.58-0.79-1.69-0.97-2.48-0.39c-1.76,1.32-2.94,3.26-3.31,5.43c-0.37,2.17,0.12,4.4,1.35,6.22
				C770.26,266.49,770.48,267.89,768.39,270.51z"/>
			<path d="M781.63,270.51L781.63,270.51c-0.61,0.77-0.49,1.89,0.28,2.51c0.77,0.61,1.89,0.49,2.51-0.28
				c3.79-4.73,1.96-8.39-1.33-13.98c-0.77-1.06-1.1-2.38-0.91-3.68c0.19-1.3,0.87-2.47,1.91-3.28c0.8-0.58,0.97-1.7,0.39-2.49
				c-0.58-0.8-1.7-0.97-2.49-0.39c-1.76,1.32-2.94,3.26-3.31,5.43c-0.37,2.17,0.12,4.39,1.35,6.22
				C783.5,266.49,783.72,267.89,781.63,270.51z"/>
			<path class="st1" d="M799.19,288.5v-6.69h-59.77v6.69c0,6.25,1.96,12.33,5.6,17.41c3.64,5.07,8.78,8.88,14.69,10.89
				c5.91,2.01,12.31,2.11,18.29,0.3s11.24-5.45,15.04-10.4l0-0.01c3.51-4.53,5.61-9.99,6.05-15.7
				C799.16,290.16,799.19,289.33,799.19,288.5z"/>
			<path d="M804.89,283.08h-2.13v-3.06c0-0.47-0.19-0.93-0.52-1.26s-0.79-0.52-1.26-0.52h-63.34c-0.47,0-0.93,0.19-1.26,0.52
				c-0.34,0.34-0.52,0.79-0.52,1.26v8.48c0.01,8.87,3.54,17.37,9.81,23.65c6.27,6.27,14.78,9.8,23.65,9.81l0,0
				c4.99,0.02,9.91-1.08,14.41-3.23c4.5-2.14,8.46-5.28,11.58-9.16h5.39c4.05,0,7.94-1.62,10.81-4.48
				c2.87-2.87,4.48-6.75,4.48-10.81c0.01-2.96-1.15-5.79-3.24-7.89C810.67,284.28,807.84,283.09,804.89,283.08z M793.04,306.68
				L793.04,306.68c-3.81,4.96-9.07,8.6-15.04,10.41s-12.37,1.71-18.29-0.3c-5.91-2.01-11.05-5.82-14.69-10.89
				c-3.64-5.08-5.6-11.16-5.6-17.41v-6.69h59.77v6.69c0,0.84-0.03,1.67-0.1,2.49C798.65,296.7,796.55,302.15,793.04,306.68z
				 M808.98,302.56c-2.2,2.2-5.18,3.43-8.29,3.44h-2.84c0.24-0.4,0.46-0.8,0.69-1.21c0.12-0.21,0.25-0.42,0.36-0.64
				c0.39-0.74,0.76-1.5,1.1-2.27c0.06-0.13,0.1-0.27,0.16-0.4c0.27-0.64,0.52-1.29,0.75-1.96c0.09-0.27,0.17-0.54,0.26-0.81
				c0.17-0.54,0.33-1.07,0.47-1.62c0.08-0.31,0.15-0.61,0.22-0.92c0.12-0.53,0.23-1.06,0.33-1.6c0.06-0.31,0.11-0.62,0.16-0.93
				c0.09-0.58,0.15-1.16,0.21-1.74c0.03-0.27,0.06-0.54,0.08-0.82c0.06-0.86,0.1-1.72,0.1-2.59v-1.85h2.13
				c2,0.04,3.91,0.86,5.31,2.28c1.41,1.42,2.2,3.34,2.22,5.34C812.42,297.38,811.18,300.36,808.98,302.56z"/>
		</g>
		<g>
			<path d="M845.83,270.51L845.83,270.51c-0.61,0.77-0.48,1.89,0.28,2.5c0.77,0.61,1.89,0.49,2.51-0.28
				c3.78-4.73,1.96-8.4-1.33-13.98c-0.77-1.06-1.1-2.38-0.91-3.68s0.87-2.47,1.91-3.28c0.79-0.59,0.95-1.69,0.37-2.49
				c-0.58-0.79-1.69-0.97-2.48-0.39c-1.76,1.32-2.94,3.26-3.31,5.43c-0.37,2.17,0.12,4.4,1.35,6.22
				C847.7,266.49,847.93,267.88,845.83,270.51z"/>
			<path d="M859.07,270.51L859.07,270.51c-0.61,0.77-0.48,1.89,0.28,2.5c0.77,0.61,1.89,0.49,2.51-0.28
				c3.78-4.73,1.96-8.39-1.33-13.98c-0.77-1.06-1.1-2.38-0.91-3.68s0.87-2.47,1.91-3.28c0.79-0.58,0.96-1.7,0.37-2.49
				c-0.58-0.79-1.69-0.97-2.48-0.39c-1.76,1.32-2.94,3.26-3.31,5.43c-0.37,2.17,0.12,4.4,1.35,6.22
				C860.94,266.49,861.17,267.89,859.07,270.51z"/>
			<path d="M872.31,270.51L872.31,270.51c-0.61,0.77-0.49,1.89,0.28,2.51c0.77,0.61,1.89,0.49,2.51-0.28
				c3.79-4.73,1.96-8.39-1.33-13.98c-0.77-1.06-1.1-2.38-0.91-3.68c0.19-1.3,0.87-2.47,1.91-3.28c0.8-0.58,0.97-1.7,0.39-2.49
				c-0.58-0.8-1.7-0.97-2.49-0.39c-1.76,1.32-2.94,3.26-3.31,5.43c-0.37,2.17,0.12,4.39,1.35,6.22
				C874.18,266.49,874.41,267.89,872.31,270.51z"/>
			<path class="st1" d="M832.56,300.34c0.84,1.95,1.9,3.81,3.15,5.56c3.64,5.07,8.78,8.88,14.69,10.89
				c5.91,2.01,12.31,2.11,18.29,0.3s11.24-5.45,15.04-10.4l0-0.01c1.57-2.03,2.86-4.25,3.85-6.59"/>
			<path d="M895.57,283.08h-2.13v-3.06c0-0.47-0.19-0.93-0.52-1.26s-0.79-0.52-1.26-0.52h-63.34c-0.47,0-0.93,0.19-1.26,0.52
				c-0.34,0.34-0.52,0.79-0.52,1.26v8.48c0.01,8.87,3.54,17.37,9.81,23.65c6.27,6.27,14.78,9.8,23.65,9.81l0,0
				c4.99,0.02,9.91-1.08,14.42-3.23c4.5-2.14,8.46-5.28,11.58-9.16h5.39c4.05,0,7.94-1.62,10.81-4.48
				c2.87-2.87,4.48-6.75,4.48-10.81c0.01-2.96-1.15-5.79-3.24-7.89C901.36,284.28,898.53,283.09,895.57,283.08z M832.56,300.34
				c-1.61-3.72-2.45-7.75-2.46-11.85v-6.69h59.77v6.69c0,0.84-0.03,1.67-0.1,2.49c-0.44,5.71-2.55,11.17-6.05,15.7l0,0.01
				c-3.8,4.95-9.06,8.59-15.04,10.4s-12.37,1.71-18.29-0.3c-5.91-2.01-11.05-5.82-14.69-10.89
				C834.46,304.16,833.4,302.29,832.56,300.34 M899.67,302.56c-2.2,2.2-5.18,3.43-8.29,3.44h-2.84c0.24-0.4,0.46-0.8,0.69-1.21
				c0.12-0.21,0.25-0.42,0.36-0.64c0.39-0.74,0.76-1.5,1.1-2.27c0.06-0.13,0.1-0.27,0.16-0.4c0.27-0.64,0.52-1.29,0.75-1.96
				c0.09-0.27,0.17-0.54,0.26-0.81c0.17-0.54,0.33-1.07,0.47-1.62c0.08-0.31,0.15-0.61,0.22-0.92c0.12-0.53,0.23-1.06,0.33-1.6
				c0.06-0.31,0.11-0.62,0.16-0.93c0.09-0.58,0.15-1.16,0.21-1.74c0.03-0.27,0.06-0.54,0.08-0.82c0.06-0.86,0.1-1.72,0.1-2.59v-1.85
				h2.13c2,0.04,3.91,0.86,5.31,2.28c1.41,1.42,2.2,3.34,2.22,5.34C903.1,297.38,901.86,300.36,899.67,302.56z"/>
		</g>
	</g>
	<g>
		<g>
			<path d="M1098.74,270.3L1098.74,270.3c-0.61,0.77-0.48,1.89,0.28,2.5c0.77,0.61,1.89,0.49,2.51-0.28
				c3.78-4.73,1.96-8.4-1.33-13.98c-0.77-1.06-1.1-2.38-0.91-3.68s0.87-2.47,1.91-3.28c0.79-0.59,0.95-1.69,0.37-2.49
				c-0.58-0.79-1.69-0.97-2.48-0.39c-1.76,1.32-2.94,3.26-3.31,5.43c-0.37,2.17,0.12,4.4,1.35,6.22
				C1100.62,266.28,1100.84,267.67,1098.74,270.3z"/>
			<path d="M1111.99,270.3L1111.99,270.3c-0.61,0.77-0.48,1.89,0.28,2.5c0.77,0.61,1.89,0.49,2.51-0.28
				c3.78-4.73,1.96-8.39-1.33-13.98c-0.77-1.06-1.1-2.38-0.91-3.68s0.87-2.47,1.91-3.28c0.79-0.58,0.96-1.7,0.37-2.49
				c-0.58-0.79-1.69-0.97-2.48-0.39c-1.76,1.32-2.94,3.26-3.31,5.43c-0.37,2.17,0.12,4.4,1.35,6.22
				C1113.86,266.28,1114.08,267.67,1111.99,270.3z"/>
			<path d="M1125.22,270.3L1125.22,270.3c-0.61,0.77-0.49,1.89,0.28,2.51c0.77,0.61,1.89,0.49,2.51-0.28
				c3.79-4.73,1.96-8.39-1.33-13.98c-0.77-1.06-1.1-2.38-0.91-3.68c0.19-1.3,0.87-2.47,1.91-3.28c0.8-0.58,0.97-1.7,0.39-2.49
				c-0.58-0.8-1.7-0.97-2.49-0.39c-1.76,1.32-2.94,3.26-3.31,5.43c-0.37,2.17,0.12,4.39,1.35,6.22
				C1127.1,266.28,1127.32,267.67,1125.22,270.3z"/>
			<path class="st1" d="M1142.79,288.28v-6.69h-59.77v6.69c0,6.25,1.96,12.33,5.6,17.41c3.64,5.07,8.78,8.88,14.69,10.89
				s12.31,2.11,18.29,0.3s11.24-5.45,15.04-10.4l0-0.01c3.51-4.53,5.61-9.99,6.05-15.7
				C1142.76,289.95,1142.79,289.12,1142.79,288.28z"/>
			<path d="M1148.49,282.86h-2.13v-3.06c0-0.47-0.19-0.93-0.52-1.26s-0.79-0.52-1.26-0.52h-63.34c-0.47,0-0.93,0.19-1.26,0.52
				c-0.33,0.34-0.52,0.79-0.52,1.26v8.48c0.01,8.87,3.54,17.37,9.81,23.65c6.27,6.27,14.78,9.8,23.65,9.81l0,0
				c4.99,0.02,9.91-1.08,14.41-3.23c4.5-2.14,8.46-5.28,11.58-9.16h5.39c4.05,0,7.94-1.62,10.81-4.48
				c2.87-2.87,4.48-6.75,4.48-10.81c0.01-2.96-1.15-5.79-3.24-7.89C1154.27,284.07,1151.44,282.88,1148.49,282.86z M1136.64,306.47
				L1136.64,306.47c-3.81,4.96-9.07,8.6-15.04,10.41s-12.37,1.71-18.29-0.3c-5.91-2.01-11.05-5.82-14.69-10.89
				c-3.64-5.08-5.6-11.16-5.6-17.41v-6.69h59.77v6.69c0,0.84-0.03,1.67-0.1,2.49C1142.25,296.48,1140.15,301.94,1136.64,306.47z
				 M1152.58,302.34c-2.2,2.2-5.18,3.43-8.29,3.44h-2.84c0.24-0.4,0.46-0.8,0.69-1.21c0.12-0.21,0.25-0.42,0.36-0.64
				c0.39-0.74,0.76-1.5,1.1-2.27c0.06-0.13,0.1-0.27,0.16-0.4c0.27-0.64,0.52-1.29,0.75-1.96c0.09-0.27,0.17-0.54,0.26-0.81
				c0.17-0.54,0.33-1.07,0.47-1.62c0.08-0.31,0.15-0.61,0.22-0.92c0.12-0.53,0.23-1.06,0.33-1.6c0.06-0.31,0.11-0.62,0.16-0.93
				c0.09-0.58,0.15-1.16,0.21-1.74c0.03-0.27,0.06-0.54,0.08-0.82c0.06-0.86,0.1-1.72,0.1-2.59v-1.85h2.13
				c2,0.04,3.91,0.86,5.31,2.28c1.41,1.42,2.2,3.34,2.22,5.34C1156.02,297.17,1154.78,300.14,1152.58,302.34z"/>
		</g>
		<g>
			<path d="M1189.43,270.3L1189.43,270.3c-0.61,0.77-0.48,1.89,0.28,2.5c0.77,0.61,1.89,0.49,2.51-0.28
				c3.78-4.73,1.96-8.4-1.33-13.98c-0.77-1.06-1.1-2.38-0.91-3.68s0.87-2.47,1.91-3.28c0.79-0.59,0.95-1.69,0.37-2.49
				c-0.58-0.79-1.69-0.97-2.48-0.39c-1.76,1.32-2.94,3.26-3.31,5.43c-0.37,2.17,0.12,4.4,1.35,6.22
				C1191.3,266.28,1191.53,267.67,1189.43,270.3z"/>
			<path d="M1202.67,270.3L1202.67,270.3c-0.61,0.77-0.48,1.89,0.28,2.5c0.77,0.61,1.89,0.49,2.51-0.28
				c3.78-4.73,1.96-8.39-1.33-13.98c-0.77-1.06-1.1-2.38-0.91-3.68c0.19-1.3,0.87-2.47,1.91-3.28c0.79-0.58,0.96-1.7,0.37-2.49
				c-0.58-0.79-1.69-0.97-2.48-0.39c-1.76,1.32-2.94,3.26-3.31,5.43c-0.37,2.17,0.12,4.4,1.35,6.22
				C1204.54,266.28,1204.77,267.67,1202.67,270.3z"/>
			<path d="M1215.91,270.3L1215.91,270.3c-0.61,0.77-0.49,1.89,0.28,2.51c0.77,0.61,1.89,0.49,2.51-0.28
				c3.79-4.73,1.96-8.39-1.33-13.98c-0.77-1.06-1.1-2.38-0.91-3.68c0.19-1.3,0.87-2.47,1.91-3.28c0.8-0.58,0.97-1.7,0.39-2.49
				c-0.58-0.8-1.7-0.97-2.49-0.39c-1.76,1.32-2.94,3.26-3.31,5.43c-0.37,2.17,0.12,4.39,1.35,6.22
				C1217.78,266.28,1218.01,267.67,1215.91,270.3z"/>
			<path class="st1" d="M1183.99,310.84c2.91,2.53,6.31,4.49,10,5.74c5.91,2.01,12.31,2.11,18.29,0.3c4.05-1.23,7.77-3.3,10.94-6.04
				"/>
			<path d="M1239.17,282.86h-2.13v-3.06c0-0.47-0.19-0.93-0.52-1.26s-0.79-0.52-1.26-0.52h-63.34c-0.47,0-0.93,0.19-1.26,0.52
				c-0.33,0.34-0.52,0.79-0.52,1.26v8.48c0.01,8.87,3.54,17.37,9.81,23.65c6.27,6.27,14.78,9.8,23.65,9.81l0,0
				c4.99,0.02,9.91-1.08,14.41-3.23c4.5-2.14,8.46-5.28,11.58-9.16h5.39c4.05,0,7.94-1.62,10.81-4.48
				c2.87-2.87,4.48-6.75,4.48-10.81c0.01-2.96-1.15-5.79-3.24-7.89C1244.95,284.07,1242.13,282.88,1239.17,282.86z M1176.16,300.13
				c-1.61-3.72-2.45-7.75-2.46-11.85v-6.69h59.77v6.69c0,0.84-0.03,1.67-0.1,2.49c-0.44,5.71-2.55,11.17-6.05,15.7l0,0.01
				c-3.8,4.95-9.06,8.59-15.04,10.4s-12.37,1.71-18.29-0.3c-5.91-2.01-11.05-5.82-14.69-10.89
				C1178.05,303.95,1177,302.08,1176.16,300.13 M1243.27,302.34c-2.2,2.2-5.18,3.43-8.29,3.44h-2.84c0.24-0.4,0.46-0.8,0.69-1.21
				c0.12-0.21,0.25-0.42,0.36-0.64c0.39-0.74,0.76-1.5,1.1-2.27c0.06-0.13,0.1-0.27,0.16-0.4c0.27-0.64,0.52-1.29,0.75-1.96
				c0.09-0.27,0.17-0.54,0.26-0.81c0.17-0.54,0.33-1.07,0.47-1.62c0.08-0.31,0.15-0.61,0.22-0.92c0.12-0.53,0.23-1.06,0.33-1.6
				c0.06-0.31,0.11-0.62,0.16-0.93c0.09-0.58,0.15-1.16,0.21-1.74c0.03-0.27,0.06-0.54,0.08-0.82c0.06-0.86,0.1-1.72,0.1-2.59v-1.85
				h2.13c2,0.04,3.91,0.86,5.31,2.28c1.41,1.42,2.2,3.34,2.22,5.34C1246.7,297.17,1245.46,300.14,1243.27,302.34z"/>
		</g>
	</g>
	<g>
		<g>
			<path d="M92.99,270.39L92.99,270.39c-0.61,0.77-0.48,1.89,0.28,2.5c0.77,0.61,1.89,0.49,2.51-0.28c3.78-4.73,1.96-8.4-1.33-13.98
				c-0.77-1.06-1.1-2.38-0.91-3.68c0.19-1.3,0.87-2.47,1.91-3.28c0.79-0.59,0.95-1.69,0.37-2.49c-0.58-0.79-1.69-0.97-2.48-0.39
				c-1.76,1.32-2.94,3.26-3.31,5.43c-0.37,2.17,0.12,4.4,1.35,6.22C94.87,266.38,95.09,267.77,92.99,270.39z"/>
			<path d="M106.24,270.39L106.24,270.39c-0.61,0.77-0.48,1.89,0.28,2.5c0.77,0.61,1.89,0.49,2.51-0.28
				c3.78-4.73,1.96-8.39-1.33-13.98c-0.77-1.06-1.1-2.38-0.91-3.68c0.19-1.3,0.87-2.47,1.91-3.28c0.79-0.58,0.96-1.7,0.37-2.49
				c-0.58-0.79-1.69-0.97-2.48-0.39c-1.76,1.32-2.94,3.26-3.31,5.43c-0.37,2.17,0.12,4.4,1.35,6.22
				C108.11,266.38,108.33,267.77,106.24,270.39z"/>
			<path d="M119.47,270.39L119.47,270.39c-0.61,0.77-0.49,1.89,0.28,2.51c0.77,0.61,1.89,0.49,2.51-0.28
				c3.79-4.73,1.96-8.39-1.33-13.98c-0.77-1.06-1.1-2.38-0.91-3.68c0.19-1.3,0.87-2.47,1.91-3.28c0.8-0.58,0.97-1.7,0.39-2.49
				c-0.58-0.8-1.7-0.97-2.49-0.39c-1.76,1.32-2.94,3.26-3.31,5.43c-0.37,2.17,0.12,4.39,1.35,6.22
				C121.35,266.38,121.57,267.77,119.47,270.39z"/>
			<path class="st1" d="M137.04,288.38v-6.69H77.27v6.69c0,6.25,1.96,12.33,5.6,17.41c3.64,5.07,8.78,8.88,14.69,10.89
				c5.91,2.01,12.31,2.11,18.29,0.3c5.98-1.81,11.24-5.45,15.04-10.4l0-0.01c3.51-4.53,5.61-9.99,6.05-15.7
				C137.01,290.05,137.04,289.22,137.04,288.38z"/>
			<path d="M142.74,282.96h-2.13v-3.06c0-0.47-0.19-0.93-0.52-1.26c-0.33-0.33-0.79-0.52-1.26-0.52H75.49
				c-0.47,0-0.93,0.19-1.26,0.52c-0.34,0.34-0.52,0.79-0.52,1.26v8.48c0.01,8.87,3.54,17.37,9.81,23.65
				c6.27,6.27,14.78,9.8,23.65,9.81l0,0c4.99,0.02,9.91-1.08,14.42-3.23c4.5-2.14,8.46-5.28,11.58-9.16h5.39
				c4.05,0,7.94-1.62,10.81-4.48s4.48-6.75,4.48-10.81c0.01-2.96-1.15-5.79-3.24-7.89C148.52,284.17,145.69,282.98,142.74,282.96z
				 M130.89,306.57L130.89,306.57c-3.81,4.96-9.07,8.6-15.04,10.41c-5.98,1.81-12.37,1.71-18.29-0.3
				c-5.91-2.01-11.05-5.82-14.69-10.89c-3.64-5.08-5.6-11.16-5.6-17.41v-6.69h59.77v6.69c0,0.84-0.03,1.67-0.1,2.49
				C136.5,296.58,134.4,302.04,130.89,306.57z M146.83,302.44c-2.2,2.2-5.18,3.43-8.29,3.44h-2.84c0.24-0.4,0.46-0.8,0.69-1.21
				c0.12-0.21,0.25-0.42,0.36-0.64c0.39-0.74,0.76-1.5,1.1-2.27c0.06-0.13,0.1-0.27,0.16-0.4c0.27-0.64,0.52-1.29,0.75-1.96
				c0.09-0.27,0.17-0.54,0.26-0.81c0.17-0.54,0.33-1.07,0.47-1.62c0.08-0.31,0.15-0.61,0.22-0.92c0.12-0.53,0.23-1.06,0.33-1.6
				c0.06-0.31,0.11-0.62,0.16-0.93c0.09-0.58,0.15-1.16,0.21-1.74c0.03-0.27,0.06-0.54,0.08-0.82c0.06-0.86,0.1-1.72,0.1-2.59v-1.85
				h2.13c2,0.04,3.91,0.86,5.31,2.28c1.41,1.42,2.2,3.34,2.22,5.34C150.27,297.26,149.03,300.24,146.83,302.44z"/>
		</g>
		<g>
			<path d="M183.68,270.39L183.68,270.39c-0.61,0.77-0.48,1.89,0.28,2.5c0.77,0.61,1.89,0.49,2.51-0.28
				c3.78-4.73,1.96-8.4-1.33-13.98c-0.77-1.06-1.1-2.38-0.91-3.68c0.19-1.3,0.87-2.47,1.91-3.28c0.79-0.59,0.95-1.69,0.37-2.49
				c-0.58-0.79-1.69-0.97-2.48-0.39c-1.76,1.32-2.94,3.26-3.31,5.43c-0.37,2.17,0.12,4.4,1.35,6.22
				C185.55,266.38,185.78,267.77,183.68,270.39z"/>
			<path d="M196.92,270.39L196.92,270.39c-0.61,0.77-0.48,1.89,0.28,2.5c0.77,0.61,1.89,0.49,2.51-0.28
				c3.78-4.73,1.96-8.39-1.33-13.98c-0.77-1.06-1.1-2.38-0.91-3.68c0.19-1.3,0.87-2.47,1.91-3.28c0.79-0.58,0.96-1.7,0.37-2.49
				c-0.58-0.79-1.69-0.97-2.48-0.39c-1.76,1.32-2.94,3.26-3.31,5.43c-0.37,2.17,0.12,4.4,1.35,6.22
				C198.79,266.38,199.02,267.77,196.92,270.39z"/>
			<path d="M210.16,270.39L210.16,270.39c-0.61,0.77-0.49,1.89,0.28,2.51c0.77,0.61,1.89,0.49,2.51-0.28
				c3.79-4.73,1.96-8.39-1.33-13.98c-0.77-1.06-1.1-2.38-0.91-3.68c0.19-1.3,0.87-2.47,1.91-3.28c0.8-0.58,0.97-1.7,0.39-2.49
				c-0.58-0.8-1.7-0.97-2.49-0.39c-1.76,1.32-2.94,3.26-3.31,5.43c-0.37,2.17,0.12,4.39,1.35,6.22
				C212.03,266.38,212.26,267.77,210.16,270.39z"/>
			<path class="st1" d="M227.73,288.38v-6.69h-59.77v6.69c0,6.25,1.96,12.33,5.6,17.41c3.64,5.07,8.78,8.88,14.69,10.89
				c5.91,2.01,12.31,2.11,18.29,0.3c5.98-1.81,11.24-5.45,15.04-10.4l0-0.01c3.51-4.53,5.61-9.99,6.05-15.7
				C227.69,290.05,227.73,289.22,227.73,288.38z"/>
			<path d="M233.42,282.96h-2.13v-3.06c0-0.47-0.19-0.93-0.52-1.26c-0.33-0.33-0.79-0.52-1.26-0.52h-63.34
				c-0.47,0-0.93,0.19-1.26,0.52c-0.34,0.34-0.52,0.79-0.52,1.26v8.48c0.01,8.87,3.54,17.37,9.81,23.65
				c6.27,6.27,14.78,9.8,23.65,9.81l0,0c4.99,0.02,9.91-1.08,14.42-3.23c4.5-2.14,8.46-5.28,11.58-9.16h5.39
				c4.05,0,7.94-1.62,10.81-4.48c2.87-2.87,4.48-6.75,4.48-10.81c0.01-2.96-1.15-5.79-3.24-7.89
				C239.2,284.17,236.38,282.98,233.42,282.96z M221.58,306.57L221.58,306.57c-3.81,4.96-9.07,8.6-15.04,10.41
				c-5.98,1.81-12.37,1.71-18.29-0.3c-5.91-2.01-11.05-5.82-14.69-10.89c-3.64-5.08-5.6-11.16-5.6-17.41v-6.69h59.77v6.69
				c0,0.84-0.03,1.67-0.1,2.49C227.19,296.58,225.08,302.04,221.58,306.57z M237.52,302.44c-2.2,2.2-5.18,3.43-8.29,3.44h-2.84
				c0.24-0.4,0.46-0.8,0.69-1.21c0.12-0.21,0.25-0.42,0.36-0.64c0.39-0.74,0.76-1.5,1.1-2.27c0.06-0.13,0.1-0.27,0.16-0.4
				c0.27-0.64,0.52-1.29,0.75-1.96c0.09-0.27,0.17-0.54,0.26-0.81c0.17-0.54,0.33-1.07,0.47-1.62c0.08-0.31,0.15-0.61,0.22-0.92
				c0.12-0.53,0.23-1.06,0.33-1.6c0.06-0.31,0.11-0.62,0.16-0.93c0.09-0.58,0.15-1.16,0.21-1.74c0.03-0.27,0.06-0.54,0.08-0.82
				c0.06-0.86,0.1-1.72,0.1-2.59v-1.85h2.13c2,0.04,3.91,0.86,5.31,2.28c1.41,1.42,2.2,3.34,2.22,5.34
				C240.95,297.26,239.71,300.24,237.52,302.44z"/>
		</g>
		<g>
			<path d="M142.8,333.98L142.8,333.98c-0.61,0.77-0.48,1.89,0.28,2.5c0.77,0.61,1.89,0.49,2.51-0.28c3.78-4.73,1.96-8.4-1.33-13.98
				c-0.77-1.06-1.1-2.38-0.91-3.68s0.87-2.47,1.91-3.28c0.79-0.59,0.95-1.69,0.37-2.49c-0.58-0.79-1.69-0.97-2.48-0.39
				c-1.76,1.32-2.94,3.26-3.31,5.43c-0.37,2.17,0.12,4.4,1.35,6.22C144.67,329.97,144.9,331.36,142.8,333.98z"/>
			<path d="M156.04,333.98L156.04,333.98c-0.61,0.77-0.48,1.89,0.28,2.5c0.77,0.61,1.89,0.49,2.51-0.28
				c3.78-4.73,1.96-8.39-1.33-13.98c-0.77-1.06-1.1-2.38-0.91-3.68c0.19-1.3,0.87-2.47,1.91-3.28c0.79-0.58,0.96-1.7,0.37-2.49
				c-0.58-0.79-1.69-0.97-2.48-0.39c-1.76,1.32-2.94,3.26-3.31,5.43c-0.37,2.17,0.12,4.4,1.35,6.22
				C157.91,329.97,158.14,331.36,156.04,333.98z"/>
			<path d="M169.28,333.98L169.28,333.98c-0.61,0.77-0.49,1.89,0.28,2.51c0.77,0.61,1.89,0.49,2.51-0.28
				c3.79-4.73,1.96-8.39-1.33-13.98c-0.77-1.06-1.1-2.38-0.91-3.68c0.19-1.3,0.87-2.47,1.91-3.28c0.8-0.58,0.97-1.7,0.39-2.49
				c-0.58-0.8-1.7-0.97-2.49-0.39c-1.76,1.32-2.94,3.26-3.31,5.43s0.12,4.39,1.35,6.22C171.15,329.97,171.38,331.36,169.28,333.98z"
				/>
			<path class="st1" d="M137.37,374.52c2.91,2.53,6.31,4.49,10,5.74c5.91,2.01,12.31,2.11,18.29,0.3c4.05-1.23,7.77-3.3,10.94-6.04"
				/>
			<path d="M192.54,346.55h-2.13v-3.06c0-0.47-0.19-0.93-0.52-1.26c-0.33-0.34-0.79-0.52-1.26-0.52h-63.34
				c-0.47,0-0.93,0.19-1.26,0.52c-0.34,0.34-0.52,0.79-0.52,1.26v8.48c0.01,8.87,3.54,17.37,9.81,23.65
				c6.27,6.27,14.78,9.8,23.65,9.81l0,0c4.99,0.02,9.91-1.08,14.42-3.23c4.5-2.14,8.46-5.28,11.58-9.16h5.39
				c4.05,0,7.94-1.62,10.81-4.48s4.48-6.75,4.48-10.81c0.01-2.96-1.15-5.79-3.24-7.89C198.33,347.75,195.5,346.57,192.54,346.55z
				 M129.53,363.82c-1.61-3.72-2.45-7.75-2.46-11.85v-6.69h59.77v6.69c0,0.84-0.03,1.67-0.1,2.49c-0.44,5.71-2.55,11.17-6.05,15.7
				l0,0.01c-3.8,4.95-9.06,8.59-15.04,10.4s-12.37,1.71-18.29-0.3c-5.91-2.01-11.05-5.82-14.69-10.89
				C131.43,367.63,130.37,365.77,129.53,363.82 M196.64,366.03c-2.2,2.2-5.18,3.43-8.29,3.44h-2.84c0.24-0.4,0.46-0.8,0.69-1.21
				c0.12-0.21,0.25-0.42,0.36-0.64c0.39-0.74,0.76-1.5,1.1-2.27c0.06-0.13,0.1-0.27,0.16-0.4c0.27-0.64,0.52-1.29,0.75-1.96
				c0.09-0.27,0.17-0.54,0.26-0.81c0.17-0.54,0.33-1.07,0.47-1.62c0.08-0.31,0.15-0.61,0.22-0.92c0.12-0.53,0.23-1.06,0.33-1.6
				c0.06-0.31,0.11-0.62,0.16-0.93c0.09-0.58,0.15-1.16,0.21-1.74c0.03-0.27,0.06-0.54,0.08-0.82c0.06-0.86,0.1-1.72,0.1-2.59v-1.85
				h2.13c2,0.04,3.91,0.86,5.31,2.28c1.41,1.42,2.2,3.34,2.22,5.34C200.07,360.85,198.83,363.83,196.64,366.03z"/>
		</g>
	</g>
</g>
</svg>
